<svg xmlns="http://www.w3.org/2000/svg" version="1.1" width="12.5in" height="8.5in" viewBox = " 0 0 1125 765" >
<!-- Front--> 
<g transform="translate(22.5, 22.5) " > 
<polygon style="stroke:#000000; fill:none; stroke-width:0.9" points="0, 0 42.75000000000001, 0 42.75000000000001, 10.62 85.50000000000001, 10.62 85.50000000000001, 0 112.50000000000001, 0 112.50000000000001, 10.62 139.5, 10.62 139.5, 0 166.5, 0 166.5, 10.62 193.5, 10.62 193.5, 0 220.5, 0 220.5, 10.62 247.5, 10.62 247.5, 0 274.5, 0 274.5, 10.62 317.25, 10.62 317.25, 0 360, 0 360, 42.75000000000001 349.38, 42.75000000000001 349.38, 85.50000000000001 360, 85.50000000000001 360, 112.50000000000001 349.38, 112.50000000000001 349.38, 139.5 360, 139.5 360, 166.5 349.38, 166.5 349.38, 193.5 360, 193.5 360, 220.5 349.38, 220.5 349.38, 247.5 360, 247.5 360, 274.5 349.38, 274.5 349.38, 317.25 360, 317.25 360, 360 317.25, 360 317.25, 349.38 274.5, 349.38 274.5, 360 247.5, 360 247.5, 349.38 220.5, 349.38 220.5, 360 193.5, 360 193.5, 349.38 166.5, 349.38 166.5, 360 139.5, 360 139.5, 349.38 112.50000000000001, 349.38 112.50000000000001, 360 85.50000000000001, 360 85.50000000000001, 349.38 42.75000000000001, 349.38 42.75000000000001, 360 0, 360 0, 317.25 10.62, 317.25 10.62, 274.5 0, 274.5 0, 247.5 10.62, 247.5 10.62, 220.5 0, 220.5 0, 193.5 10.62, 193.5 10.62, 166.5 0, 166.5 0, 139.5 10.62, 139.5 10.62, 112.50000000000001 0, 112.50000000000001 0, 85.50000000000001 10.62, 85.50000000000001 10.62, 42.75000000000001 0, 42.75000000000001 "/> 
</g>
<!-- Back--> 
<g transform="translate(382.5, 22.5) " > 
<polygon style="stroke:#000000; fill:none; stroke-width:0.9" points="0, 0 42.75000000000001, 0 42.75000000000001, 10.62 85.50000000000001, 10.62 85.50000000000001, 0 112.50000000000001, 0 112.50000000000001, 10.62 139.5, 10.62 139.5, 0 166.5, 0 166.5, 10.62 193.5, 10.62 193.5, 0 220.5, 0 220.5, 10.62 247.5, 10.62 247.5, 0 274.5, 0 274.5, 10.62 317.25, 10.62 317.25, 0 360, 0 360, 42.75000000000001 349.38, 42.75000000000001 349.38, 85.50000000000001 360, 85.50000000000001 360, 112.50000000000001 349.38, 112.50000000000001 349.38, 139.5 360, 139.5 360, 166.5 349.38, 166.5 349.38, 193.5 360, 193.5 360, 220.5 349.38, 220.5 349.38, 247.5 360, 247.5 360, 274.5 349.38, 274.5 349.38, 317.25 360, 317.25 360, 360 317.25, 360 317.25, 349.38 274.5, 349.38 274.5, 360 247.5, 360 247.5, 349.38 220.5, 349.38 220.5, 360 193.5, 360 193.5, 349.38 166.5, 349.38 166.5, 360 139.5, 360 139.5, 349.38 112.50000000000001, 349.38 112.50000000000001, 360 85.50000000000001, 360 85.50000000000001, 349.38 42.75000000000001, 349.38 42.75000000000001, 360 0, 360 0, 317.25 10.62, 317.25 10.62, 274.5 0, 274.5 0, 247.5 10.62, 247.5 10.62, 220.5 0, 220.5 0, 193.5 10.62, 193.5 10.62, 166.5 0, 166.5 0, 139.5 10.62, 139.5 10.62, 112.50000000000001 0, 112.50000000000001 0, 85.50000000000001 10.62, 85.50000000000001 10.62, 42.75000000000001 0, 42.75000000000001 "/> 
</g>
<!-- Left--> 
<g transform="translate(742.5, 22.5) " > 
<polygon style="stroke:#000000; fill:none; stroke-width:0.9" points="10.62, 0 42.75000000000001, 0 42.75000000000001, 10.62 85.50000000000001, 10.62 85.50000000000001, 0 112.50000000000001, 0 112.50000000000001, 10.62 139.5, 10.62 139.5, 0 166.5, 0 166.5, 10.62 193.5, 10.62 193.5, 0 220.5, 0 220.5, 10.62 247.5, 10.62 247.5, 0 274.5, 0 274.5, 10.62 317.25, 10.62 317.25, 0 349.38, 0 349.38, 42.75000000000001 360, 42.75000000000001 360, 85.50000000000001 349.38, 85.50000000000001 349.38, 112.50000000000001 360, 112.50000000000001 360, 139.5 349.38, 139.5 349.38, 166.5 360, 166.5 360, 193.5 349.38, 193.5 349.38, 220.5 360, 220.5 360, 247.5 349.38, 247.5 349.38, 274.5 360, 274.5 360, 317.25 349.38, 317.25 349.38, 360 317.25, 360 317.25, 349.38 274.5, 349.38 274.5, 360 247.5, 360 247.5, 349.38 220.5, 349.38 220.5, 360 193.5, 360 193.5, 349.38 166.5, 349.38 166.5, 360 139.5, 360 139.5, 349.38 112.50000000000001, 349.38 112.50000000000001, 360 85.50000000000001, 360 85.50000000000001, 349.38 42.75000000000001, 349.38 42.75000000000001, 360 10.62, 360 10.62, 317.25 0, 317.25 0, 274.5 10.62, 274.5 10.62, 247.5 0, 247.5 0, 220.5 10.62, 220.5 10.62, 193.5 0, 193.5 0, 166.5 10.62, 166.5 10.62, 139.5 0, 139.5 0, 112.50000000000001 10.62, 112.50000000000001 10.62, 85.50000000000001 0, 85.50000000000001 0, 42.75000000000001 10.62, 42.75000000000001 "/> 
</g>
<!-- Right--> 
<g transform="translate(742.5, 382.5) " > 
<polygon style="stroke:#000000; fill:none; stroke-width:0.9" points="10.62, 0 42.75000000000001, 0 42.75000000000001, 10.62 85.50000000000001, 10.62 85.50000000000001, 0 112.50000000000001, 0 112.50000000000001, 10.62 139.5, 10.62 139.5, 0 166.5, 0 166.5, 10.62 193.5, 10.62 193.5, 0 220.5, 0 220.5, 10.62 247.5, 10.62 247.5, 0 274.5, 0 274.5, 10.62 317.25, 10.62 317.25, 0 349.38, 0 349.38, 42.75000000000001 360, 42.75000000000001 360, 85.50000000000001 349.38, 85.50000000000001 349.38, 112.50000000000001 360, 112.50000000000001 360, 139.5 349.38, 139.5 349.38, 166.5 360, 166.5 360, 193.5 349.38, 193.5 349.38, 220.5 360, 220.5 360, 247.5 349.38, 247.5 349.38, 274.5 360, 274.5 360, 317.25 349.38, 317.25 349.38, 360 317.25, 360 317.25, 349.38 274.5, 349.38 274.5, 360 247.5, 360 247.5, 349.38 220.5, 349.38 220.5, 360 193.5, 360 193.5, 349.38 166.5, 349.38 166.5, 360 139.5, 360 139.5, 349.38 112.50000000000001, 349.38 112.50000000000001, 360 85.50000000000001, 360 85.50000000000001, 349.38 42.75000000000001, 349.38 42.75000000000001, 360 10.62, 360 10.62, 317.25 0, 317.25 0, 274.5 10.62, 274.5 10.62, 247.5 0, 247.5 0, 220.5 10.62, 220.5 10.62, 193.5 0, 193.5 0, 166.5 10.62, 166.5 10.62, 139.5 0, 139.5 0, 112.50000000000001 10.62, 112.50000000000001 10.62, 85.50000000000001 0, 85.50000000000001 0, 42.75000000000001 10.62, 42.75000000000001 "/> 
</g>
<!-- Top--> 
<g transform="translate(22.5, 382.5) " > 
<polygon style="stroke:#000000; fill:none; stroke-width:0.9" points="10.62, 10.62 42.75000000000001, 10.62 42.75000000000001, 0 85.50000000000001, 0 85.50000000000001, 10.62 112.50000000000001, 10.62 112.50000000000001, 0 139.5, 0 139.5, 10.62 166.5, 10.62 166.5, 0 193.5, 0 193.5, 10.62 220.5, 10.62 220.5, 0 247.5, 0 247.5, 10.62 274.5, 10.62 274.5, 0 317.25, 0 317.25, 10.62 349.38, 10.62 349.38, 42.75000000000001 360, 42.75000000000001 360, 85.50000000000001 349.38, 85.50000000000001 349.38, 112.50000000000001 360, 112.50000000000001 360, 139.5 349.38, 139.5 349.38, 166.5 360, 166.5 360, 193.5 349.38, 193.5 349.38, 220.5 360, 220.5 360, 247.5 349.38, 247.5 349.38, 274.5 360, 274.5 360, 317.25 349.38, 317.25 349.38, 349.38 317.25, 349.38 317.25, 360 274.5, 360 274.5, 349.38 247.5, 349.38 247.5, 360 220.5, 360 220.5, 349.38 193.5, 349.38 193.5, 360 166.5, 360 166.5, 349.38 139.5, 349.38 139.5, 360 112.50000000000001, 360 112.50000000000001, 349.38 85.50000000000001, 349.38 85.50000000000001, 360 42.75000000000001, 360 42.75000000000001, 349.38 10.62, 349.38 10.62, 317.25 0, 317.25 0, 274.5 10.62, 274.5 10.62, 247.5 0, 247.5 0, 220.5 10.62, 220.5 10.62, 193.5 0, 193.5 0, 166.5 10.62, 166.5 10.62, 139.5 0, 139.5 0, 112.50000000000001 10.62, 112.50000000000001 10.62, 85.50000000000001 0, 85.50000000000001 0, 42.75000000000001 10.62, 42.75000000000001 "/> 
</g>
<!-- Bottom--> 
<g transform="translate(382.5, 382.5) " > 
<polygon style="stroke:#000000; fill:none; stroke-width:0.9" points="10.62, 10.62 42.75000000000001, 10.62 42.75000000000001, 0 85.50000000000001, 0 85.50000000000001, 10.62 112.50000000000001, 10.62 112.50000000000001, 0 139.5, 0 139.5, 10.62 166.5, 10.62 166.5, 0 193.5, 0 193.5, 10.62 220.5, 10.62 220.5, 0 247.5, 0 247.5, 10.62 274.5, 10.62 274.5, 0 317.25, 0 317.25, 10.62 349.38, 10.62 349.38, 42.75000000000001 360, 42.75000000000001 360, 85.50000000000001 349.38, 85.50000000000001 349.38, 112.50000000000001 360, 112.50000000000001 360, 139.5 349.38, 139.5 349.38, 166.5 360, 166.5 360, 193.5 349.38, 193.5 349.38, 220.5 360, 220.5 360, 247.5 349.38, 247.5 349.38, 274.5 360, 274.5 360, 317.25 349.38, 317.25 349.38, 349.38 317.25, 349.38 317.25, 360 274.5, 360 274.5, 349.38 247.5, 349.38 247.5, 360 220.5, 360 220.5, 349.38 193.5, 349.38 193.5, 360 166.5, 360 166.5, 349.38 139.5, 349.38 139.5, 360 112.50000000000001, 360 112.50000000000001, 349.38 85.50000000000001, 349.38 85.50000000000001, 360 42.75000000000001, 360 42.75000000000001, 349.38 10.62, 349.38 10.62, 317.25 0, 317.25 0, 274.5 10.62, 274.5 10.62, 247.5 0, 247.5 0, 220.5 10.62, 220.5 10.62, 193.5 0, 193.5 0, 166.5 10.62, 166.5 10.62, 139.5 0, 139.5 0, 112.50000000000001 10.62, 112.50000000000001 10.62, 85.50000000000001 0, 85.50000000000001 0, 42.75000000000001 10.62, 42.75000000000001 "/> 
</g></svg>