<svg xmlns="http://www.w3.org/2000/svg" version="1.1" width="16.008in" height="6.2219999999999995in" viewBox = " 0 0 1440.72 559.9799999999999" >
<!-- Front--> 
<g transform="translate(22.5, 22.5) " > 
<polygon style="stroke:#000000; fill:none; stroke-width:0.9" points="0, 0 31.185000000000002, 0 31.185000000000002, 10.62 62.370000000000005, 10.62 62.370000000000005, 0 84.87, 0 84.87, 10.62 107.37, 10.62 107.37, 0 129.87, 0 129.87, 10.62 152.37, 10.62 152.37, 0 174.87, 0 174.87, 10.62 197.37, 10.62 197.37, 0 219.87, 0 219.87, 10.62 242.37, 10.62 242.37, 0 264.87, 0 264.87, 10.62 287.37, 10.62 287.37, 0 309.87, 0 309.87, 10.62 332.37, 10.62 332.37, 0 354.87, 0 354.87, 10.62 377.37, 10.62 377.37, 0 399.87, 0 399.87, 10.62 422.37, 10.62 422.37, 0 444.87, 0 444.87, 10.62 476.055, 10.62 476.055, 0 507.24, 0 507.24, 26.748 496.62, 26.748 496.62, 53.496 507.24, 53.496 507.24, 80.244 496.62, 80.244 496.62, 106.992 507.24, 106.992 507.24, 133.74 476.055, 133.74 476.055, 123.12 444.87, 123.12 444.87, 133.74 422.37, 133.74 422.37, 123.12 399.87, 123.12 399.87, 133.74 377.37, 133.74 377.37, 123.12 354.87, 123.12 354.87, 133.74 332.37, 133.74 332.37, 123.12 309.87, 123.12 309.87, 133.74 287.37, 133.74 287.37, 123.12 264.87, 123.12 264.87, 133.74 242.37, 133.74 242.37, 123.12 219.87, 123.12 219.87, 133.74 197.37, 133.74 197.37, 123.12 174.87, 123.12 174.87, 133.74 152.37, 133.74 152.37, 123.12 129.87, 123.12 129.87, 133.74 107.37, 133.74 107.37, 123.12 84.87, 123.12 84.87, 133.74 62.370000000000005, 133.74 62.370000000000005, 123.12 31.185000000000002, 123.12 31.185000000000002, 133.74 0, 133.74 0, 106.992 10.62, 106.992 10.62, 80.244 0, 80.244 0, 53.496 10.62, 53.496 10.62, 26.748 0, 26.748 "/> 
</g>
<!-- Back--> 
<g transform="translate(529.74, 22.5) " > 
<polygon style="stroke:#000000; fill:none; stroke-width:0.9" points="0, 0 31.185000000000002, 0 31.185000000000002, 10.62 62.370000000000005, 10.62 62.370000000000005, 0 84.87, 0 84.87, 10.62 107.37, 10.62 107.37, 0 129.87, 0 129.87, 10.62 152.37, 10.62 152.37, 0 174.87, 0 174.87, 10.62 197.37, 10.62 197.37, 0 219.87, 0 219.87, 10.62 242.37, 10.62 242.37, 0 264.87, 0 264.87, 10.62 287.37, 10.62 287.37, 0 309.87, 0 309.87, 10.62 332.37, 10.62 332.37, 0 354.87, 0 354.87, 10.62 377.37, 10.62 377.37, 0 399.87, 0 399.87, 10.62 422.37, 10.62 422.37, 0 444.87, 0 444.87, 10.62 476.055, 10.62 476.055, 0 507.24, 0 507.24, 26.748 496.62, 26.748 496.62, 53.496 507.24, 53.496 507.24, 80.244 496.62, 80.244 496.62, 106.992 507.24, 106.992 507.24, 133.74 476.055, 133.74 476.055, 123.12 444.87, 123.12 444.87, 133.74 422.37, 133.74 422.37, 123.12 399.87, 123.12 399.87, 133.74 377.37, 133.74 377.37, 123.12 354.87, 123.12 354.87, 133.74 332.37, 133.74 332.37, 123.12 309.87, 123.12 309.87, 133.74 287.37, 133.74 287.37, 123.12 264.87, 123.12 264.87, 133.74 242.37, 133.74 242.37, 123.12 219.87, 123.12 219.87, 133.74 197.37, 133.74 197.37, 123.12 174.87, 123.12 174.87, 133.74 152.37, 133.74 152.37, 123.12 129.87, 123.12 129.87, 133.74 107.37, 133.74 107.37, 123.12 84.87, 123.12 84.87, 133.74 62.370000000000005, 133.74 62.370000000000005, 123.12 31.185000000000002, 123.12 31.185000000000002, 133.74 0, 133.74 0, 106.992 10.62, 106.992 10.62, 80.244 0, 80.244 0, 53.496 10.62, 53.496 10.62, 26.748 0, 26.748 "/> 
</g>
<!-- Left--> 
<g transform="translate(1036.98, 22.5) " > 
<polygon style="stroke:#000000; fill:none; stroke-width:0.9" points="10.62, 0 33.434999999999995, 0 33.434999999999995, 10.62 66.86999999999999, 10.62 66.86999999999999, 0 89.36999999999999, 0 89.36999999999999, 10.62 111.86999999999999, 10.62 111.86999999999999, 0 134.37, 0 134.37, 10.62 156.87, 10.62 156.87, 0 179.37, 0 179.37, 10.62 201.87, 10.62 201.87, 0 224.37, 0 224.37, 10.62 246.87, 10.62 246.87, 0 269.37, 0 269.37, 10.62 291.87, 10.62 291.87, 0 314.37, 0 314.37, 10.62 347.80499999999995, 10.62 347.80499999999995, 0 370.61999999999995, 0 370.61999999999995, 26.748 381.23999999999995, 26.748 381.23999999999995, 53.496 370.61999999999995, 53.496 370.61999999999995, 80.244 381.23999999999995, 80.244 381.23999999999995, 106.992 370.61999999999995, 106.992 370.62, 133.74 347.80499999999995, 133.74 347.80499999999995, 123.12 314.37, 123.12 314.37, 133.74 291.87, 133.74 291.87, 123.12 269.37, 123.12 269.37, 133.74 246.87, 133.74 246.87, 123.12 224.37, 123.12 224.37, 133.74 201.87, 133.74 201.87, 123.12 179.37, 123.12 179.37, 133.74 156.87, 133.74 156.87, 123.12 134.37, 123.12 134.37, 133.74 111.86999999999999, 133.74 111.86999999999999, 123.12 89.36999999999999, 123.12 89.36999999999999, 133.74 66.86999999999999, 133.74 66.86999999999999, 123.12 33.434999999999995, 123.12 33.434999999999995, 133.74 10.62, 133.74 10.62, 106.992 0, 106.992 0, 80.244 10.62, 80.244 10.62, 53.496 0, 53.496 0, 26.748 10.62, 26.748 "/> 
</g>
<!-- Right--> 
<g transform="translate(1036.98, 156.24) " > 
<polygon style="stroke:#000000; fill:none; stroke-width:0.9" points="10.62, 0 33.434999999999995, 0 33.434999999999995, 10.62 66.86999999999999, 10.62 66.86999999999999, 0 89.36999999999999, 0 89.36999999999999, 10.62 111.86999999999999, 10.62 111.86999999999999, 0 134.37, 0 134.37, 10.62 156.87, 10.62 156.87, 0 179.37, 0 179.37, 10.62 201.87, 10.62 201.87, 0 224.37, 0 224.37, 10.62 246.87, 10.62 246.87, 0 269.37, 0 269.37, 10.62 291.87, 10.62 291.87, 0 314.37, 0 314.37, 10.62 347.80499999999995, 10.62 347.80499999999995, 0 370.61999999999995, 0 370.61999999999995, 26.748 381.23999999999995, 26.748 381.23999999999995, 53.496 370.61999999999995, 53.496 370.61999999999995, 80.244 381.23999999999995, 80.244 381.23999999999995, 106.992 370.61999999999995, 106.992 370.62, 133.74 347.80499999999995, 133.74 347.80499999999995, 123.12 314.37, 123.12 314.37, 133.74 291.87, 133.74 291.87, 123.12 269.37, 123.12 269.37, 133.74 246.87, 133.74 246.87, 123.12 224.37, 123.12 224.37, 133.74 201.87, 133.74 201.87, 123.12 179.37, 123.12 179.37, 133.74 156.87, 133.74 156.87, 123.12 134.37, 123.12 134.37, 133.74 111.86999999999999, 133.74 111.86999999999999, 123.12 89.36999999999999, 123.12 89.36999999999999, 133.74 66.86999999999999, 133.74 66.86999999999999, 123.12 33.434999999999995, 123.12 33.434999999999995, 133.74 10.62, 133.74 10.62, 106.992 0, 106.992 0, 80.244 10.62, 80.244 10.62, 53.496 0, 53.496 0, 26.748 10.62, 26.748 "/> 
</g>
<!-- Top--> 
<g transform="translate(22.5, 156.24) " > 
<polygon style="stroke:#000000; fill:none; stroke-width:0.9" points="10.62, 10.62 31.185000000000002, 10.62 31.185000000000002, 0 62.370000000000005, 0 62.370000000000005, 10.62 84.87, 10.62 84.87, 0 107.37, 0 107.37, 10.62 129.87, 10.62 129.87, 0 152.37, 0 152.37, 10.62 174.87, 10.62 174.87, 0 197.37, 0 197.37, 10.62 219.87, 10.62 219.87, 0 242.37, 0 242.37, 10.62 264.87, 10.62 264.87, 0 287.37, 0 287.37, 10.62 309.87, 10.62 309.87, 0 332.37, 0 332.37, 10.62 354.87, 10.62 354.87, 0 377.37, 0 377.37, 10.62 399.87, 10.62 399.87, 0 422.37, 0 422.37, 10.62 444.87, 10.62 444.87, 0 476.055, 0 476.055, 10.62 496.62, 10.62 496.62, 33.434999999999995 507.24, 33.434999999999995 507.24, 66.86999999999999 496.62, 66.86999999999999 496.62, 89.36999999999999 507.24, 89.36999999999999 507.24, 111.86999999999999 496.62, 111.86999999999999 496.62, 134.37 507.24, 134.37 507.24, 156.87 496.62, 156.87 496.62, 179.37 507.24, 179.37 507.24, 201.87 496.62, 201.87 496.62, 224.37 507.24, 224.37 507.24, 246.87 496.62, 246.87 496.62, 269.37 507.24, 269.37 507.24, 291.87 496.62, 291.87 496.62, 314.37 507.24, 314.37 507.24, 347.80499999999995 496.62, 347.80499999999995 496.62, 370.61999999999995 476.055, 370.61999999999995 476.055, 381.23999999999995 444.87, 381.23999999999995 444.87, 370.61999999999995 422.37, 370.61999999999995 422.37, 381.23999999999995 399.87, 381.23999999999995 399.87, 370.61999999999995 377.37, 370.61999999999995 377.37, 381.23999999999995 354.87, 381.23999999999995 354.87, 370.61999999999995 332.37, 370.61999999999995 332.37, 381.23999999999995 309.87, 381.23999999999995 309.87, 370.61999999999995 287.37, 370.61999999999995 287.37, 381.23999999999995 264.87, 381.23999999999995 264.87, 370.61999999999995 242.37, 370.61999999999995 242.37, 381.23999999999995 219.87, 381.23999999999995 219.87, 370.61999999999995 197.37, 370.61999999999995 197.37, 381.23999999999995 174.87, 381.23999999999995 174.87, 370.61999999999995 152.37, 370.61999999999995 152.37, 381.23999999999995 129.87, 381.23999999999995 129.87, 370.61999999999995 107.37, 370.61999999999995 107.37, 381.23999999999995 84.87, 381.23999999999995 84.87, 370.61999999999995 62.370000000000005, 370.61999999999995 62.370000000000005, 381.23999999999995 31.185000000000002, 381.23999999999995 31.185000000000002, 370.61999999999995 10.62, 370.62 10.62, 347.80499999999995 0, 347.80499999999995 0, 314.37 10.62, 314.37 10.62, 291.87 0, 291.87 0, 269.37 10.62, 269.37 10.62, 246.87 0, 246.87 0, 224.37 10.62, 224.37 10.62, 201.87 0, 201.87 0, 179.37 10.62, 179.37 10.62, 156.87 0, 156.87 0, 134.37 10.62, 134.37 10.62, 111.86999999999999 0, 111.86999999999999 0, 89.36999999999999 10.62, 89.36999999999999 10.62, 66.86999999999999 0, 66.86999999999999 0, 33.434999999999995 10.62, 33.434999999999995 "/> 
</g>
<!-- Bottom--> 
<g transform="translate(529.74, 156.24) " > 
<polygon style="stroke:#000000; fill:none; stroke-width:0.9" points="10.62, 10.62 31.185000000000002, 10.62 31.185000000000002, 0 62.370000000000005, 0 62.370000000000005, 10.62 84.87, 10.62 84.87, 0 107.37, 0 107.37, 10.62 129.87, 10.62 129.87, 0 152.37, 0 152.37, 10.62 174.87, 10.62 174.87, 0 197.37, 0 197.37, 10.62 219.87, 10.62 219.87, 0 242.37, 0 242.37, 10.62 264.87, 10.62 264.87, 0 287.37, 0 287.37, 10.62 309.87, 10.62 309.87, 0 332.37, 0 332.37, 10.62 354.87, 10.62 354.87, 0 377.37, 0 377.37, 10.62 399.87, 10.62 399.87, 0 422.37, 0 422.37, 10.62 444.87, 10.62 444.87, 0 476.055, 0 476.055, 10.62 496.62, 10.62 496.62, 33.434999999999995 507.24, 33.434999999999995 507.24, 66.86999999999999 496.62, 66.86999999999999 496.62, 89.36999999999999 507.24, 89.36999999999999 507.24, 111.86999999999999 496.62, 111.86999999999999 496.62, 134.37 507.24, 134.37 507.24, 156.87 496.62, 156.87 496.62, 179.37 507.24, 179.37 507.24, 201.87 496.62, 201.87 496.62, 224.37 507.24, 224.37 507.24, 246.87 496.62, 246.87 496.62, 269.37 507.24, 269.37 507.24, 291.87 496.62, 291.87 496.62, 314.37 507.24, 314.37 507.24, 347.80499999999995 496.62, 347.80499999999995 496.62, 370.61999999999995 476.055, 370.61999999999995 476.055, 381.23999999999995 444.87, 381.23999999999995 444.87, 370.61999999999995 422.37, 370.61999999999995 422.37, 381.23999999999995 399.87, 381.23999999999995 399.87, 370.61999999999995 377.37, 370.61999999999995 377.37, 381.23999999999995 354.87, 381.23999999999995 354.87, 370.61999999999995 332.37, 370.61999999999995 332.37, 381.23999999999995 309.87, 381.23999999999995 309.87, 370.61999999999995 287.37, 370.61999999999995 287.37, 381.23999999999995 264.87, 381.23999999999995 264.87, 370.61999999999995 242.37, 370.61999999999995 242.37, 381.23999999999995 219.87, 381.23999999999995 219.87, 370.61999999999995 197.37, 370.61999999999995 197.37, 381.23999999999995 174.87, 381.23999999999995 174.87, 370.61999999999995 152.37, 370.61999999999995 152.37, 381.23999999999995 129.87, 381.23999999999995 129.87, 370.61999999999995 107.37, 370.61999999999995 107.37, 381.23999999999995 84.87, 381.23999999999995 84.87, 370.61999999999995 62.370000000000005, 370.61999999999995 62.370000000000005, 381.23999999999995 31.185000000000002, 381.23999999999995 31.185000000000002, 370.61999999999995 10.62, 370.62 10.62, 347.80499999999995 0, 347.80499999999995 0, 314.37 10.62, 314.37 10.62, 291.87 0, 291.87 0, 269.37 10.62, 269.37 10.62, 246.87 0, 246.87 0, 224.37 10.62, 224.37 10.62, 201.87 0, 201.87 0, 179.37 10.62, 179.37 10.62, 156.87 0, 156.87 0, 134.37 10.62, 134.37 10.62, 111.86999999999999 0, 111.86999999999999 0, 89.36999999999999 10.62, 89.36999999999999 10.62, 66.86999999999999 0, 66.86999999999999 0, 33.434999999999995 10.62, 33.434999999999995 "/> 
</g></svg>