  0
SECTION
  2
HEADER
  9
$ACADVER
  1
AC1027
  9
$ACADMAINTVER
 70
     8
  9
$DWGCODEPAGE
  3
ANSI_1252
  9
$REQUIREDVERSIONS
160
                 0
  9
$INSBASE
 10
0.0
 20
0.0
 30
0.0
  9
$EXTMIN
 10
1.000000000000000E+20
 20
1.000000000000000E+20
 30
1.000000000000000E+20
  9
$EXTMAX
 10
-1.000000000000000E+20
 20
-1.000000000000000E+20
 30
-1.000000000000000E+20
  9
$LIMMIN
 10
0.0
 20
0.0
  9
$LIMMAX
 10
12.0
 20
9.0
  9
$ORTHOMODE
 70
     0
  9
$REGENMODE
 70
     1
  9
$FILLMODE
 70
     1
  9
$QTEXTMODE
 70
     0
  9
$MIRRTEXT
 70
     1
  9
$LTSCALE
 40
1.0
  9
$ATTMODE
 70
     1
  9
$TEXTSIZE
 40
0.2
  9
$TRACEWID
 40
0.05
  9
$TEXTSTYLE
  7
Standard
  9
$CLAYER
  8
0
  9
$CELTYPE
  6
ByLayer
  9
$CECOLOR
 62
   256
  9
$CELTSCALE
 40
1.0
  9
$DISPSILH
 70
     0
  9
$DIMSCALE
 40
1.0
  9
$DIMASZ
 40
0.18
  9
$DIMEXO
 40
0.0625
  9
$DIMDLI
 40
0.38
  9
$DIMRND
 40
0.0
  9
$DIMDLE
 40
0.0
  9
$DIMEXE
 40
0.18
  9
$DIMTP
 40
0.0
  9
$DIMTM
 40
0.0
  9
$DIMTXT
 40
0.18
  9
$DIMCEN
 40
0.09
  9
$DIMTSZ
 40
0.0
  9
$DIMTOL
 70
     0
  9
$DIMLIM
 70
     0
  9
$DIMTIH
 70
     1
  9
$DIMTOH
 70
     1
  9
$DIMSE1
 70
     0
  9
$DIMSE2
 70
     0
  9
$DIMTAD
 70
     0
  9
$DIMZIN
 70
     0
  9
$DIMBLK
  1

  9
$DIMASO
 70
     1
  9
$DIMSHO
 70
     1
  9
$DIMPOST
  1

  9
$DIMAPOST
  1

  9
$DIMALT
 70
     0
  9
$DIMALTD
 70
     2
  9
$DIMALTF
 40
25.4
  9
$DIMLFAC
 40
1.0
  9
$DIMTOFL
 70
     0
  9
$DIMTVP
 40
0.0
  9
$DIMTIX
 70
     0
  9
$DIMSOXD
 70
     0
  9
$DIMSAH
 70
     0
  9
$DIMBLK1
  1

  9
$DIMBLK2
  1

  9
$DIMSTYLE
  2
Standard
  9
$DIMCLRD
 70
     0
  9
$DIMCLRE
 70
     0
  9
$DIMCLRT
 70
     0
  9
$DIMTFAC
 40
1.0
  9
$DIMGAP
 40
0.09
  9
$DIMJUST
 70
     0
  9
$DIMSD1
 70
     0
  9
$DIMSD2
 70
     0
  9
$DIMTOLJ
 70
     1
  9
$DIMTZIN
 70
     0
  9
$DIMALTZ
 70
     0
  9
$DIMALTTZ
 70
     0
  9
$DIMUPT
 70
     0
  9
$DIMDEC
 70
     4
  9
$DIMTDEC
 70
     4
  9
$DIMALTU
 70
     2
  9
$DIMALTTD
 70
     2
  9
$DIMTXSTY
  7
Standard
  9
$DIMAUNIT
 70
     0
  9
$DIMADEC
 70
     0
  9
$DIMALTRND
 40
0.0
  9
$DIMAZIN
 70
     0
  9
$DIMDSEP
 70
    46
  9
$DIMATFIT
 70
     3
  9
$DIMFRAC
 70
     0
  9
$DIMLDRBLK
  1

  9
$DIMLUNIT
 70
     2
  9
$DIMLWD
 70
    -2
  9
$DIMLWE
 70
    -2
  9
$DIMTMOVE
 70
     0
  9
$DIMFXL
 40
1.0
  9
$DIMFXLON
 70
     0
  9
$DIMJOGANG
 40
0.7853981633974483
  9
$DIMTFILL
 70
     0
  9
$DIMTFILLCLR
 70
     0
  9
$DIMARCSYM
 70
     0
  9
$DIMLTYPE
  6

  9
$DIMLTEX1
  6

  9
$DIMLTEX2
  6

  9
$DIMTXTDIRECTION
 70
     0
  9
$LUNITS
 70
     2
  9
$LUPREC
 70
     4
  9
$SKETCHINC
 40
0.1
  9
$FILLETRAD
 40
0.5
  9
$AUNITS
 70
     0
  9
$AUPREC
 70
     0
  9
$MENU
  1
.
  9
$ELEVATION
 40
0.0
  9
$PELEVATION
 40
0.0
  9
$THICKNESS
 40
0.0
  9
$LIMCHECK
 70
     0
  9
$CHAMFERA
 40
0.0
  9
$CHAMFERB
 40
0.0
  9
$CHAMFERC
 40
0.0
  9
$CHAMFERD
 40
0.0
  9
$SKPOLY
 70
     0
  9
$TDCREATE
 40
2457793.403835671
  9
$TDUCREATE
 40
2457793.612169005
  9
$TDUPDATE
 40
2457793.403835856
  9
$TDUUPDATE
 40
2457793.61216919
  9
$TDINDWG
 40
0.0000000116
  9
$TDUSRTIMER
 40
0.0000000116
  9
$USRTIMER
 70
     1
  9
$ANGBASE
 50
0.0
  9
$ANGDIR
 70
     0
  9
$PDMODE
 70
     0
  9
$PDSIZE
 40
0.0
  9
$PLINEWID
 40
0.0
  9
$SPLFRAME
 70
     0
  9
$SPLINETYPE
 70
     6
  9
$SPLINESEGS
 70
     8
  9
$HANDSEED
  5
90
  9
$SURFTAB1
 70
     6
  9
$SURFTAB2
 70
     6
  9
$SURFTYPE
 70
     6
  9
$SURFU
 70
     6
  9
$SURFV
 70
     6
  9
$UCSBASE
  2

  9
$UCSNAME
  2

  9
$UCSORG
 10
0.0
 20
0.0
 30
0.0
  9
$UCSXDIR
 10
1.0
 20
0.0
 30
0.0
  9
$UCSYDIR
 10
0.0
 20
1.0
 30
0.0
  9
$UCSORTHOREF
  2

  9
$UCSORTHOVIEW
 70
     0
  9
$UCSORGTOP
 10
0.0
 20
0.0
 30
0.0
  9
$UCSORGBOTTOM
 10
0.0
 20
0.0
 30
0.0
  9
$UCSORGLEFT
 10
0.0
 20
0.0
 30
0.0
  9
$UCSORGRIGHT
 10
0.0
 20
0.0
 30
0.0
  9
$UCSORGFRONT
 10
0.0
 20
0.0
 30
0.0
  9
$UCSORGBACK
 10
0.0
 20
0.0
 30
0.0
  9
$PUCSBASE
  2

  9
$PUCSNAME
  2

  9
$PUCSORG
 10
0.0
 20
0.0
 30
0.0
  9
$PUCSXDIR
 10
1.0
 20
0.0
 30
0.0
  9
$PUCSYDIR
 10
0.0
 20
1.0
 30
0.0
  9
$PUCSORTHOREF
  2

  9
$PUCSORTHOVIEW
 70
     0
  9
$PUCSORGTOP
 10
0.0
 20
0.0
 30
0.0
  9
$PUCSORGBOTTOM
 10
0.0
 20
0.0
 30
0.0
  9
$PUCSORGLEFT
 10
0.0
 20
0.0
 30
0.0
  9
$PUCSORGRIGHT
 10
0.0
 20
0.0
 30
0.0
  9
$PUCSORGFRONT
 10
0.0
 20
0.0
 30
0.0
  9
$PUCSORGBACK
 10
0.0
 20
0.0
 30
0.0
  9
$USERI1
 70
     0
  9
$USERI2
 70
     0
  9
$USERI3
 70
     0
  9
$USERI4
 70
     0
  9
$USERI5
 70
     0
  9
$USERR1
 40
0.0
  9
$USERR2
 40
0.0
  9
$USERR3
 40
0.0
  9
$USERR4
 40
0.0
  9
$USERR5
 40
0.0
  9
$WORLDVIEW
 70
     1
  9
$SHADEDGE
 70
     3
  9
$SHADEDIF
 70
    70
  9
$TILEMODE
 70
     1
  9
$MAXACTVP
 70
    64
  9
$PINSBASE
 10
0.0
 20
0.0
 30
0.0
  9
$PLIMCHECK
 70
     0
  9
$PEXTMIN
 10
1.000000000000000E+20
 20
1.000000000000000E+20
 30
1.000000000000000E+20
  9
$PEXTMAX
 10
-1.000000000000000E+20
 20
-1.000000000000000E+20
 30
-1.000000000000000E+20
  9
$PLIMMIN
 10
0.0
 20
0.0
  9
$PLIMMAX
 10
12.0
 20
9.0
  9
$UNITMODE
 70
     0
  9
$VISRETAIN
 70
     1
  9
$PLINEGEN
 70
     0
  9
$PSLTSCALE
 70
     1
  9
$TREEDEPTH
 70
  3020
  9
$CMLSTYLE
  2
Standard
  9
$CMLJUST
 70
     0
  9
$CMLSCALE
 40
1.0
  9
$PROXYGRAPHICS
 70
     1
  9
$MEASUREMENT
 70
     0
  9
$CELWEIGHT
370
    -1
  9
$ENDCAPS
280
     0
  9
$JOINSTYLE
280
     0
  9
$LWDISPLAY
290
     0
  9
$INSUNITS
 70
     1
  9
$HYPERLINKBASE
  1

  9
$STYLESHEET
  1

  9
$XEDIT
290
     1
  9
$CEPSNTYPE
380
     0
  9
$PSTYLEMODE
290
     1
  9
$FINGERPRINTGUID
  2
{DE7176C8-2D24-4171-B4B7-710B95D3F346}
  9
$VERSIONGUID
  2
{FAEB1C32-E019-11D5-929B-00C0DF256EC4}
  9
$EXTNAMES
290
     1
  9
$PSVPSCALE
 40
0.0
  9
$OLESTARTUP
290
     0
  9
$SORTENTS
280
   127
  9
$INDEXCTL
280
     0
  9
$HIDETEXT
280
     1
  9
$XCLIPFRAME
280
     2
  9
$HALOGAP
280
     0
  9
$OBSCOLOR
 70
   257
  9
$OBSLTYPE
280
     0
  9
$INTERSECTIONDISPLAY
280
     0
  9
$INTERSECTIONCOLOR
 70
   257
  9
$DIMASSOC
280
     2
  9
$PROJECTNAME
  1

  9
$CAMERADISPLAY
290
     0
  9
$LENSLENGTH
 40
50.0
  9
$CAMERAHEIGHT
 40
0.0
  9
$STEPSPERSEC
 40
2.0
  9
$STEPSIZE
 40
6.0
  9
$3DDWFPREC
 40
2.0
  9
$PSOLWIDTH
 40
0.25
  9
$PSOLHEIGHT
 40
4.0
  9
$LOFTANG1
 40
1.570796326794897
  9
$LOFTANG2
 40
1.570796326794897
  9
$LOFTMAG1
 40
0.0
  9
$LOFTMAG2
 40
0.0
  9
$LOFTPARAM
 70
     7
  9
$LOFTNORMALS
280
     1
  9
$LATITUDE
 40
37.795
  9
$LONGITUDE
 40
-122.394
  9
$NORTHDIRECTION
 40
0.0
  9
$TIMEZONE
 70
 -8000
  9
$LIGHTGLYPHDISPLAY
280
     1
  9
$TILEMODELIGHTSYNCH
280
     1
  9
$CMATERIAL
347
44
  9
$SOLIDHIST
280
     1
  9
$SHOWHIST
280
     1
  9
$DWFFRAME
280
     2
  9
$DGNFRAME
280
     2
  9
$REALWORLDSCALE
290
     1
  9
$INTERFERECOLOR
 62
   256
  9
$CSHADOW
280
     0
  9
$SHADOWPLANELOCATION
 40
0.0
  0
ENDSEC
  0
SECTION
  2
CLASSES
  0
CLASS
  1
ACDBDICTIONARYWDFLT
  2
AcDbDictionaryWithDefault
  3
ObjectDBX Classes
 90
        0
 91
        4
280
     0
281
     0
  0
CLASS
  1
VISUALSTYLE
  2
AcDbVisualStyle
  3
ObjectDBX Classes
 90
     4095
 91
        4
280
     0
281
     0
  0
CLASS
  1
MATERIAL
  2
AcDbMaterial
  3
ObjectDBX Classes
 90
     1153
 91
        4
280
     0
281
     0
  0
CLASS
  1
SCALE
  2
AcDbScale
  3
ObjectDBX Classes
 90
     1153
 91
        4
280
     0
281
     0
  0
CLASS
  1
SUN
  2
AcDbSun
  3
SCENEOE
 90
     1153
 91
        4
280
     0
281
     0
  0
CLASS
  1
DICTIONARYVAR
  2
AcDbDictionaryVar
  3
ObjectDBX Classes
 90
        0
 91
        4
280
     0
281
     0
  0
ENDSEC
  0
SECTION
  2
TABLES
  0
TABLE
  2
VPORT
  5
8
330
0
100
AcDbSymbolTable
 70
     1
  0
VPORT
  5
29
330
8
100
AcDbSymbolTableRecord
100
AcDbViewportTableRecord
  2
*Active
 70
     0
 10
0.0
 20
0.0
 11
1.0
 21
1.0
 12
10.42990654205607
 22
4.5
 13
0.0
 23
0.0
 14
0.5
 24
0.5
 15
0.5
 25
0.5
 16
0.0
 26
0.0
 36
1.0
 17
0.0
 27
0.0
 37
0.0
 40
9.0
 41
1.972972972850329
 42
50.0
 43
0.0
 44
0.0
 50
0.0
 51
0.0
 71
     0
 72
   100
 73
     1
 74
     3
 75
     0
 76
     0
 77
     0
 78
     0
281
     0
 65
     1
110
0.0
120
0.0
130
0.0
111
1.0
121
0.0
131
0.0
112
0.0
122
1.0
132
0.0
 79
     0
146
0.0
 60
     3
 61
     5
292
     1
282
     1
141
0.0
142
0.0
 63
   250
361
69
  0
ENDTAB
  0
TABLE
  2
LTYPE
  5
5
330
0
100
AcDbSymbolTable
 70
     1
  0
LTYPE
  5
14
330
5
100
AcDbSymbolTableRecord
100
AcDbLinetypeTableRecord
  2
ByBlock
 70
     0
  3

 72
    65
 73
     0
 40
0.0
  0
LTYPE
  5
15
330
5
100
AcDbSymbolTableRecord
100
AcDbLinetypeTableRecord
  2
ByLayer
 70
     0
  3

 72
    65
 73
     0
 40
0.0
  0
LTYPE
  5
16
330
5
100
AcDbSymbolTableRecord
100
AcDbLinetypeTableRecord
  2
Continuous
 70
     0
  3
Solid line
 72
    65
 73
     0
 40
0.0
  0
ENDTAB
  0
TABLE
  2
LAYER
  5
2
330
0
100
AcDbSymbolTable
 70
     2
  0
LAYER
  5
10
330
2
100
AcDbSymbolTableRecord
100
AcDbLayerTableRecord
  2
0
 70
     0
 62
     7
  6
Continuous
370
    -3
390
F
347
46
348
0
  0
LAYER
  5
6E
102
{ACAD_XDICTIONARY
360
6F
102
}
330
2
100
AcDbSymbolTableRecord
100
AcDbLayerTableRecord
  2
Layer 1
 70
     0
 62
     7
  6
Continuous
370
    -3
390
F
347
46
348
0
  0
ENDTAB
  0
TABLE
  2
STYLE
  5
3
330
0
100
AcDbSymbolTable
 70
     1
  0
STYLE
  5
11
330
3
100
AcDbSymbolTableRecord
100
AcDbTextStyleTableRecord
  2
Standard
 70
     0
 40
0.0
 41
1.0
 50
0.0
 71
     0
 42
0.2
  3
txt
  4

  0
ENDTAB
  0
TABLE
  2
VIEW
  5
6
330
0
100
AcDbSymbolTable
 70
     0
  0
ENDTAB
  0
TABLE
  2
UCS
  5
7
330
0
100
AcDbSymbolTable
 70
     0
  0
ENDTAB
  0
TABLE
  2
APPID
  5
9
330
0
100
AcDbSymbolTable
 70
     1
  0
APPID
  5
12
330
9
100
AcDbSymbolTableRecord
100
AcDbRegAppTableRecord
  2
ACAD
 70
     0
  0
ENDTAB
  0
TABLE
  2
DIMSTYLE
  5
A
330
0
100
AcDbSymbolTable
 70
     1
100
AcDbDimStyleTable
  0
DIMSTYLE
105
27
330
A
100
AcDbSymbolTableRecord
100
AcDbDimStyleTableRecord
  2
Standard
 70
     0
178
     0
340
11
  0
ENDTAB
  0
TABLE
  2
BLOCK_RECORD
  5
1
330
0
100
AcDbSymbolTable
 70
     1
  0
BLOCK_RECORD
  5
1F
330
1
100
AcDbSymbolTableRecord
100
AcDbBlockTableRecord
  2
*Model_Space
340
22
 70
     0
280
     1
281
     0
  0
BLOCK_RECORD
  5
1B
330
1
100
AcDbSymbolTableRecord
100
AcDbBlockTableRecord
  2
*Paper_Space
340
1E
 70
     0
280
     1
281
     0
  0
BLOCK_RECORD
  5
23
330
1
100
AcDbSymbolTableRecord
100
AcDbBlockTableRecord
  2
*Paper_Space0
340
26
 70
     0
280
     1
281
     0
  0
ENDTAB
  0
ENDSEC
  0
SECTION
  2
BLOCKS
  0
BLOCK
  5
20
330
1F
100
AcDbEntity
  8
0
100
AcDbBlockBegin
  2
*Model_Space
 70
     0
 10
0.0
 20
0.0
 30
0.0
  3
*Model_Space
  1
*Model_Space
  0
ENDBLK
  5
21
330
1F
100
AcDbEntity
  8
0
100
AcDbBlockEnd
  0
BLOCK
  5
1C
330
1B
100
AcDbEntity
 67
     1
  8
0
100
AcDbBlockBegin
  2
*Paper_Space
 70
     0
 10
0.0
 20
0.0
 30
0.0
  3
*Paper_Space
  1
*Paper_Space
  0
ENDBLK
  5
1D
330
1B
100
AcDbEntity
 67
     1
  8
0
100
AcDbBlockEnd
  0
BLOCK
  5
24
330
23
100
AcDbEntity
  8
0
100
AcDbBlockBegin
  2
*Paper_Space0
 70
     0
 10
0.0
 20
0.0
 30
0.0
  3
*Paper_Space0
  1
*Paper_Space0
  0
ENDBLK
  5
25
330
23
100
AcDbEntity
  8
0
100
AcDbBlockEnd
  0
ENDSEC
  0
SECTION
  2
ENTITIES
  0
LWPOLYLINE
  5
72
102
{ACAD_REACTORS
330
73
102
}
330
1F
100
AcDbEntity
  8
Layer 1
100
AcDbPolyline
 90
        4
 70
     1
 43
0.0
 10
18.9354543826745
 20
9.83147704914278
 42
0.414213562373095
 10
10.4225303847381
 20
18.3444010470792
 42
0.414213562373095
 10
1.9096063868016
 20
9.83147704914278
 42
0.414213562373095
 10
10.4225303847381
 20
1.31855305120632
 42
0.414213562373095
  0
SPLINE
  5
74
102
{ACAD_REACTORS
330
73
102
}
330
1F
100
AcDbEntity
  8
Layer 1
100
AcDbSpline
210
0.0
220
0.0
230
1.0
 70
    11
 71
     3
 72
   318
 73
   314
 74
     0
 42
0.000000001
 43
0.0000000001
 40
0.0
 40
0.0
 40
0.0
 40
0.0
 40
0.0032467532467532
 40
0.0064935064935065
 40
0.0097402597402597
 40
0.012987012987013
 40
0.0162337662337662
 40
0.0194805194805195
 40
0.0227272727272727
 40
0.025974025974026
 40
0.0292207792207792
 40
0.0324675324675325
 40
0.0357142857142857
 40
0.038961038961039
 40
0.0422077922077922
 40
0.0454545454545455
 40
0.0487012987012987
 40
0.051948051948052
 40
0.0551948051948052
 40
0.0584415584415585
 40
0.0616883116883117
 40
0.0649350649350649
 40
0.0681818181818182
 40
0.0714285714285714
 40
0.0746753246753247
 40
0.0779220779220779
 40
0.0811688311688312
 40
0.0844155844155844
 40
0.0876623376623377
 40
0.0909090909090909
 40
0.0941558441558442
 40
0.0974025974025974
 40
0.1006493506493507
 40
0.1038961038961039
 40
0.1071428571428572
 40
0.1103896103896104
 40
0.1136363636363637
 40
0.1168831168831169
 40
0.1201298701298702
 40
0.1233766233766234
 40
0.1266233766233766
 40
0.1298701298701299
 40
0.1331168831168831
 40
0.1363636363636364
 40
0.1396103896103896
 40
0.1428571428571429
 40
0.1461038961038961
 40
0.1493506493506494
 40
0.1525974025974026
 40
0.1558441558441559
 40
0.1590909090909091
 40
0.1623376623376624
 40
0.1655844155844156
 40
0.1688311688311689
 40
0.1720779220779221
 40
0.1753246753246754
 40
0.1785714285714286
 40
0.1818181818181819
 40
0.1850649350649351
 40
0.1883116883116883
 40
0.1915584415584416
 40
0.1948051948051948
 40
0.1980519480519481
 40
0.2012987012987013
 40
0.2045454545454546
 40
0.2077922077922078
 40
0.2110389610389611
 40
0.2142857142857143
 40
0.2175324675324676
 40
0.2207792207792208
 40
0.2240259740259741
 40
0.2272727272727273
 40
0.2305194805194806
 40
0.2337662337662338
 40
0.2370129870129871
 40
0.2402597402597403
 40
0.2435064935064936
 40
0.2467532467532468
 40
0.2500000000000001
 40
0.2532467532467533
 40
0.2564935064935065
 40
0.2597402597402597
 40
0.2629870129870129
 40
0.2662337662337662
 40
0.2694805194805194
 40
0.2727272727272726
 40
0.2759740259740258
 40
0.279220779220779
 40
0.2824675324675323
 40
0.2857142857142855
 40
0.2889610389610387
 40
0.2922077922077919
 40
0.2954545454545451
 40
0.2987012987012984
 40
0.3019480519480516
 40
0.3051948051948048
 40
0.308441558441558
 40
0.3116883116883112
 40
0.3149350649350645
 40
0.3181818181818177
 40
0.3214285714285709
 40
0.3246753246753241
 40
0.3279220779220773
 40
0.3311688311688306
 40
0.3344155844155838
 40
0.337662337662337
 40
0.3409090909090902
 40
0.3441558441558434
 40
0.3474025974025967
 40
0.3506493506493499
 40
0.3538961038961031
 40
0.3571428571428563
 40
0.3603896103896095
 40
0.3636363636363628
 40
0.366883116883116
 40
0.3701298701298692
 40
0.3733766233766224
 40
0.3766233766233756
 40
0.3798701298701289
 40
0.3831168831168821
 40
0.3863636363636353
 40
0.3896103896103885
 40
0.3928571428571417
 40
0.396103896103895
 40
0.3993506493506482
 40
0.4025974025974014
 40
0.4058441558441546
 40
0.4090909090909078
 40
0.4123376623376611
 40
0.4155844155844143
 40
0.4188311688311675
 40
0.4220779220779207
 40
0.4253246753246739
 40
0.4285714285714272
 40
0.4318181818181804
 40
0.4350649350649336
 40
0.4383116883116868
 40
0.44155844155844
 40
0.4448051948051933
 40
0.4480519480519465
 40
0.4512987012986997
 40
0.4545454545454529
 40
0.4577922077922061
 40
0.4610389610389594
 40
0.4642857142857126
 40
0.4675324675324658
 40
0.470779220779219
 40
0.4740259740259722
 40
0.4772727272727255
 40
0.4805194805194787
 40
0.4837662337662319
 40
0.4870129870129851
 40
0.4902597402597383
 40
0.4935064935064916
 40
0.4967532467532448
 40
0.499999999999998
 40
0.5032467532467513
 40
0.5064935064935046
 40
0.5097402597402578
 40
0.5129870129870111
 40
0.5162337662337644
 40
0.5194805194805177
 40
0.5227272727272709
 40
0.5259740259740242
 40
0.5292207792207775
 40
0.5324675324675308
 40
0.535714285714284
 40
0.5389610389610373
 40
0.5422077922077906
 40
0.5454545454545439
 40
0.5487012987012971
 40
0.5519480519480504
 40
0.5551948051948037
 40
0.558441558441557
 40
0.5616883116883102
 40
0.5649350649350635
 40
0.5681818181818168
 40
0.5714285714285701
 40
0.5746753246753233
 40
0.5779220779220766
 40
0.5811688311688299
 40
0.5844155844155832
 40
0.5876623376623364
 40
0.5909090909090897
 40
0.594155844155843
 40
0.5974025974025963
 40
0.6006493506493495
 40
0.6038961038961028
 40
0.6071428571428561
 40
0.6103896103896094
 40
0.6136363636363626
 40
0.6168831168831159
 40
0.6201298701298692
 40
0.6233766233766225
 40
0.6266233766233757
 40
0.629870129870129
 40
0.6331168831168823
 40
0.6363636363636356
 40
0.6396103896103889
 40
0.6428571428571421
 40
0.6461038961038954
 40
0.6493506493506487
 40
0.652597402597402
 40
0.6558441558441552
 40
0.6590909090909085
 40
0.6623376623376618
 40
0.6655844155844151
 40
0.6688311688311683
 40
0.6720779220779216
 40
0.6753246753246749
 40
0.6785714285714282
 40
0.6818181818181814
 40
0.6850649350649347
 40
0.688311688311688
 40
0.6915584415584413
 40
0.6948051948051945
 40
0.6980519480519478
 40
0.7012987012987011
 40
0.7045454545454544
 40
0.7077922077922076
 40
0.7110389610389609
 40
0.7142857142857142
 40
0.7175324675324675
 40
0.7207792207792207
 40
0.724025974025974
 40
0.7272727272727273
 40
0.7305194805194806
 40
0.7337662337662338
 40
0.7370129870129871
 40
0.7402597402597404
 40
0.7435064935064937
 40
0.746753246753247
 40
0.7500000000000002
 40
0.7532467532467535
 40
0.7564935064935068
 40
0.75974025974026
 40
0.7629870129870133
 40
0.7662337662337666
 40
0.7694805194805199
 40
0.7727272727272732
 40
0.7759740259740264
 40
0.7792207792207797
 40
0.782467532467533
 40
0.7857142857142863
 40
0.7889610389610395
 40
0.7922077922077928
 40
0.7954545454545461
 40
0.7987012987012994
 40
0.8019480519480526
 40
0.8051948051948059
 40
0.8084415584415592
 40
0.8116883116883125
 40
0.8149350649350657
 40
0.818181818181819
 40
0.8214285714285723
 40
0.8246753246753256
 40
0.8279220779220788
 40
0.8311688311688321
 40
0.8344155844155854
 40
0.8376623376623387
 40
0.8409090909090919
 40
0.8441558441558452
 40
0.8474025974025985
 40
0.8506493506493518
 40
0.853896103896105
 40
0.8571428571428583
 40
0.8603896103896116
 40
0.8636363636363649
 40
0.8668831168831181
 40
0.8701298701298714
 40
0.8733766233766247
 40
0.876623376623378
 40
0.8798701298701312
 40
0.8831168831168845
 40
0.8863636363636378
 40
0.8896103896103911
 40
0.8928571428571443
 40
0.8961038961038976
 40
0.8993506493506509
 40
0.9025974025974042
 40
0.9058441558441575
 40
0.9090909090909107
 40
0.912337662337664
 40
0.9155844155844173
 40
0.9188311688311706
 40
0.9220779220779238
 40
0.9253246753246771
 40
0.9285714285714304
 40
0.9318181818181837
 40
0.9350649350649369
 40
0.9383116883116902
 40
0.9415584415584435
 40
0.9448051948051968
 40
0.94805194805195
 40
0.9512987012987033
 40
0.9545454545454566
 40
0.9577922077922099
 40
0.9610389610389631
 40
0.9642857142857164
 40
0.9675324675324697
 40
0.970779220779223
 40
0.9740259740259762
 40
0.9772727272727295
 40
0.9805194805194828
 40
0.9837662337662361
 40
0.9870129870129893
 40
0.9902597402597426
 40
0.9935064935064959
 40
0.9967532467532492
 40
1.0
 40
1.0
 40
1.0
 40
1.676828758404943
 40
1.676828758404943
 40
1.676828758404943
 40
1.676828758404943
 10
6.06504066925634
 20
13.2554174815589
 30
0.0
 10
5.94751629063233
 20
13.2554174815589
 30
0.0
 10
5.86576165733993
 20
13.2920581853495
 30
0.0
 10
5.65155765219949
 20
13.2269639685982
 30
0.0
 10
5.77707831050349
 20
13.1558362358457
 30
0.0
 10
5.61522272479571
 20
13.2162399585398
 30
0.0
 10
5.51864776162497
 20
13.1629465892617
 30
0.0
 10
5.59248565938068
 20
13.1060435964393
 30
0.0
 10
5.41527805399439
 20
13.1344950928505
 30
0.0
 10
5.50388185668753
 20
13.0775921000291
 30
0.0
 10
5.38574205758499
 20
13.1060435964398
 30
0.0
 10
5.44481195713626
 20
13.0491365705183
 30
0.0
 10
5.31190625309681
 20
13.077590083479
 30
0.0
 10
5.37835910511654
 20
13.0206870906576
 30
0.0
 10
5.26022349254798
 20
13.0491385870683
 30
0.0
 10
5.31929129883226
 20
12.9780068212168
 30
0.0
 10
5.20115149972971
 20
13.0135727041426
 30
0.0
 10
5.26022139928099
 20
12.9566697113212
 30
0.0
 10
5.16707102081142
 20
13.0060489580862
 30
0.0
 10
5.18021883041136
 20
12.9477404302868
 30
0.0
 10
5.14208369344544
 20
12.9068770719153
 30
0.0
 10
5.06824579568973
 20
12.9282161983604
 30
0.0
 10
5.10516474456758
 20
12.871313205538
 30
0.0
 10
5.07171643226222
 20
12.8985063750828
 30
0.0
 10
5.03733661617319
 20
12.8726360619878
 30
0.0
 10
5.08462142289773
 20
12.8704985195544
 30
0.0
 10
5.00917798940545
 20
12.8001834562365
 30
0.0
 10
4.95010599658771
 20
12.8357473226127
 30
0.0
 10
4.97964199299658
 20
12.7788402966912
 30
0.0
 10
4.96609227614615
 20
12.7983665451676
 30
0.0
 10
4.91028996627539
 20
12.7968279179248
 30
0.0
 10
4.89669838408764
 20
12.7639400126901
 30
0.0
 10
4.93591992658929
 20
12.7519052454786
 30
0.0
 10
4.85412133469205
 20
12.6934837909096
 30
0.0
 10
4.79504934187431
 20
12.7219373038698
 30
0.0
 10
4.82458533828318
 20
12.6650343110474
 30
0.0
 10
4.76551753199837
 20
12.6934858074586
 30
0.0
 10
4.79505143514077
 20
12.622354041607
 30
0.0
 10
4.73598362885703
 20
12.6579199245328
 30
0.0
 10
4.7655175319989
 20
12.6010169317114
 30
0.0
 10
4.7064455391801
 20
12.6294684281221
 30
0.0
 10
4.7359815355895
 20
12.5725654352997
 30
0.0
 10
4.67691372930576
 20
12.6010169317109
 30
0.0
 10
4.70644763244763
 20
12.5441099057904
 30
0.0
 10
4.63260973469192
 20
12.5725634187507
 30
0.0
 10
4.66952868356977
 20
12.5156604259293
 30
0.0
 10
4.61046087728603
 20
12.54411192234
 30
0.0
 10
4.6399947804279
 20
12.4872089295175
 30
0.0
 10
4.61429155577063
 20
12.4876485373018
 30
0.0
 10
4.63076765979139
 20
12.4896872688113
 30
0.0
 10
4.53936097267607
 20
12.4855069617684
 30
0.0
 10
4.49231898491649
 20
12.3947380372208
 30
0.0
 10
4.53981102506647
 20
12.3874441778037
 30
0.0
 10
4.47755517324605
 20
12.2453661686512
 30
0.0
 10
4.42586613289569
 20
12.3022691614731
 30
0.0
 10
4.4554021293051
 20
12.2453621355516
 30
0.0
 10
4.39633432302135
 20
12.2738156485124
 30
0.0
 10
4.42586822616323
 20
12.1600096628686
 30
0.0
 10
4.36680041987842
 20
12.2169126556905
 30
0.0
 10
4.39633432302082
 20
12.1457808898389
 30
0.0
 10
4.35203242167398
 20
12.1813467727647
 30
0.0
 10
4.3617807657762
 20
12.1628892955055
 30
0.0
 10
4.30773052032714
 20
12.1244417633938
 30
0.0
 10
4.33726442346955
 20
12.0106317446509
 30
0.0
 10
4.26342652571384
 20
12.0675367540223
 30
0.0
 10
4.30034547459169
 20
11.9537307683785
 30
0.0
 10
4.24127766830795
 20
12.0106337612004
 30
0.0
 10
4.27081157144982
 20
11.8683702294973
 30
0.0
 10
4.26575842507616
 20
11.9415548427045
 30
0.0
 10
4.24127766830742
 20
11.8328083796705
 30
0.0
 10
4.19697576696164
 20
11.8825990025269
 30
0.0
 10
4.20699623576361
 20
11.8249861842929
 30
0.0
 10
4.16743977055171
 20
11.7972424967442
 30
0.0
 10
4.17554071357898
 20
11.7392122527713
 30
0.0
 10
4.17730533760214
 20
11.7131503674771
 30
0.0
 10
4.18018985943356
 20
11.7278772282248
 30
0.0
 10
4.16490482429741
 20
11.5653191426988
 30
0.0
 10
4.16554327071186
 20
11.5923086407473
 30
0.0
 10
4.10852686602057
 20
11.5922824256044
 30
0.0
 10
4.11575491673642
 20
11.3633435647684
 30
0.0
 10
4.09117577642192
 20
11.4165663548155
 30
0.0
 10
4.08605355223995
 20
11.2922097823673
 30
0.0
 10
4.04191911224771
 20
11.2922158320159
 30
0.0
 10
4.04929997144916
 20
10.9650145488174
 30
0.0
 10
4.04222472921944
 20
10.8400046143423
 30
0.0
 10
4.09365629773691
 20
10.8468709652729
 30
0.0
 10
4.10169025622074
 20
10.4108748218527
 30
0.0
 10
4.13790586740984
 20
10.595137029277
 30
0.0
 10
4.12362978693419
 20
10.4838275318717
 30
0.0
 10
4.18220986202314
 20
10.4742146405691
 30
0.0
 10
4.13937324752873
 20
10.3514955062871
 30
0.0
 10
4.18001611827903
 20
10.4380014452641
 30
0.0
 10
4.24127557504042
 20
10.2892748725242
 30
0.0
 10
4.21174167189855
 20
10.1185618609599
 30
0.0
 10
4.27081366471629
 20
10.203918366742
 30
0.0
 10
4.24469387994113
 20
10.2156849328742
 30
0.0
 10
4.28409335013237
 20
10.0363088248048
 30
0.0
 10
4.32249642526458
 20
10.0616588681374
 30
0.0
 10
4.31037640973026
 20
10.0244978945845
 30
0.0
 10
4.36679832661142
 20
9.99763947225143
 30
0.0
 10
4.34729535860811
 20
9.97262619267906
 30
0.0
 10
4.38894927728537
 20
9.94073647942951
 30
0.0
 10
4.36679832661195
 20
9.86960471357795
 30
0.0
 10
4.42587031942969
 20
9.90517059650373
 30
0.0
 10
4.39633432302082
 20
9.79136057776083
 30
0.0
 10
4.45540212930563
 20
9.84826558713228
 30
0.0
 10
4.43589916130072
 20
9.82325230756094
 30
0.0
 10
4.47755307997851
 20
9.79136259431037
 30
0.0
 10
4.4554021293051
 20
9.7202308284588
 30
0.0
 10
4.5144741221239
 20
9.75579671138458
 30
0.0
 10
4.4849381257145
 20
9.69889371856318
 30
0.0
 10
4.55877183693621
 20
9.72734521497388
 30
0.0
 10
4.53112396729972
 20
9.71429410683196
 30
0.0
 10
4.57354192840764
 20
9.67755257556747
 30
0.0
 10
4.55139097773423
 20
9.59219606978584
 30
0.0
 10
4.61045878401903
 20
9.63487432267666
 30
0.0
 10
4.58092488087663
 20
9.57797132985422
 30
0.0
 10
4.63999268716037
 20
9.60642282626544
 30
0.0
 10
4.60726236541382
 20
9.57543652717623
 30
0.0
 10
4.64944588062585
 20
9.5476525086385
 30
0.0
 10
4.66788128249482
 20
9.51859806393773
 30
0.0
 10
4.6459689642513
 20
9.50024343070147
 30
0.0
 10
4.67979825113823
 20
9.45746233378667
 30
0.0
 10
4.7359815355895
 20
9.40014594832489
 30
0.0
 10
4.7950535284083
 20
9.42859744473559
 30
0.0
 10
4.76465510602301
 20
9.41637513842445
 30
0.0
 10
4.78224273478508
 20
9.40610485199554
 30
0.0
 10
4.80243438760976
 20
9.35746567888403
 30
0.0
 10
4.82981850561237
 20
9.37642124386082
 30
0.0
 10
4.84175850019277
 20
9.33982087105935
 30
0.0
 10
4.88934264408857
 20
9.31845956256936
 30
0.0
 10
4.92057418671231
 20
9.24365566014114
 30
0.0
 10
4.97964199299605
 20
9.27922154306692
 30
0.0
 10
4.95010808985418
 20
9.22231855024551
 30
0.0
 10
5.02394598760989
 20
9.25077004665621
 30
0.0
 10
5.01154338103816
 20
9.22549864875217
 30
0.0
 10
5.03871189254786
 20
9.16541152432454
 30
0.0
 10
5.11254979030356
 20
9.19386503728477
 30
0.0
 10
5.07563084142571
 20
9.13696204446234
 30
0.0
 10
5.14946455264742
 20
9.16541354087355
 30
0.0
 10
5.11254769703657
 20
9.12273528798325
 30
0.0
 10
5.12233581321017
 20
9.13353996001922
 30
0.0
 10
5.16423464411886
 20
9.06583027861129
 30
0.0
 10
5.2823702566874
 20
9.10139616153707
 30
0.0
 10
5.22330245040313
 20
9.04449316871464
 30
0.0
 10
5.31190625309681
 20
9.07294466512586
 30
0.0
 10
5.26760435174997
 20
9.03026641223555
 30
0.0
 10
5.28676402397769
 20
9.03965748309645
 30
0.0
 10
5.32667425130071
 20
9.00181289927429
 30
0.0
 10
5.34583392352897
 20
9.01120800323528
 30
0.0
 10
5.38574415085199
 20
8.97336140286359
 30
0.0
 10
5.56295175623934
 20
8.98047578937815
 30
0.0
 10
5.47434795354566
 20
8.93068113342324
 30
0.0
 10
5.59248356611421
 20
8.95913464638347
 30
0.0
 10
5.53341575982994
 20
8.88800691363097
 30
0.0
 10
5.72539345668713
 20
8.92357078000722
 30
0.0
 10
5.62940460825854
 20
8.86666375408574
 30
0.0
 10
5.77707621723702
 20
8.89511726704648
 30
0.0
 10
5.85270176495235
 20
8.88389718582009
 30
0.0
 10
5.82138021184979
 20
8.82398751774444
 30
0.0
 10
5.91713042784849
 20
8.83425175452426
 30
0.0
 10
5.93951791768534
 20
8.79553602133323
 30
0.0
 10
6.3677710262147
 20
8.80264637474976
 30
0.0
 10
6.15364447195002
 20
8.76708250837299
 30
0.0
 10
6.26369588762729
 20
8.62334689556047
 30
0.0
 10
6.19653969791827
 20
9.15479035828863
 30
0.0
 10
6.09452014745837
 20
9.16561116272085
 30
0.0
 10
5.92503879031718
 20
9.17790203171448
 30
0.0
 10
5.93213496521636
 20
9.25077206320523
 30
0.0
 10
5.74015726835916
 20
9.222318550245
 30
0.0
 10
5.82686666447787
 20
9.19563556771542
 30
0.0
 10
5.66632355713692
 20
9.25077004665621
 30
0.0
 10
5.74015936162563
 20
9.29344829954754
 30
0.0
 10
5.57771766117625
 20
9.28633391303196
 30
0.0
 10
5.66362952259496
 20
9.28463799493187
 30
0.0
 10
5.5186498548925
 20
9.3147874259927
 30
0.0
 10
5.58510270691223
 20
9.35746567888403
 30
0.0
 10
5.56594303468504
 20
9.34807460802262
 30
0.0
 10
5.52603280736095
 20
9.38591919184375
 30
0.0
 10
5.50687732166776
 20
9.37652408788379
 30
0.0
 10
5.46696290780968
 20
9.41437068825548
 30
0.0
 10
5.44780742211596
 20
9.40497558429551
 30
0.0
 10
5.4078951015254
 20
9.45705095769583
 30
0.0
 10
5.28975530242286
 20
9.42859744473559
 30
0.0
 10
5.34882520197413
 20
9.48550043755699
 30
0.0
 10
5.27498730421842
 20
9.45704894114629
 30
0.0
 10
5.28893264851941
 20
9.48914635899079
 30
0.0
 10
5.26022139928099
 20
9.5495178168945
 30
0.0
 10
5.18638350152527
 20
9.52106632048329
 30
0.0
 10
5.22330245040313
 20
9.5779693133047
 30
0.0
 10
5.14946873918142
 20
9.54951781689399
 30
0.0
 10
5.18638559479228
 20
9.59219606978532
 30
0.0
 10
5.1765995718862
 20
9.58138938119879
 30
0.0
 10
5.13469864770998
 20
9.63487432267614
 30
0.0
 10
5.07563084142518
 20
9.60642282626544
 30
0.0
 10
5.10516474456758
 20
9.66332581908787
 30
0.0
 10
5.04609693828384
 20
9.63487432267666
 30
0.0
 10
5.07563084142571
 20
9.70600608852822
 30
0.0
 10
5.00179294367
 20
9.67044020560244
 30
0.0
 10
5.03871189254786
 20
9.72734319842384
 30
0.0
 10
4.97964408626305
 20
9.69889170201314
 30
0.0
 10
5.00917798940545
 20
9.75579872793463
 30
0.0
 10
4.95010599658771
 20
9.72734521497388
 30
0.0
 10
4.97964199299658
 20
9.78424820779528
 30
0.0
 10
4.92057418671178
 20
9.75579671138458
 30
0.0
 10
4.95010808985418
 20
9.81269970420702
 30
0.0
 10
4.89104028357043
 20
9.7842482077958
 30
0.0
 10
4.92057418671231
 20
9.84115523371627
 30
0.0
 10
4.8615021938935
 20
9.81270172075603
 30
0.0
 10
4.90317076544029
 20
9.89118582595905
 30
0.0
 10
4.85412133469205
 20
9.94073647942951
 30
0.0
 10
4.79504934187431
 20
9.90517059650373
 30
0.0
 10
4.82458533828318
 20
9.96207358932514
 30
0.0
 10
4.76551753199837
 20
9.93362209291443
 30
0.0
 10
4.8016535990447
 20
9.99003304766737
 30
0.0
 10
4.7655175319989
 20
10.0687712381025
 30
0.0
 10
4.7064455391801
 20
10.0260929852117
 30
0.0
 10
4.7359815355895
 20
10.1399030039546
 30
0.0
 10
4.67691372930576
 20
10.0829979945831
 30
0.0
 10
4.6971765532068
 20
10.0960511192746
 30
0.0
 10
4.6399947804279
 20
10.1327886174395
 30
0.0
 10
4.67127446819048
 20
10.1561866408894
 30
0.0
 10
4.6197152103914
 20
10.1694031060877
 30
0.0
 10
4.58830783334508
 20
10.2537110061479
 30
0.0
 10
4.6104587840185
 20
10.3675169917918
 30
0.0
 10
4.60545378278422
 20
10.3151552683664
 30
0.0
 10
4.57143819514076
 20
10.3860591641287
 30
0.0
 10
4.52924002706081
 20
10.4030848912671
 30
0.0
 10
4.55139097773423
 20
10.53111964994
 30
0.0
 10
4.49231898491649
 20
10.4671022706035
 30
0.0
 10
4.52185498132536
 20
10.7089430149214
 30
0.0
 10
4.44802127010364
 20
10.5880226427625
 30
0.0
 10
4.47016803424253
 20
10.8867704129997
 30
0.0
 10
4.43325117863168
 20
10.7373965278811
 30
0.0
 10
4.4554021293051
 20
11.9323916419333
 30
0.0
 10
4.49970403065194
 20
11.3348940849072
 30
0.0
 10
4.49232317145048
 20
11.6336418551455
 30
0.0
 10
4.54400593199824
 20
11.4842679700264
 30
0.0
 10
4.52613780546789
 20
11.5681463450505
 30
0.0
 10
4.5809269741431
 20
11.5909636022542
 30
0.0
 10
4.55139097773423
 20
11.7759013537496
 30
0.0
 10
4.61045878401903
 20
11.6834324780019
 30
0.0
 10
4.58092488087663
 20
11.8541454895662
 30
0.0
 10
4.63999268716037
 20
11.768788983784
 30
0.0
 10
4.6104587840185
 20
11.896823742458
 30
0.0
 10
4.66953077683731
 20
11.832806363121
 30
0.0
 10
4.6399947804279
 20
11.9466163818629
 30
0.0
 10
4.69906258671165
 20
11.8897113724919
 30
0.0
 10
4.66952868356977
 20
12.0035213912348
 30
0.0
 10
4.74336658132548
 20
11.9466163818634
 30
0.0
 10
4.70644763244763
 20
12.0319728876461
 30
0.0
 10
4.75074953379447
 20
11.9892946347547
 30
0.0
 10
4.73953380957335
 20
11.9987240200562
 30
0.0
 10
4.7950535284083
 20
12.0390852576111
 30
0.0
 10
4.7655175319989
 20
12.152895276354
 30
0.0
 10
4.82458533828265
 20
12.0959902669825
 30
0.0
 10
4.79505143514077
 20
12.152893259805
 30
0.0
 10
4.85411924142558
 20
12.1244417633938
 30
0.0
 10
4.82458533828318
 20
12.2097982691754
 30
0.0
 10
4.86888723963002
 20
12.1671200162846
 30
0.0
 10
4.8576694221419
 20
12.1765494015855
 30
0.0
 10
4.92795504591376
 20
12.2169126556905
 30
0.0
 10
4.8910381903029
 20
12.2738156485129
 30
0.0
 10
4.95011018312171
 20
12.2453641521017
 30
0.0
 10
4.92057418671231
 20
12.3022671449231
 30
0.0
 10
4.97964199299605
 20
12.2738156485124
 30
0.0
 10
4.95010808985418
 20
12.3307226744339
 30
0.0
 10
5.00917589613898
 20
12.3022691614731
 30
0.0
 10
4.97964199299658
 20
12.3733968942256
 30
0.0
 10
5.0062976541075
 20
12.3487284446117
 30
0.0
 10
5.01378526992271
 20
12.367688042689
 30
0.0
 10
5.03868886661193
 20
12.403092601657
 30
0.0
 10
5.07563084142571
 20
12.4516410300422
 30
0.0
 10
5.13469864770945
 20
12.4231895336315
 30
0.0
 10
5.10516474456758
 20
12.480096559553
 30
0.0
 10
5.16423255085239
 20
12.4516430465923
 30
0.0
 10
5.13469864770998
 20
12.5085460394137
 30
0.0
 10
5.19377064052773
 20
12.480094543003
 30
0.0
 10
5.16423464411886
 20
12.5512263088545
 30
0.0
 10
5.2233024504026
 20
12.5156604259288
 30
0.0
 10
5.25724896023775
 20
12.5336480471628
 30
0.0
 10
5.26022139928099
 20
12.6010149151614
 30
0.0
 10
5.31928920556473
 20
12.5725634187507
 30
0.0
 10
5.28975530242286
 20
12.6294704446711
 30
0.0
 10
5.30330711254029
 20
12.6099482292948
 30
0.0
 10
5.34144224950568
 20
12.6508075545678
 30
0.0
 10
5.41527596072739
 20
12.6294684281221
 30
0.0
 10
5.37835910511654
 20
12.6863714209435
 30
0.0
 10
5.51126480915599
 20
12.6579199245328
 30
0.0
 10
5.44481195713626
 20
12.7290516903844
 30
0.0
 10
5.45836376725369
 20
12.7024171050425
 30
0.0
 10
5.49649890421855
 20
12.7432764303155
 30
0.0
 10
5.62940460825907
 20
12.7219373038698
 30
0.0
 10
5.56295175623881
 20
12.7788443297903
 30
0.0
 10
5.69585746027826
 20
12.7503908168301
 30
0.0
 10
5.62940460825854
 20
12.8072938096525
 30
0.0
 10
5.79184630870792
 20
12.7930670531713
 30
0.0
 10
5.71062545848323
 20
12.8286329360976
 30
0.0
 10
5.84353116252374
 20
12.807293809652
 30
0.0
 10
5.77707831050349
 20
12.8642008355735
 30
0.0
 10
6.01335372217352
 20
12.8499720625428
 30
0.0
 10
5.8952160163385
 20
12.8997626854002
 30
0.0
 10
6.14626151948157
 20
12.8855399620181
 30
0.0
 10
6.02073876791004
 20
12.9211038283949
 30
0.0
 10
6.16136025386119
 20
12.8991516709115
 30
0.0
 10
6.26605918599406
 20
12.9141689147828
 30
0.0
 10
6.29393312845846
 20
12.9495553248061
 30
0.0
 10
6.75172223339668
 20
12.9282161983604
 30
0.0
 10
6.52282768092757
 20
12.8855379454691
 30
0.0
 10
6.59061603725005
 20
12.899399706496
 30
0.0
 10
6.64079164560806
 20
12.8995973283438
 30
0.0
 10
31.48309628525854
 20
12.99744132679638
 30
0.0
 10
64.25220594544989
 20
13.2554174815589
 30
0.0
 10
6.06504066925634
 20
13.2554174815589
 30
0.0
  0
SPLINE
  5
75
102
{ACAD_REACTORS
330
73
102
}
330
1F
100
AcDbEntity
  8
Layer 1
100
AcDbSpline
210
0.0
220
0.0
230
1.0
 70
    11
 71
     3
 72
    11
 73
     7
 74
     0
 42
0.000000001
 43
0.0000000001
 40
0.0
 40
0.0
 40
0.0
 40
0.0
 40
1.0
 40
1.0
 40
1.0
 40
1.133079550447633
 40
1.133079550447633
 40
1.133079550447633
 40
1.133079550447633
 10
6.640791645608059
 20
12.8995973283438
 30
0.0
 10
6.685156344962206
 20
12.89977276814733
 30
0.0
 10
6.72951616002722
 20
12.89982855934913
 30
0.0
 10
6.773871090803101
 20
12.8997647019492
 30
0.0
 10
7.306130260113664
 20
12.89899841314999
 30
0.0
 10
6.108415253358285
 20
12.89749205070139
 30
0.0
 10
6.640791645608059
 20
12.8995973283438
 30
0.0
  0
SPLINE
  5
76
102
{ACAD_REACTORS
330
73
102
}
330
1F
100
AcDbEntity
  8
Layer 1
100
AcDbSpline
210
0.0
220
0.0
230
1.0
 70
    11
 71
     3
 72
   220
 73
   216
 74
     0
 42
0.000000001
 43
0.0000000001
 40
0.0
 40
0.0
 40
0.0
 40
0.0
 40
0.0047619047619048
 40
0.0095238095238095
 40
0.0142857142857143
 40
0.019047619047619
 40
0.0238095238095238
 40
0.0285714285714286
 40
0.0333333333333333
 40
0.0380952380952381
 40
0.0428571428571429
 40
0.0476190476190476
 40
0.0523809523809524
 40
0.0571428571428571
 40
0.0619047619047619
 40
0.0666666666666667
 40
0.0714285714285714
 40
0.0761904761904762
 40
0.0809523809523809
 40
0.0857142857142857
 40
0.0904761904761904
 40
0.0952380952380952
 40
0.1
 40
0.1047619047619047
 40
0.1095238095238095
 40
0.1142857142857142
 40
0.119047619047619
 40
0.1238095238095238
 40
0.1285714285714285
 40
0.1333333333333333
 40
0.1380952380952381
 40
0.1428571428571428
 40
0.1476190476190476
 40
0.1523809523809524
 40
0.1571428571428572
 40
0.1619047619047619
 40
0.1666666666666667
 40
0.1714285714285715
 40
0.1761904761904763
 40
0.180952380952381
 40
0.1857142857142858
 40
0.1904761904761906
 40
0.1952380952380953
 40
0.2000000000000001
 40
0.2047619047619049
 40
0.2095238095238097
 40
0.2142857142857144
 40
0.2190476190476192
 40
0.223809523809524
 40
0.2285714285714288
 40
0.2333333333333335
 40
0.2380952380952383
 40
0.2428571428571431
 40
0.2476190476190478
 40
0.2523809523809526
 40
0.2571428571428573
 40
0.2619047619047621
 40
0.2666666666666668
 40
0.2714285714285716
 40
0.2761904761904763
 40
0.2809523809523811
 40
0.2857142857142858
 40
0.2904761904761906
 40
0.2952380952380953
 40
0.3
 40
0.3047619047619048
 40
0.3095238095238095
 40
0.3142857142857143
 40
0.319047619047619
 40
0.3238095238095238
 40
0.3285714285714285
 40
0.3333333333333333
 40
0.338095238095238
 40
0.3428571428571427
 40
0.3476190476190475
 40
0.3523809523809522
 40
0.357142857142857
 40
0.3619047619047617
 40
0.3666666666666665
 40
0.3714285714285712
 40
0.376190476190476
 40
0.3809523809523807
 40
0.3857142857142855
 40
0.3904761904761902
 40
0.3952380952380949
 40
0.3999999999999997
 40
0.4047619047619044
 40
0.4095238095238092
 40
0.4142857142857139
 40
0.4190476190476187
 40
0.4238095238095234
 40
0.4285714285714282
 40
0.4333333333333329
 40
0.4380952380952376
 40
0.4428571428571424
 40
0.4476190476190471
 40
0.4523809523809519
 40
0.4571428571428566
 40
0.4619047619047614
 40
0.4666666666666661
 40
0.4714285714285709
 40
0.4761904761904756
 40
0.4809523809523804
 40
0.4857142857142851
 40
0.4904761904761898
 40
0.4952380952380946
 40
0.4999999999999993
 40
0.5047619047619041
 40
0.5095238095238088
 40
0.5142857142857136
 40
0.5190476190476183
 40
0.5238095238095231
 40
0.5285714285714278
 40
0.5333333333333325
 40
0.5380952380952373
 40
0.542857142857142
 40
0.5476190476190468
 40
0.5523809523809515
 40
0.5571428571428563
 40
0.561904761904761
 40
0.5666666666666658
 40
0.5714285714285705
 40
0.5761904761904753
 40
0.58095238095238
 40
0.5857142857142847
 40
0.5904761904761895
 40
0.5952380952380942
 40
0.599999999999999
 40
0.6047619047619037
 40
0.6095238095238085
 40
0.6142857142857132
 40
0.619047619047618
 40
0.6238095238095227
 40
0.6285714285714274
 40
0.6333333333333322
 40
0.6380952380952369
 40
0.6428571428571417
 40
0.6476190476190464
 40
0.6523809523809512
 40
0.6571428571428559
 40
0.6619047619047607
 40
0.6666666666666654
 40
0.6714285714285702
 40
0.6761904761904749
 40
0.6809523809523796
 40
0.6857142857142844
 40
0.6904761904761891
 40
0.6952380952380939
 40
0.6999999999999986
 40
0.7047619047619034
 40
0.7095238095238081
 40
0.7142857142857129
 40
0.7190476190476176
 40
0.7238095238095223
 40
0.7285714285714271
 40
0.7333333333333318
 40
0.7380952380952366
 40
0.7428571428571413
 40
0.7476190476190461
 40
0.7523809523809508
 40
0.7571428571428556
 40
0.7619047619047603
 40
0.766666666666665
 40
0.7714285714285698
 40
0.7761904761904745
 40
0.7809523809523793
 40
0.785714285714284
 40
0.7904761904761888
 40
0.7952380952380935
 40
0.7999999999999983
 40
0.804761904761903
 40
0.8095238095238078
 40
0.8142857142857125
 40
0.8190476190476172
 40
0.823809523809522
 40
0.8285714285714267
 40
0.8333333333333315
 40
0.8380952380952362
 40
0.842857142857141
 40
0.8476190476190457
 40
0.8523809523809505
 40
0.8571428571428552
 40
0.86190476190476
 40
0.8666666666666647
 40
0.8714285714285694
 40
0.8761904761904742
 40
0.8809523809523789
 40
0.8857142857142837
 40
0.8904761904761884
 40
0.8952380952380932
 40
0.8999999999999979
 40
0.9047619047619027
 40
0.9095238095238074
 40
0.9142857142857121
 40
0.9190476190476169
 40
0.9238095238095216
 40
0.9285714285714264
 40
0.9333333333333311
 40
0.9380952380952359
 40
0.9428571428571406
 40
0.9476190476190454
 40
0.9523809523809501
 40
0.9571428571428549
 40
0.9619047619047596
 40
0.9666666666666643
 40
0.9714285714285691
 40
0.9761904761904738
 40
0.9809523809523786
 40
0.9857142857142833
 40
0.9904761904761881
 40
0.9952380952380928
 40
1.0
 40
1.0
 40
1.0
 40
3.9193511404435
 40
3.9193511404435
 40
3.9193511404435
 40
3.9193511404435
 10
6.7738710908031
 20
12.8997647019492
 30
0.0
 10
6.78571060857021
 20
12.8570461180688
 30
0.0
 10
6.92047094711112
 20
12.8855762599091
 30
0.0
 10
6.8727716735341
 20
12.8726360619878
 30
0.0
 10
7.03399718589542
 20
12.8422930421782
 30
0.0
 10
7.0101485957412
 20
12.7788402966912
 30
0.0
 10
7.20212210606546
 20
12.807293809652
 30
0.0
 10
7.10613535090333
 20
12.7503908168306
 30
0.0
 10
7.23904105494279
 20
12.7788423132413
 30
0.0
 10
7.22128596482718
 20
12.757704841742
 30
0.0
 10
7.23165810247433
 20
12.7077125639387
 30
0.0
 10
7.29146483198582
 20
12.7173657862314
 30
0.0
 10
7.34114014954652
 20
12.6967727830873
 30
0.0
 10
7.35717876077886
 20
12.6365828146372
 30
0.0
 10
7.36696897021947
 20
12.6545018731888
 30
0.0
 10
7.40886570786116
 20
12.6010169317114
 30
0.0
 10
7.54177141190061
 20
12.6294684281221
 30
0.0
 10
7.47531855988088
 20
12.5725654352997
 30
0.0
 10
7.53438636616569
 20
12.6010169317109
 30
0.0
 10
7.50485246302328
 20
12.5441099057904
 30
0.0
 10
7.47911574609563
 20
12.5185803895547
 30
0.0
 10
7.59345626571643
 20
12.4872089295175
 30
0.0
 10
7.65252825853417
 20
12.5156604259288
 30
0.0
 10
7.6285708184992
 20
12.4845047366841
 30
0.0
 10
7.70731533394344
 20
12.5482276997989
 30
0.0
 10
7.65312274634324
 20
12.3675569669732
 30
0.0
 10
7.7780489168387
 20
12.3378350443984
 30
0.0
 10
7.83711672312351
 20
12.3662865408096
 30
0.0
 10
7.87921650765718
 20
12.4445084945819
 30
0.0
 10
7.78115951149908
 20
12.2423715926942
 30
0.0
 10
7.90356957514323
 20
12.1813487893137
 30
0.0
 10
7.96264156796097
 20
12.2169126556905
 30
0.0
 10
7.9331055715521
 20
12.16000562977
 30
0.0
 10
7.99217337783691
 20
12.1884591427302
 30
0.0
 10
8.02050365249271
 20
12.1635406409832
 30
0.0
 10
8.06601127559208
 20
12.0959902669825
 30
0.0
 10
8.02909232671423
 20
12.0390832410621
 30
0.0
 10
8.08816013299904
 20
12.0675367540223
 30
0.0
 10
8.05862622985664
 20
11.9537307683785
 30
0.0
 10
8.11769822267438
 20
12.0106337612004
 30
0.0
 10
8.098193161403
 20
11.985616448529
 30
0.0
 10
8.13984708008026
 20
11.9537287518289
 30
0.0
 10
8.11769612940738
 20
11.8825969859774
 30
0.0
 10
8.13545121952405
 20
11.9283847581449
 30
0.0
 10
8.15732167242865
 20
11.8254278086262
 30
0.0
 10
8.19891697963207
 20
11.8399207496356
 30
0.0
 10
8.18679277756322
 20
11.8027597760826
 30
0.0
 10
8.24321678771138
 20
11.7759033702991
 30
0.0
 10
8.21368288456951
 20
11.6478686116251
 30
0.0
 10
8.27275487738831
 20
11.7118859909621
 30
0.0
 10
8.24321888097891
 20
11.5411729793978
 30
0.0
 10
8.30228668726265
 20
11.6265294851799
 30
0.0
 10
8.28752287559274
 20
11.3989094476942
 30
0.0
 10
8.32443973120361
 20
11.5127194664371
 30
0.0
 10
8.31015946419396
 20
11.4014079524822
 30
0.0
 10
8.35397363434548
 20
11.3917970777291
 30
0.0
 10
8.3311863305246
 20
11.256327301176
 30
0.0
 10
8.34677488936708
 20
11.1554655465521
 30
0.0
 10
8.38350753748788
 20
11.1286151904166
 30
0.0
 10
8.36135658681446
 20
10.7445109143967
 30
0.0
 10
8.31705468546762
 20
10.9365630524067
 30
0.0
 10
8.32406712968897
 20
10.8287623510716
 30
0.0
 10
8.33214504677925
 20
10.6662103151938
 30
0.0
 10
8.33240251861214
 20
10.6758131237497
 30
0.0
 10
8.29579546650755
 20
10.5275685063316
 30
0.0
 10
8.25798687918334
 20
10.5524587763857
 30
0.0
 10
8.26814969013752
 20
10.4858440813378
 30
0.0
 10
8.25180546193344
 20
10.3894489837798
 30
0.0
 10
8.19891697963208
 20
10.3746313783063
 30
0.0
 10
8.20629783883353
 20
10.203918366742
 30
0.0
 10
8.13984917334779
 20
10.2892748725242
 30
0.0
 10
8.17676602895865
 20
10.1754688868803
 30
0.0
 10
8.11769403614091
 20
10.2323718797023
 30
0.0
 10
8.14723003254978
 20
10.1043371210283
 30
0.0
 10
8.12654018219426
 20
10.1184368348926
 30
0.0
 10
8.05862832312364
 20
10.1114494909943
 30
0.0
 10
8.08816222626551
 20
9.99763947225143
 30
0.0
 10
8.02909023344777
 20
10.0545444816229
 30
0.0
 10
8.05986963041463
 20
10.0679041218327
 30
0.0
 10
8.02782171368632
 20
9.97721989236183
 30
0.0
 10
7.95525442895853
 20
9.96207560587518
 30
0.0
 10
7.99217337783638
 20
9.90516857995369
 30
0.0
 10
7.93310557155264
 20
9.93362209291443
 30
0.0
 10
7.96263947469451
 20
9.86249436016193
 30
0.0
 10
7.91833757334767
 20
9.89805822653818
 30
0.0
 10
7.92955329756932
 20
9.88862884123672
 30
0.0
 10
7.87403357873436
 20
9.84826558713228
 30
0.0
 10
7.90356957514323
 20
9.77713785437978
 30
0.0
 10
7.84450176885843
 20
9.81270172075603
 30
0.0
 10
7.87403567200083
 20
9.75579469483557
 30
0.0
 10
7.81496786571709
 20
9.7842482077958
 30
0.0
 10
7.84450176885896
 20
9.72734521497337
 30
0.0
 10
7.77066387110326
 20
9.75579671138458
 30
0.0
 10
7.80758281998111
 20
9.69889371856318
 30
0.0
 10
7.7485150136963
 20
9.72734521497388
 30
0.0
 10
7.77592215763643
 20
9.72247726456372
 30
0.0
 10
7.71159397155198
 20
9.69889170201314
 30
0.0
 10
7.74851292042984
 20
9.64198870919173
 30
0.0
 10
7.68944511414503
 20
9.67044020560244
 30
0.0
 10
7.71897901728743
 20
9.59930843975087
 30
0.0
 10
7.65991121100369
 20
9.63487432267666
 30
0.0
 10
7.68944511414556
 20
9.57797132985422
 30
0.0
 10
7.63037312132782
 20
9.60642282626544
 30
0.0
 10
7.65990911773669
 20
9.54951983344404
 30
0.0
 10
7.58607540651391
 20
9.57797132985474
 30
0.0
 10
7.6229922621253
 20
9.52106430393325
 30
0.0
 10
7.5644352129728
 20
9.55587801390937
 30
0.0
 10
7.4974716038213
 20
9.52106632048329
 30
0.0
 10
7.53438845943216
 20
9.46416332766087
 30
0.0
 10
7.47531646661441
 20
9.49261482407208
 30
0.0
 10
7.50485246302328
 20
9.42148305822051
 30
0.0
 10
7.37194675898277
 20
9.45704894114629
 30
0.0
 10
7.43839961100303
 20
9.40014594832489
 30
0.0
 10
7.4248498941526
 20
9.41966816370225
 30
0.0
 10
7.38671475718774
 20
9.3788048053302
 30
0.0
 10
7.31287685943203
 20
9.40014393177536
 30
0.0
 10
7.34979580830988
 20
9.34324093895293
 30
0.0
 10
7.23165600920733
 20
9.37169243536414
 30
0.0
 10
7.29072590875861
 20
9.31478944254274
 30
0.0
 10
7.15782020471915
 20
9.34324093895344
 30
0.0
 10
7.22427305673888
 20
9.28633391303195
 30
0.0
 10
7.37902828101349
 20
9.24365566014114
 30
0.0
 10
7.06921640202548
 20
9.22231855024551
 30
0.0
 10
6.89200879663812
 20
9.25077004665621
 30
0.0
 10
6.9806125993318
 20
9.19386705383378
 30
0.0
 10
6.88259956177962
 20
9.24765447773196
 30
0.0
 10
6.78031207315237
 20
9.19500237118291
 30
0.0
 10
6.73595784013321
 20
9.18117085839791
 30
0.0
 10
6.70741823878338
 20
9.14407441442789
 30
0.0
 10
6.0724215284578
 20
9.16541354087355
 30
0.0
 10
6.38991988362059
 20
8.39720498883267
 30
0.0
 10
6.7591051858662
 20
8.78130926485311
 30
0.0
 10
6.60352521441956
 20
8.79410225466388
 30
0.0
 10
6.64096538676312
 20
8.83109988771
 30
0.0
 10
7.05444840382051
 20
8.82398953429346
 30
0.0
 10
6.84770689529181
 20
8.85955340067023
 30
0.0
 10
7.09875239843488
 20
8.83821427422456
 30
0.0
 10
6.97576459311765
 20
8.8323178835873
 30
0.0
 10
7.22427515000535
 20
8.88089051056585
 30
0.0
 10
7.09875239843435
 20
8.91645639349214
 30
0.0
 10
7.16968274842112
 20
8.90426030232439
 30
0.0
 10
7.18735620112749
 20
8.94490990645289
 30
0.0
 10
7.33503827643938
 20
8.90191707184458
 30
0.0
 10
7.30931202584725
 20
8.96880198452181
 30
0.0
 10
7.3424128558409
 20
9.00892728578937
 30
0.0
 10
7.47531855988141
 20
8.98758815934371
 30
0.0
 10
7.40886570786116
 20
9.04449115216613
 30
0.0
 10
7.54177141190061
 20
9.01603965575492
 30
0.0
 10
7.47531855988088
 20
9.07294264857633
 30
0.0
 10
7.55550533624109
 20
9.02745130918053
 30
0.0
 10
7.53569465799745
 20
9.0732572302933
 30
0.0
 10
7.58592887782931
 20
9.0882502755703
 30
0.0
 10
7.58600842197261
 20
9.07513463784546
 30
0.0
 10
7.65991121100316
 20
9.10139616153707
 30
0.0
 10
7.6229922621253
 20
9.17252792738863
 30
0.0
 10
7.75589796616582
 20
9.13696204446285
 30
0.0
 10
7.68944511414556
 20
9.19386503728425
 30
0.0
 10
7.7485129204293
 20
9.16541354087355
 30
0.0
 10
7.71897901728743
 20
9.22231653369599
 30
0.0
 10
7.73252873413733
 20
9.20279431831862
 30
0.0
 10
7.77066387110325
 20
9.24365767669066
 30
0.0
 10
7.84450176885896
 20
9.222318550245
 30
0.0
 10
7.80758281998111
 20
9.27922154306743
 30
0.0
 10
7.88142071773681
 20
9.25077004665621
 30
0.0
 10
7.84450176885896
 20
9.30767303947762
 30
0.0
 10
7.85805148570939
 20
9.28815082410026
 30
0.0
 10
7.89618662267425
 20
9.3432389224034
 30
0.0
 10
7.95525442895905
 20
9.3147874259927
 30
0.0
 10
7.93141002533671
 20
9.33956880237678
 30
0.0
 10
7.96263947469451
 20
9.40014393177484
 30
0.0
 10
8.02170728097825
 20
9.37169243536414
 30
0.0
 10
7.99217337783638
 20
9.42859542818657
 30
0.0
 10
8.06601127559208
 20
9.40014393177536
 30
0.0
 10
8.02909232671423
 20
9.45705095769583
 30
0.0
 10
8.08816013299904
 20
9.42859744473559
 30
0.0
 10
8.05862622985664
 20
9.48550043755699
 30
0.0
 10
8.11769822267438
 20
9.45704894114629
 30
0.0
 10
8.08816222626551
 20
9.52818070699786
 30
0.0
 10
8.14723003254925
 20
9.49261482407208
 30
0.0
 10
8.11769612940738
 20
9.5495178168945
 30
0.0
 10
8.17676393569219
 20
9.52106632048329
 30
0.0
 10
8.14723003254978
 20
9.5779693133047
 30
0.0
 10
8.17295418987545
 20
9.55499476524229
 30
0.0
 10
8.10996569462775
 20
9.62819954394532
 30
0.0
 10
8.24823434854766
 20
9.63199267349022
 30
0.0
 10
8.30228668726265
 20
9.67044020560244
 30
0.0
 10
8.27275278412078
 20
9.72734319842384
 30
0.0
 10
8.29531401511322
 20
9.70884740672559
 30
0.0
 10
8.36135658681393
 20
9.75579671138458
 30
0.0
 10
8.33182268367206
 20
9.81269970420702
 30
0.0
 10
8.39089048995686
 20
9.7842482077958
 30
0.0
 10
8.36135658681446
 20
9.86960471357744
 30
0.0
 10
8.39794479951713
 20
9.86289565350512
 30
0.0
 10
8.44257743703809
 20
9.88383147005807
 30
0.0
 10
8.43136171281804
 20
9.89326085535902
 30
0.0
 10
8.48688143165192
 20
9.93362209291443
 30
0.0
 10
8.45734543524306
 20
10.0474321116573
 30
0.0
 10
8.51641324152786
 20
9.99052710228588
 30
0.0
 10
8.48687933838546
 20
10.1185618609599
 30
0.0
 10
8.54594714466921
 20
10.0545444816229
 30
0.0
 10
8.51641324152734
 20
10.1683545003658
 30
0.0
 10
8.57548523434614
 20
10.1114494909943
 30
0.0
 10
8.54594923793674
 20
10.2252595097362
 30
0.0
 10
8.61978294915845
 20
10.1683545003653
 30
0.0
 10
8.58286609354759
 20
10.3532922518607
 30
0.0
 10
8.64193808636533
 20
10.260823376113
 30
0.0
 10
8.61240208995646
 20
10.4315363876783
 30
0.0
 10
8.67146989624127
 20
10.3461798818956
 30
0.0
 10
8.64193599309887
 20
10.531117633391
 30
0.0
 10
8.7010037993826
 20
10.4386487576433
 30
0.0
 10
8.67146989624073
 20
10.6947182749903
 30
0.0
 10
8.69259723938467
 20
10.66724480507
 30
0.0
 10
8.70212788372538
 20
10.7078621444075
 30
0.0
 10
32.71935162230312
 20
113.0635572748529
 30
0.0
 10
-23.06171368231507
 20
120.5505960805599
 30
0.0
 10
6.7738710908031
 20
12.8997647019492
 30
0.0
  0
SPLINE
  5
77
102
{ACAD_REACTORS
330
73
102
}
330
1F
100
AcDbEntity
  8
Layer 1
100
AcDbSpline
210
0.0
220
0.0
230
1.0
 70
    11
 71
     3
 72
    11
 73
     7
 74
     0
 42
0.000000001
 43
0.0000000001
 40
0.0
 40
0.0
 40
0.0
 40
0.0
 40
1.0
 40
1.0
 40
1.0
 40
1.005777601951254
 40
1.005777601951254
 40
1.005777601951254
 40
1.005777601951254
 10
8.70212788372538
 20
10.7078621444075
 30
0.0
 10
8.702582122649787
 20
10.70979399879543
 30
0.0
 10
8.703127069807794
 20
10.71164115810583
 30
0.0
 10
8.7037627251994
 20
10.7134036223387
 30
0.0
 10
8.711390589898674
 20
10.73455319313306
 30
0.0
 10
8.69667701663249
 20
10.6846798917523
 30
0.0
 10
8.70212788372538
 20
10.7078621444075
 30
0.0
  0
SPLINE
  5
78
102
{ACAD_REACTORS
330
73
102
}
330
1F
100
AcDbEntity
  8
Layer 1
100
AcDbSpline
210
0.0
220
0.0
230
1.0
 70
    11
 71
     3
 72
    15
 73
    11
 74
     0
 42
0.000000001
 43
0.0000000001
 40
0.0
 40
0.0
 40
0.0
 40
0.0
 40
0.2
 40
0.4
 40
0.6000000000000001
 40
0.8
 40
1.0
 40
1.0
 40
1.0
 40
1.635721180089336
 40
1.635721180089336
 40
1.635721180089336
 40
1.635721180089336
 10
8.7037627251994
 20
10.7134036223387
 30
0.0
 10
8.7037627251994
 20
10.7134036223387
 30
0.0
 10
8.719085439141
 20
10.7413167000423
 30
0.0
 10
8.73749990834052
 20
10.7671426490492
 30
0.0
 10
8.73053979579201
 20
11.7830137237151
 30
0.0
 10
8.71726011037646
 20
11.3130528376449
 30
0.0
 10
8.70100589265014
 20
11.3491188248378
 30
0.0
 10
8.70100589265014
 20
11.3491188248378
 30
0.0
 10
8.70100589265014
 20
11.3491188248378
 30
0.0
 10
8.7037627251994
 20
10.7134036223387
 30
0.0
 10
8.7037627251994
 20
10.7134036223387
 30
0.0
  0
SPLINE
  5
79
102
{ACAD_REACTORS
330
73
102
}
330
1F
100
AcDbEntity
  8
Layer 1
100
AcDbSpline
210
0.0
220
0.0
230
1.0
 70
    11
 71
     3
 72
    11
 73
     7
 74
     0
 42
0.000000001
 43
0.0000000001
 40
0.0
 40
0.0
 40
0.0
 40
0.0
 40
1.0
 40
1.0
 40
1.0
 40
1.107047124379339
 40
1.107047124379339
 40
1.107047124379339
 40
1.107047124379339
 10
8.70100589265014
 20
11.3491188248378
 30
0.0
 10
8.70100589265014
 20
11.38483191587467
 30
0.0
 10
8.70112660437651
 20
11.42051408648627
 30
0.0
 10
8.70136802782925
 20
11.4561653366726
 30
0.0
 10
8.704265109262142
 20
11.8839803389086
 30
0.0
 10
8.70100589265014
 20
10.92056173239541
 30
0.0
 10
8.70100589265014
 20
11.3491188248378
 30
0.0
  0
SPLINE
  5
7A
102
{ACAD_REACTORS
330
73
102
}
330
1F
100
AcDbEntity
  8
Layer 1
100
AcDbSpline
210
0.0
220
0.0
230
1.0
 70
    11
 71
     3
 72
    90
 73
    86
 74
     0
 42
0.000000001
 43
0.0000000001
 40
0.0
 40
0.0
 40
0.0
 40
0.0
 40
0.0125
 40
0.025
 40
0.0375
 40
0.05
 40
0.0625
 40
0.075
 40
0.0875
 40
0.1
 40
0.1125
 40
0.125
 40
0.1375
 40
0.15
 40
0.1625
 40
0.175
 40
0.1875
 40
0.2
 40
0.2125
 40
0.2250000000000001
 40
0.2375000000000001
 40
0.2500000000000001
 40
0.2625000000000001
 40
0.2750000000000001
 40
0.2875000000000001
 40
0.3000000000000001
 40
0.3125000000000001
 40
0.3250000000000001
 40
0.3375000000000001
 40
0.3500000000000001
 40
0.3625000000000002
 40
0.3750000000000002
 40
0.3875000000000002
 40
0.4000000000000002
 40
0.4125000000000002
 40
0.4250000000000002
 40
0.4375000000000002
 40
0.4500000000000002
 40
0.4625000000000002
 40
0.4750000000000003
 40
0.4875000000000003
 40
0.5000000000000002
 40
0.5125000000000002
 40
0.5250000000000001
 40
0.5375000000000001
 40
0.55
 40
0.5625
 40
0.575
 40
0.5874999999999999
 40
0.5999999999999999
 40
0.6124999999999998
 40
0.6249999999999998
 40
0.6374999999999997
 40
0.6499999999999997
 40
0.6624999999999996
 40
0.6749999999999996
 40
0.6874999999999996
 40
0.6999999999999995
 40
0.7124999999999995
 40
0.7249999999999994
 40
0.7374999999999994
 40
0.7499999999999993
 40
0.7624999999999993
 40
0.7749999999999992
 40
0.7874999999999992
 40
0.7999999999999992
 40
0.8124999999999991
 40
0.8249999999999991
 40
0.837499999999999
 40
0.849999999999999
 40
0.8624999999999989
 40
0.8749999999999989
 40
0.8874999999999988
 40
0.8999999999999988
 40
0.9124999999999988
 40
0.9249999999999987
 40
0.9374999999999987
 40
0.9499999999999986
 40
0.9624999999999986
 40
0.9749999999999985
 40
0.9874999999999985
 40
1.0
 40
1.0
 40
1.0
 40
4.191791068105489
 40
4.191791068105489
 40
4.191791068105489
 40
4.191791068105489
 10
8.70136802782925
 20
11.4561653366726
 30
0.0
 10
8.70189343782895
 20
11.5208300283878
 30
0.0
 10
8.66190366636263
 20
11.4823784631765
 30
0.0
 10
8.71351106930056
 20
11.6149605408956
 30
0.0
 10
8.64508217329716
 20
11.6236700180378
 30
0.0
 10
8.59025113928304
 20
11.7332251174078
 30
0.0
 10
8.60319171545594
 20
11.8107291795703
 30
0.0
 10
8.56071514287417
 20
11.8256939931555
 30
0.0
 10
8.58286609354759
 20
11.9537287518284
 30
0.0
 10
8.50903238232588
 20
11.8897113724919
 30
0.0
 10
8.54594923793674
 20
12.0035213912348
 30
0.0
 10
8.50164733658989
 20
11.9466163818634
 30
0.0
 10
8.50425136065303
 20
11.8304671657413
 30
0.0
 10
8.53315728371544
 20
11.9719886072404
 30
0.0
 10
8.59305611697222
 20
11.9743782183578
 30
0.0
 10
8.50638230638983
 20
12.0000851909455
 30
0.0
 10
8.46472838771204
 20
12.0319728876461
 30
0.0
 10
8.47684840324796
 20
12.0569861672179
 30
0.0
 10
8.43519448456964
 20
12.088875880468
 30
0.0
 10
8.45734543524306
 20
12.1600076463195
 30
0.0
 10
8.39827344242532
 20
12.1244417633938
 30
0.0
 10
8.42780943883419
 20
12.2524765220667
 30
0.0
 10
8.36874163255045
 20
12.1884591427302
 30
0.0
 10
8.40769942341927
 20
12.2971007451922
 30
0.0
 10
8.36135658681446
 20
12.3093795148886
 30
0.0
 10
8.30228878052966
 20
12.2738156485124
 30
0.0
 10
8.318337858097
 20
12.2967700310805
 30
0.0
 10
8.30986431355669
 20
12.2627246264518
 30
0.0
 10
8.24321678771138
 20
12.3662865408096
 30
0.0
 10
8.21497233699988
 20
12.3603437695342
 30
0.0
 10
8.18414688816011
 20
12.4516430465923
 30
0.0
 10
8.21368288456951
 20
12.5085460394137
 30
0.0
 10
8.13984917334779
 20
12.480094543003
 30
0.0
 10
8.17676602895865
 20
12.5512263088545
 30
0.0
 10
8.11769403614091
 20
12.5156604259288
 30
0.0
 10
8.14723003254978
 20
12.5725634187512
 30
0.0
 10
8.08816222626497
 20
12.54411192234
 30
0.0
 10
8.11769612940738
 20
12.6010149151614
 30
0.0
 10
8.05862832312364
 20
12.5725634187507
 30
0.0
 10
8.08527142463256
 20
12.607602982266
 30
0.0
 10
8.06750377491444
 20
12.6175566704289
 30
0.0
 10
8.06340306499495
 20
12.6207125703417
 30
0.0
 10
8.03044039061844
 20
12.6707149308921
 30
0.0
 10
7.99217337783638
 20
12.7290516903844
 30
0.0
 10
7.93310557155264
 20
12.6934858074586
 30
0.0
 10
7.96263947469451
 20
12.750388800281
 30
0.0
 10
7.9035716684097
 20
12.7219373038698
 30
0.0
 10
7.9331055715521
 20
12.7788443297903
 30
0.0
 10
7.87403357873436
 20
12.7503908168301
 30
0.0
 10
7.90356957514323
 20
12.8072938096525
 30
0.0
 10
7.84450176885843
 20
12.7788423132413
 30
0.0
 10
7.87403567200083
 20
12.8357453060627
 30
0.0
 10
7.77994332341261
 20
12.8304599299141
 30
0.0
 10
7.78444175404859
 20
12.8435614517917
 30
0.0
 10
7.7780489168387
 20
12.9068750553652
 30
0.0
 10
7.71897692402097
 20
12.871311188989
 30
0.0
 10
7.69669828406433
 20
12.8912447804567
 30
0.0
 10
7.68944511414556
 20
12.9566676947716
 30
0.0
 10
7.63037312132782
 20
12.9282161983604
 30
0.0
 10
7.65990911773669
 20
12.9851232242809
 30
0.0
 10
7.52700341369617
 20
12.9566697113206
 30
0.0
 10
7.59345626571643
 20
13.0135727041431
 30
0.0
 10
7.56662895671745
 20
13.0420242005533
 30
0.0
 10
7.51572070493322
 20
13.0380394988097
 30
0.0
 10
7.43483687068471
 20
13.0463940632453
 30
0.0
 10
7.43101665853457
 20
13.0918168399597
 30
0.0
 10
7.41185698630632
 20
13.0824217359987
 30
0.0
 10
7.3719467589833
 20
13.1202683363704
 30
0.0
 10
7.20950505853391
 20
13.1131579829549
 30
0.0
 10
7.29072590875861
 20
13.1629465892612
 30
0.0
 10
7.14305429978119
 20
13.1344950928505
 30
0.0
 10
7.2168901042699
 20
13.1771733457418
 30
0.0
 10
7.15708337475841
 20
13.1675160903511
 30
0.0
 10
7.01059236833061
 20
13.1775101095026
 30
0.0
 10
7.03229954641462
 20
13.2483030950444
 30
0.0
 10
6.93655142368292
 20
13.230926488298
 30
0.0
 10
6.91415974731207
 20
13.2696422214895
 30
0.0
 10
6.88886470970682
 20
13.2618139764643
 30
0.0
 10
6.61143148362072
 20
13.2554174815589
 30
0.0
 10
6.72956918945626
 20
13.3123204743803
 30
0.0
 10
5.40051214905642
 20
13.2838689779696
 30
0.0
 10
6.06504066925634
 20
13.2554174815589
 30
0.0
 10
6.06504066925634
 20
13.2554174815589
 30
0.0
 10
6.06504066925634
 20
13.2554174815589
 30
0.0
 10
8.196974428116466
 20
-50.62193870992098
 30
0.0
 10
8.70136802782925
 20
11.4561653366726
 30
0.0
  0
SPLINE
  5
7B
102
{ACAD_REACTORS
330
73
102
}
330
1F
100
AcDbEntity
  8
Layer 1
100
AcDbSpline
210
0.0
220
0.0
230
1.0
 70
    11
 71
     3
 72
    15
 73
    11
 74
     0
 42
0.000000001
 43
0.0000000001
 40
0.0
 40
0.0
 40
0.0
 40
0.0
 40
0.2
 40
0.4
 40
0.6000000000000001
 40
0.8
 40
1.0
 40
1.0
 40
1.0
 40
2.493222891653949
 40
2.493222891653949
 40
2.493222891653949
 40
2.493222891653949
 10
5.47434795354566
 20
12.4943212994831
 30
0.0
 10
5.47434795354566
 20
12.4943212994831
 30
0.0
 10
5.47434795354566
 20
6.59048959437482
 30
0.0
 10
6.28654808272247
 20
9.54240544692895
 30
0.0
 10
5.88044801813407
 20
12.145782906389
 30
0.0
 10
5.96098646333946
 20
10.7677758455817
 30
0.0
 10
6.10689135502618
 20
11.1144731290142
 30
0.0
 10
6.10934257060318
 20
11.1428419468967
 30
0.0
 10
6.256415505223164
 20
12.84497101984672
 30
0.0
 10
5.47434795354566
 20
12.4943212994831
 30
0.0
 10
5.47434795354566
 20
12.4943212994831
 30
0.0
  0
SPLINE
  5
7C
102
{ACAD_REACTORS
330
73
102
}
330
1F
100
AcDbEntity
  8
Layer 1
100
AcDbSpline
210
0.0
220
0.0
230
1.0
 70
    11
 71
     3
 72
    11
 73
     7
 74
     0
 42
0.000000001
 43
0.0000000001
 40
0.0
 40
0.0
 40
0.0
 40
0.0
 40
1.0
 40
1.0
 40
1.0
 40
1.125526938169789
 40
1.125526938169789
 40
1.125526938169789
 40
1.125526938169789
 10
6.10934257060318
 20
11.1428419468967
 30
0.0
 10
6.06750235116834
 20
11.1428419468967
 30
0.0
 10
6.025660038466673
 20
11.14284060253037
 30
0.0
 10
5.983815632498181
 20
11.1428379137977
 30
0.0
 10
5.481682760876271
 20
11.1428056490057
 30
0.0
 10
6.61142520382126
 20
11.1428419468967
 30
0.0
 10
6.10934257060318
 20
11.1428419468967
 30
0.0
  0
SPLINE
  5
7D
102
{ACAD_REACTORS
330
73
102
}
330
1F
100
AcDbEntity
  8
Layer 1
100
AcDbSpline
210
0.0
220
0.0
230
1.0
 70
    11
 71
     3
 72
    48
 73
    44
 74
     0
 42
0.000000001
 43
0.0000000001
 40
0.0
 40
0.0
 40
0.0
 40
0.0
 40
0.0263157894736842
 40
0.0526315789473684
 40
0.0789473684210526
 40
0.1052631578947368
 40
0.131578947368421
 40
0.1578947368421053
 40
0.1842105263157895
 40
0.2105263157894737
 40
0.2368421052631579
 40
0.2631578947368421
 40
0.2894736842105263
 40
0.3157894736842105
 40
0.3421052631578947
 40
0.3684210526315789
 40
0.3947368421052631
 40
0.4210526315789472
 40
0.4473684210526314
 40
0.4736842105263156
 40
0.4999999999999998
 40
0.526315789473684
 40
0.5526315789473681
 40
0.5789473684210523
 40
0.6052631578947365
 40
0.6315789473684207
 40
0.6578947368421049
 40
0.684210526315789
 40
0.7105263157894732
 40
0.7368421052631574
 40
0.7631578947368416
 40
0.7894736842105258
 40
0.81578947368421
 40
0.8421052631578941
 40
0.8684210526315783
 40
0.8947368421052625
 40
0.9210526315789467
 40
0.9473684210526309
 40
0.973684210526315
 40
1.0
 40
1.0
 40
1.0
 40
2.44432152157369
 40
2.44432152157369
 40
2.44432152157369
 40
2.44432152157369
 10
5.98381563249818
 20
11.1428379137977
 30
0.0
 10
5.95004077055216
 20
11.1427854835119
 30
0.0
 10
5.81085526571598
 20
11.1170865771208
 30
0.0
 10
5.88044801813407
 20
13.2696442380385
 30
0.0
 10
6.14877971959988
 20
12.257388836565
 30
0.0
 10
6.67778595209575
 20
12.3019061825695
 30
0.0
 10
6.76375223845431
 20
12.1572893376399
 30
0.0
 10
7.079029637402
 20
11.7654838592101
 30
0.0
 10
6.97494403248067
 20
11.4251608886386
 30
0.0
 10
6.75935009809656
 20
11.2546878464597
 30
0.0
 10
6.65567268022671
 20
11.2140301761336
 30
0.0
 10
6.30757913558712
 20
11.1346708884616
 30
0.0
 10
6.16841037688746
 20
11.080040546888
 30
0.0
 10
6.11110719462688
 20
11.024641899967
 30
0.0
 10
6.5605734702434
 20
10.7846866294004
 30
0.0
 10
6.60217296398082
 20
10.7568763957193
 30
0.0
 10
6.65303307062566
 20
10.7190297953476
 30
0.0
 10
6.76149569670183
 20
10.6116666852474
 30
0.0
 10
6.90881773010213
 20
10.1398445240202
 30
0.0
 10
6.91983878049873
 20
10.0885152739215
 30
0.0
 10
7.03699893067664
 20
9.63228910626091
 30
0.0
 10
7.11475542412931
 20
9.42382628869981
 30
0.0
 10
7.92572052581666
 20
9.54240544692895
 30
0.0
 10
7.45754672362875
 20
9.63992174598937
 30
0.0
 10
7.07017302501313
 20
11.101085257111
 30
0.0
 10
7.18288916949491
 20
10.6678517864591
 30
0.0
 10
6.8129188921513
 20
11.1058947275873
 30
0.0
 10
6.81079003968096
 20
11.0076948182577
 30
0.0
 10
7.29092476911712
 20
11.2429454789214
 30
0.0
 10
7.2467254378495
 20
11.2848130789277
 30
0.0
 10
7.48868825577526
 20
11.7247394772562
 30
0.0
 10
7.32724295038491
 20
12.2549387289642
 30
0.0
 10
7.21129061522654
 20
12.2720229360374
 30
0.0
 10
7.10856563381087
 20
12.3686297712884
 30
0.0
 10
6.8879059934527
 20
12.5071828519758
 30
0.0
 10
6.49978081200787
 20
12.5689336297126
 30
0.0
 10
5.9688634268037
 20
12.5510690179968
 30
0.0
 10
5.88515577546356
 20
12.5528133332836
 30
0.0
 10
5.36987300097476
 20
12.5096067444333
 30
0.0
 10
5.47434795354566
 20
12.5244303995549
 30
0.0
 10
5.47434795354566
 20
12.4943212994831
 30
0.0
 10
5.47434795354566
 20
11.62886577563703
 30
0.0
 10
6.954639761037992
 20
11.14434496915151
 30
0.0
 10
5.98381563249818
 20
11.1428379137977
 30
0.0
  0
SPLINE
  5
7E
102
{ACAD_REACTORS
330
73
102
}
330
1F
100
AcDbEntity
  8
Layer 1
100
AcDbSpline
210
0.0
220
0.0
230
1.0
 70
    11
 71
     3
 72
   290
 73
   286
 74
     0
 42
0.000000001
 43
0.0000000001
 40
0.0
 40
0.0
 40
0.0
 40
0.0
 40
0.0035335689045936
 40
0.0070671378091873
 40
0.0106007067137809
 40
0.0141342756183746
 40
0.0176678445229682
 40
0.0212014134275618
 40
0.0247349823321555
 40
0.0282685512367491
 40
0.0318021201413428
 40
0.0353356890459364
 40
0.03886925795053
 40
0.0424028268551237
 40
0.0459363957597173
 40
0.0494699646643109
 40
0.0530035335689046
 40
0.0565371024734982
 40
0.0600706713780919
 40
0.0636042402826855
 40
0.0671378091872791
 40
0.0706713780918728
 40
0.0742049469964664
 40
0.07773851590106
 40
0.0812720848056537
 40
0.0848056537102473
 40
0.088339222614841
 40
0.0918727915194346
 40
0.0954063604240282
 40
0.0989399293286219
 40
0.1024734982332155
 40
0.1060070671378091
 40
0.1095406360424028
 40
0.1130742049469964
 40
0.11660777385159
 40
0.1201413427561837
 40
0.1236749116607773
 40
0.127208480565371
 40
0.1307420494699646
 40
0.1342756183745582
 40
0.1378091872791519
 40
0.1413427561837455
 40
0.1448763250883391
 40
0.1484098939929328
 40
0.1519434628975264
 40
0.1554770318021201
 40
0.1590106007067137
 40
0.1625441696113073
 40
0.166077738515901
 40
0.1696113074204946
 40
0.1731448763250882
 40
0.1766784452296819
 40
0.1802120141342755
 40
0.1837455830388691
 40
0.1872791519434628
 40
0.1908127208480564
 40
0.1943462897526501
 40
0.1978798586572437
 40
0.2014134275618373
 40
0.204946996466431
 40
0.2084805653710246
 40
0.2120141342756182
 40
0.2155477031802119
 40
0.2190812720848055
 40
0.2226148409893992
 40
0.2261484098939928
 40
0.2296819787985864
 40
0.2332155477031801
 40
0.2367491166077737
 40
0.2402826855123673
 40
0.243816254416961
 40
0.2473498233215546
 40
0.2508833922261482
 40
0.2544169611307419
 40
0.2579505300353356
 40
0.2614840989399292
 40
0.2650176678445229
 40
0.2685512367491166
 40
0.2720848056537102
 40
0.2756183745583039
 40
0.2791519434628976
 40
0.2826855123674912
 40
0.2862190812720849
 40
0.2897526501766786
 40
0.2932862190812722
 40
0.2968197879858659
 40
0.3003533568904596
 40
0.3038869257950532
 40
0.3074204946996469
 40
0.3109540636042405
 40
0.3144876325088342
 40
0.3180212014134279
 40
0.3215547703180215
 40
0.3250883392226152
 40
0.3286219081272089
 40
0.3321554770318025
 40
0.3356890459363962
 40
0.3392226148409899
 40
0.3427561837455835
 40
0.3462897526501772
 40
0.3498233215547709
 40
0.3533568904593645
 40
0.3568904593639582
 40
0.3604240282685519
 40
0.3639575971731455
 40
0.3674911660777392
 40
0.3710247349823328
 40
0.3745583038869265
 40
0.3780918727915202
 40
0.3816254416961138
 40
0.3851590106007075
 40
0.3886925795053012
 40
0.3922261484098948
 40
0.3957597173144885
 40
0.3992932862190822
 40
0.4028268551236758
 40
0.4063604240282695
 40
0.4098939929328632
 40
0.4134275618374568
 40
0.4169611307420505
 40
0.4204946996466442
 40
0.4240282685512378
 40
0.4275618374558315
 40
0.4310954063604251
 40
0.4346289752650188
 40
0.4381625441696125
 40
0.4416961130742061
 40
0.4452296819787998
 40
0.4487632508833935
 40
0.4522968197879871
 40
0.4558303886925808
 40
0.4593639575971745
 40
0.4628975265017681
 40
0.4664310954063618
 40
0.4699646643109555
 40
0.4734982332155491
 40
0.4770318021201428
 40
0.4805653710247365
 40
0.4840989399293301
 40
0.4876325088339238
 40
0.4911660777385174
 40
0.4946996466431111
 40
0.4982332155477048
 40
0.5017667844522984
 40
0.505300353356892
 40
0.5088339222614857
 40
0.5123674911660794
 40
0.515901060070673
 40
0.5194346289752667
 40
0.5229681978798604
 40
0.526501766784454
 40
0.5300353356890477
 40
0.5335689045936414
 40
0.537102473498235
 40
0.5406360424028287
 40
0.5441696113074224
 40
0.547703180212016
 40
0.5512367491166097
 40
0.5547703180212034
 40
0.558303886925797
 40
0.5618374558303907
 40
0.5653710247349844
 40
0.568904593639578
 40
0.5724381625441717
 40
0.5759717314487653
 40
0.579505300353359
 40
0.5830388692579527
 40
0.5865724381625463
 40
0.59010600706714
 40
0.5936395759717337
 40
0.5971731448763273
 40
0.600706713780921
 40
0.6042402826855147
 40
0.6077738515901083
 40
0.611307420494702
 40
0.6148409893992957
 40
0.6183745583038893
 40
0.621908127208483
 40
0.6254416961130767
 40
0.6289752650176703
 40
0.632508833922264
 40
0.6360424028268576
 40
0.6395759717314513
 40
0.643109540636045
 40
0.6466431095406386
 40
0.6501766784452323
 40
0.653710247349826
 40
0.6572438162544196
 40
0.6607773851590133
 40
0.664310954063607
 40
0.6678445229682006
 40
0.6713780918727943
 40
0.674911660777388
 40
0.6784452296819816
 40
0.6819787985865753
 40
0.685512367491169
 40
0.6890459363957626
 40
0.6925795053003563
 40
0.6961130742049499
 40
0.6996466431095436
 40
0.7031802120141373
 40
0.7067137809187309
 40
0.7102473498233246
 40
0.7137809187279183
 40
0.7173144876325119
 40
0.7208480565371056
 40
0.7243816254416993
 40
0.7279151943462929
 40
0.7314487632508866
 40
0.7349823321554803
 40
0.7385159010600739
 40
0.7420494699646676
 40
0.7455830388692612
 40
0.7491166077738549
 40
0.7526501766784486
 40
0.7561837455830422
 40
0.7597173144876359
 40
0.7632508833922296
 40
0.7667844522968232
 40
0.7703180212014169
 40
0.7738515901060106
 40
0.7773851590106042
 40
0.7809187279151979
 40
0.7844522968197916
 40
0.7879858657243852
 40
0.7915194346289789
 40
0.7950530035335726
 40
0.7985865724381662
 40
0.8021201413427599
 40
0.8056537102473535
 40
0.8091872791519472
 40
0.8127208480565409
 40
0.8162544169611345
 40
0.8197879858657282
 40
0.8233215547703219
 40
0.8268551236749155
 40
0.8303886925795092
 40
0.8339222614841029
 40
0.8374558303886965
 40
0.8409893992932902
 40
0.8445229681978839
 40
0.8480565371024775
 40
0.8515901060070712
 40
0.8551236749116649
 40
0.8586572438162585
 40
0.8621908127208522
 40
0.8657243816254458
 40
0.8692579505300395
 40
0.8727915194346332
 40
0.8763250883392268
 40
0.8798586572438205
 40
0.8833922261484142
 40
0.8869257950530078
 40
0.8904593639576015
 40
0.8939929328621952
 40
0.8975265017667888
 40
0.9010600706713825
 40
0.9045936395759762
 40
0.9081272084805698
 40
0.9116607773851635
 40
0.9151943462897572
 40
0.9187279151943508
 40
0.9222614840989445
 40
0.9257950530035381
 40
0.9293286219081318
 40
0.9328621908127255
 40
0.9363957597173191
 40
0.9399293286219128
 40
0.9434628975265065
 40
0.9469964664311001
 40
0.9505300353356938
 40
0.9540636042402875
 40
0.9575971731448811
 40
0.9611307420494748
 40
0.9646643109540685
 40
0.9681978798586621
 40
0.9717314487632558
 40
0.9752650176678495
 40
0.9787985865724431
 40
0.9823321554770368
 40
0.9858657243816304
 40
0.9893992932862241
 40
0.9929328621908178
 40
0.9964664310954114
 40
1.0
 40
1.0
 40
1.0
 40
1.0
 10
4.29296252212324
 20
9.52106632048329
 30
0.0
 10
4.29296252212324
 20
9.52106632048329
 30
0.0
 10
4.2486606207764
 20
9.52106632048329
 30
0.0
 10
4.27081157144982
 20
9.46416332766087
 30
0.0
 10
4.21174376516502
 20
9.49261482407208
 30
0.0
 10
4.24127766830742
 20
9.42148305822051
 30
0.0
 10
4.18220567548967
 20
9.45704894114629
 30
0.0
 10
4.21174167189855
 20
9.40014594832489
 30
0.0
 10
4.15267386561481
 20
9.42859744473559
 30
0.0
 10
4.18220776875668
 20
9.37169041881512
 30
0.0
 10
4.12313996247187
 20
9.40014393177536
 30
0.0
 10
4.15267386561427
 20
9.34324093895293
 30
0.0
 10
4.07883596785856
 20
9.37169243536414
 30
0.0
 10
4.11575491673642
 20
9.31478944254274
 30
0.0
 10
4.05668711045267
 20
9.34324093895344
 30
0.0
 10
4.08622101359455
 20
9.28633391303195
 30
0.0
 10
4.02714902077574
 20
9.3147874259927
 30
0.0
 10
4.05668501718514
 20
9.24365566014114
 30
0.0
 10
3.9976172109014
 20
9.27922154306692
 30
0.0
 10
4.02715111404327
 20
9.22231855024551
 30
0.0
 10
3.96808330775846
 20
9.25077004665621
 30
0.0
 10
3.99761721090087
 20
9.19386705383378
 30
0.0
 10
3.93854521808313
 20
9.222318550245
 30
0.0
 10
3.968081214492
 20
9.16541152432454
 30
0.0
 10
3.89424750327029
 20
9.19386503728477
 30
0.0
 10
3.93116435888114
 20
9.13696204446234
 30
0.0
 10
3.87209236606234
 20
9.16541354087355
 30
0.0
 10
3.90162836247174
 20
9.10851054805215
 30
0.0
 10
3.842560556188
 20
9.13696204446285
 30
0.0
 10
3.87209445932987
 20
9.06583027861129
 30
0.0
 10
3.81302246651213
 20
9.10139616153707
 30
0.0
 10
3.842558462921
 20
9.04449316871464
 30
0.0
 10
3.78349065663619
 20
9.07294466512586
 30
0.0
 10
3.8130245597786
 20
9.01603763920539
 30
0.0
 10
3.75395675349485
 20
9.04449115216562
 30
0.0
 10
3.78349065663673
 20
8.98758815934422
 30
0.0
 10
3.70965275888102
 20
9.01603965575492
 30
0.0
 10
3.74657170775887
 20
8.95913666293249
 30
0.0
 10
3.68750390147406
 20
8.98758815934371
 30
0.0
 10
3.71703780461647
 20
8.93068113342324
 30
0.0
 10
3.65796581179873
 20
8.95913464638347
 30
0.0
 10
3.6875018082076
 20
8.88800691363097
 30
0.0
 10
3.62843400192279
 20
8.92357078000722
 30
0.0
 10
3.6579679050652
 20
8.86666375408574
 30
0.0
 10
3.59890009878146
 20
8.89511726704648
 30
0.0
 10
3.62843400192333
 20
8.83821427422508
 30
0.0
 10
3.56936200910452
 20
8.86666577063578
 30
0.0
 10
3.59889800551392
 20
8.80976277781334
 30
0.0
 10
3.52506429429221
 20
8.83821427422456
 30
0.0
 10
3.56198114990307
 20
8.7813072483041
 30
0.0
 10
3.50290915708533
 20
8.80976076126433
 30
0.0
 10
3.5324451534942
 20
8.7528577684419
 30
0.0
 10
3.47337734720939
 20
8.78130926485311
 30
0.0
 10
3.5029112503518
 20
8.71017749900155
 30
0.0
 10
3.44384344406805
 20
8.74574338192733
 30
0.0
 10
3.47337734720992
 20
8.68884038910593
 30
0.0
 10
3.41430535439218
 20
8.71729188551663
 30
0.0
 10
3.44384135080105
 20
8.6603888926942
 30
0.0
 10
3.38477354451625
 20
8.68884038910542
 30
0.0
 10
3.41430744765865
 20
8.63193336318495
 30
0.0
 10
3.34046954990294
 20
8.66038687614518
 30
0.0
 10
3.3773884987808
 20
8.60348388332276
 30
0.0
 10
3.31832069249705
 20
8.63193537973397
 30
0.0
 10
3.34785459563893
 20
8.57503238691256
 30
0.0
 10
3.28878678935412
 20
8.60348388332327
 30
0.0
 10
3.31832069249652
 20
8.5323521174717
 30
0.0
 10
3.25924869967878
 20
8.56791800039749
 30
0.0
 10
3.28878469608765
 20
8.51101097447702
 30
0.0
 10
3.22971688980285
 20
8.53946448743725
 30
0.0
 10
3.25925079294525
 20
8.48256149461482
 30
0.0
 10
3.2001829866615
 20
8.51101299102604
 30
0.0
 10
3.22971688980338
 20
8.45410999820463
 30
0.0
 10
3.15587899204767
 20
8.48256149461534
 30
0.0
 10
3.19279794092552
 20
8.42565446869385
 30
0.0
 10
3.13373013464072
 20
8.45410798165459
 30
0.0
 10
3.16326403778312
 20
8.39720498883318
 30
0.0
 10
3.10419204496538
 20
8.42565648524389
 30
0.0
 10
3.13372804137425
 20
8.35452471939232
 30
0.0
 10
3.07466023508944
 20
8.3900906023181
 30
0.0
 10
3.10419413823185
 20
8.33318760949567
 30
0.0
 10
3.0451263319481
 20
8.36163910590689
 30
0.0
 10
3.07466023508997
 20
8.30473611308549
 30
0.0
 10
3.01558824227223
 20
8.33318760949619
 30
0.0
 10
3.0451242386811
 20
8.27628058357469
 30
0.0
 10
2.9712863409254
 20
8.30473409653544
 30
0.0
 10
3.00820528980325
 20
8.24783110371403
 30
0.0
 10
2.94913748351844
 20
8.27628260012474
 30
0.0
 10
2.97867138666084
 20
8.21937960730231
 30
0.0
 10
2.9196035803771
 20
8.24783110371352
 30
0.0
 10
2.94913748351897
 20
8.17669933786196
 30
0.0
 10
2.89006549070017
 20
8.21226522078774
 30
0.0
 10
2.91960148710957
 20
8.15536222796634
 30
0.0
 10
2.86053368082583
 20
8.18381372437704
 30
0.0
 10
2.8900675839677
 20
8.12690669845657
 30
0.0
 10
2.83099977768289
 20
8.15536021141681
 30
0.0
 10
2.8605336808253
 20
8.09845721859438
 30
0.0
 10
2.78669578306959
 20
8.12690871500559
 30
0.0
 10
2.82361473194744
 20
8.07000572218418
 30
0.0
 10
2.7645469256637
 20
8.09845721859489
 30
0.0
 10
2.79408082880557
 20
8.0415501926734
 30
0.0
 10
2.73500883598676
 20
8.07000370563414
 30
0.0
 10
2.76454483239617
 20
7.99887597288164
 30
0.0
 10
2.70547702611243
 20
8.03443983925789
 30
0.0
 10
2.7350109292543
 20
7.97753281333743
 30
0.0
 10
2.67594312296949
 20
8.00598632629766
 30
0.0
 10
2.70547702611189
 20
7.94908333347523
 30
0.0
 10
2.64640503329415
 20
7.97753482988645
 30
0.0
 10
2.67594102970302
 20
7.92063183706504
 30
0.0
 10
2.60210731848131
 20
7.94908333347574
 30
0.0
 10
2.63902417409217
 20
7.89217630755425
 30
0.0
 10
2.57995218127336
 20
7.920629820515
 30
0.0
 10
2.60948817768276
 20
7.86372682769359
 30
0.0
 10
2.55042037139902
 20
7.89217832410429
 30
0.0
 10
2.57995427454089
 20
7.7641435654303
 30
0.0
 10
2.63902208082463
 20
7.8281609447673
 30
0.0
 10
2.60948817768276
 20
7.77125391884683
 30
0.0
 10
2.66856017050157
 20
7.79970743180707
 30
0.0
 10
2.63902417409217
 20
7.74280443898566
 30
0.0
 10
2.71285788531388
 20
7.77125593539636
 30
0.0
 10
2.67594102970302
 20
7.71435294257393
 30
0.0
 10
2.73501302252076
 20
7.74280443898515
 30
0.0
 10
2.70547702611189
 20
7.68589741306469
 30
0.0
 10
2.7645448323967
 20
7.71435092602492
 30
0.0
 10
2.7350109292543
 20
7.64322319327241
 30
0.0
 10
2.79407873553804
 20
7.67878705964867
 30
0.0
 10
2.76454483239617
 20
7.62188003372718
 30
0.0
 10
2.82361682521497
 20
7.65033354668792
 30
0.0
 10
2.79408082880557
 20
7.59343055386652
 30
0.0
 10
2.85314863508931
 20
7.62188205027722
 30
0.0
 10
2.82361473194744
 20
7.56497905745479
 30
0.0
 10
2.89745262970315
 20
7.593430553866
 30
0.0
 10
2.8605336808253
 20
7.53652352794554
 30
0.0
 10
2.9196014871101
 20
7.56497704090577
 30
0.0
 10
2.8900675839677
 20
7.50807404808335
 30
0.0
 10
2.94913539025144
 20
7.53652554449456
 30
0.0
 10
2.91960148710957
 20
7.46539377864299
 30
0.0
 10
2.97867347992838
 20
7.50095966156877
 30
0.0
 10
2.94913748351897
 20
7.44405666874737
 30
0.0
 10
3.00820528980272
 20
7.47250816515807
 30
0.0
 10
2.97867138666084
 20
7.41560517233564
 30
0.0
 10
3.03773919294565
 20
7.44405666874686
 30
0.0
 10
3.00820528980325
 20
7.3871496428264
 30
0.0
 10
3.08204318755896
 20
7.41560315578663
 30
0.0
 10
3.0451242386811
 20
7.35870016296522
 30
0.0
 10
3.10419623149884
 20
7.38715165937592
 30
0.0
 10
3.07466023508997
 20
7.33024866655349
 30
0.0
 10
3.19279584765852
 20
7.35870016296471
 30
0.0
 10
3.13372804137425
 20
7.41560315578714
 30
0.0
 10
3.19280003419199
 20
7.38715165937592
 30
0.0
 10
3.16326403778312
 20
7.44405465219733
 30
0.0
 10
3.22233184406793
 20
7.41560315578663
 30
0.0
 10
3.19279794092552
 20
7.47251018170709
 30
0.0
 10
3.26663583868123
 20
7.44405666874686
 30
0.0
 10
3.22971688980338
 20
7.50095966156929
 30
0.0
 10
3.28878469608712
 20
7.47250816515807
 30
0.0
 10
3.25925079294525
 20
7.52941115797948
 30
0.0
 10
3.31831859923006
 20
7.50095966156877
 30
0.0
 10
3.28878469608765
 20
7.57209142742034
 30
0.0
 10
3.34785668890539
 20
7.53652554449456
 30
0.0
 10
3.31832069249652
 20
7.59342853731699
 30
0.0
 10
3.37738849878133
 20
7.56497704090577
 30
0.0
 10
3.34785459563893
 20
7.62188406682623
 30
0.0
 10
3.40692240192267
 20
7.593430553866
 30
0.0
 10
3.3773884987808
 20
7.65033354668843
 30
0.0
 10
3.4512263965365
 20
7.62188205027722
 30
0.0
 10
3.41430744765865
 20
7.67878504309862
 30
0.0
 10
3.47337525394346
 20
7.65033354668792
 30
0.0
 10
3.44384135080105
 20
7.70724057260941
 30
0.0
 10
3.5029133436188
 20
7.67878705964867
 30
0.0
 10
3.47337734720992
 20
7.74991479240117
 30
0.0
 10
3.53244515349367
 20
7.71435092602492
 30
0.0
 10
3.5029112503518
 20
7.77125795194538
 30
0.0
 10
3.5619790566366
 20
7.74280443898515
 30
0.0
 10
3.5324451534942
 20
7.79970743180758
 30
0.0
 10
3.59151714631194
 20
7.77125593539636
 30
0.0
 10
3.56198114990307
 20
7.82815892821777
 30
0.0
 10
3.63581486112478
 20
7.79970743180707
 30
0.0
 10
3.59889800551392
 20
7.85661445772753
 30
0.0
 10
3.65796999833273
 20
7.8281609447673
 30
0.0
 10
3.62843400192333
 20
7.88506393758973
 30
0.0
 10
3.68750180820707
 20
7.85661244117851
 30
0.0
 10
3.6579679050652
 20
7.92774420703008
 30
0.0
 10
3.71703571135
 20
7.89217832410429
 30
0.0
 10
3.6875018082076
 20
7.9490813169257
 30
0.0
 10
3.74657380102534
 20
7.920629820515
 30
0.0
 10
3.71703780461647
 20
7.97753684643649
 30
0.0
 10
3.77610561090128
 20
7.94908333347574
 30
0.0
 10
3.74657170775887
 20
8.00598632629715
 30
0.0
 10
3.82040960551458
 20
7.97753482988645
 30
0.0
 10
3.78349065663673
 20
8.03443782270887
 30
0.0
 10
3.84255846292047
 20
8.00598632629766
 30
0.0
 10
3.8130245597786
 20
8.06289335221813
 30
0.0
 10
3.8720923660634
 20
8.03443983925789
 30
0.0
 10
3.842558462921
 20
8.10556757201039
 30
0.0
 10
3.90163045573874
 20
8.07000370563414
 30
0.0
 10
3.87209445932987
 20
8.12691073155563
 30
0.0
 10
3.93116226561361
 20
8.09845721859489
 30
0.0
 10
3.90162836247174
 20
8.1553602114163
 30
0.0
 10
3.96070035529054
 20
8.12690871500559
 30
0.0
 10
3.93116435888114
 20
8.18381170782802
 30
0.0
 10
4.00499807010285
 20
8.15536021141681
 30
0.0
 10
3.968081214492
 20
8.21226723733727
 30
0.0
 10
4.02715320730974
 20
8.18381372437704
 30
0.0
 10
3.99761721090087
 20
8.24071671719845
 30
0.0
 10
4.05668501718568
 20
8.21226522078774
 30
0.0
 10
4.02715111404327
 20
8.28339698663931
 30
0.0
 10
4.08621892032702
 20
8.24783110371352
 30
0.0
 10
4.05668501718514
 20
8.30473409653595
 30
0.0
 10
4.11575701000395
 20
8.27628260012474
 30
0.0
 10
4.08622101359455
 20
8.33318559294614
 30
0.0
 10
4.14528881987829
 20
8.30473409653544
 30
0.0
 10
4.11575491673642
 20
8.36164112245694
 30
0.0
 10
4.18959281449213
 20
8.33318760949619
 30
0.0
 10
4.15267386561427
 20
8.39009060231759
 30
0.0
 10
4.21174167189908
 20
8.36163910590689
 30
0.0
 10
4.18220776875668
 20
8.41854209872932
 30
0.0
 10
4.24127557504042
 20
8.3900906023181
 30
0.0
 10
4.21174167189855
 20
8.46122236816967
 30
0.0
 10
4.27081366471629
 20
8.42565648524389
 30
0.0
 10
4.24127766830742
 20
8.48255947806529
 30
0.0
 10
4.30034547459223
 20
8.45410798165459
 30
0.0
 10
4.27081157144982
 20
8.51101500757608
 30
0.0
 10
4.32987937773356
 20
8.48256149461534
 30
0.0
 10
4.30034547459169
 20
8.53946448743674
 30
0.0
 10
4.3741833723474
 20
8.51101299102604
 30
0.0
 10
4.33726442346955
 20
8.56791598384847
 30
0.0
 10
4.39633222975436
 20
8.53946448743725
 30
0.0
 10
4.36679832661195
 20
8.59637151335772
 30
0.0
 10
4.42587031942969
 20
8.56791800039749
 30
0.0
 10
4.39633432302082
 20
8.63904976624905
 30
0.0
 10
4.45540212930563
 20
8.60348388332327
 30
0.0
 10
4.42586822616323
 20
8.66038687614467
 30
0.0
 10
4.48493603244697
 20
8.63193537973397
 30
0.0
 10
4.4554021293051
 20
8.6888383725564
 30
0.0
 10
4.5144741221239
 20
8.66038687614518
 30
0.0
 10
4.4849381257145
 20
8.71729390206565
 30
0.0
 10
4.55877183693621
 20
8.68884038910542
 30
0.0
 10
4.52185498132536
 20
8.74574338192784
 30
0.0
 10
4.5809269741431
 20
8.71729188551663
 30
0.0
 10
4.55139097773423
 20
8.77419487833804
 30
0.0
 10
4.61045878401903
 20
8.74574338192733
 30
0.0
 10
4.58092488087663
 20
8.81687514777889
 30
0.0
 10
4.63999268716037
 20
8.78130926485311
 30
0.0
 10
4.6104587840185
 20
8.83821225767554
 30
0.0
 10
4.66953077683731
 20
8.80976076126433
 30
0.0
 10
4.6399947804279
 20
8.86666778718479
 30
0.0
 10
4.69906258671165
 20
8.83821427422456
 30
0.0
 10
4.66952868356977
 20
8.89511726704699
 30
0.0
 10
4.74336658132548
 20
8.86666577063578
 30
0.0
 10
4.70644763244763
 20
8.92356876345718
 30
0.0
 10
4.76551543873137
 20
8.89511726704648
 30
0.0
 10
4.7359815355895
 20
8.95202429296796
 30
0.0
 10
4.7950535284083
 20
8.92357078000722
 30
0.0
 10
4.7655175319989
 20
8.99469851275973
 30
0.0
 10
4.82458533828265
 20
8.95913464638347
 30
0.0
 10
4.79505143514077
 20
9.01604167230394
 30
0.0
 10
4.85411924142558
 20
8.98758815934371
 30
0.0
 10
4.82458533828318
 20
9.15830117090801
 30
0.0
 10
4.76551753199837
 20
9.07294466512586
 30
0.0
 10
4.79257719362785
 20
9.0993211321371
 30
0.0
 10
4.7655175319989
 20
9.17252792738863
 30
0.0
 10
4.7064455391801
 20
9.13696204446285
 30
0.0
 10
4.73350729407605
 20
9.16333851147306
 30
0.0
 10
4.70644763244763
 20
9.22231653369599
 30
0.0
 10
4.63260973469192
 20
9.19386503728477
 30
0.0
 10
4.66952868356977
 20
9.25077206320523
 30
0.0
 10
4.61046087728603
 20
9.222318550245
 30
0.0
 10
4.6399947804279
 20
9.27922154306743
 30
0.0
 10
4.5809227876091
 20
9.25077004665621
 30
0.0
 10
4.60798454250558
 20
9.27715054676549
 30
0.0
 10
4.58635481529786
 20
9.31369445618268
 30
0.0
 10
4.55139097773423
 20
9.37169445191419
 30
0.0
 10
4.49231898491649
 20
9.34324093895344
 30
0.0
 10
4.52185498132536
 20
9.40014393177484
 30
0.0
 10
4.44802127010364
 20
9.37169243536414
 30
0.0
 10
4.48245969766651
 20
9.39806890237538
 30
0.0
 10
4.4554021293051
 20
9.45705095769583
 30
0.0
 10
4.39633432302135
 20
9.42859744473559
 30
0.0
 10
4.42586822616323
 20
9.48550043755699
 30
0.0
 10
4.36680041987842
 20
9.45704894114629
 30
0.0
 10
4.39633432302082
 20
9.52818070699786
 30
0.0
 10
4.33726233020308
 20
9.49261482407208
 30
0.0
 10
4.36111092035783
 20
9.51739418390663
 30
0.0
 10
4.30034547459222
 20
9.56374457337462
 30
0.0
 10
4.31338862084435
 20
9.52106632048329
 30
0.0
 10
4.29296252212324
 20
9.52106632048329
 30
0.0
  0
SPLINE
  5
7F
102
{ACAD_REACTORS
330
73
102
}
330
1F
100
AcDbEntity
  8
Layer 1
100
AcDbSpline
210
0.0
220
0.0
230
1.0
 70
    11
 71
     3
 72
    42
 73
    38
 74
     0
 42
0.000000001
 43
0.0000000001
 40
0.0
 40
0.0
 40
0.0
 40
0.0
 40
0.0285714285714286
 40
0.0571428571428571
 40
0.0857142857142857
 40
0.1142857142857143
 40
0.1428571428571428
 40
0.1714285714285714
 40
0.2
 40
0.2285714285714286
 40
0.2571428571428572
 40
0.2857142857142858
 40
0.3142857142857143
 40
0.3428571428571429
 40
0.3714285714285715
 40
0.4000000000000001
 40
0.4285714285714287
 40
0.4571428571428572
 40
0.4857142857142858
 40
0.5142857142857143
 40
0.5428571428571429
 40
0.5714285714285715
 40
0.6000000000000001
 40
0.6285714285714287
 40
0.6571428571428573
 40
0.6857142857142858
 40
0.7142857142857144
 40
0.742857142857143
 40
0.7714285714285716
 40
0.8000000000000002
 40
0.8285714285714287
 40
0.8571428571428573
 40
0.8857142857142859
 40
0.9142857142857145
 40
0.9428571428571431
 40
0.9714285714285716
 40
1.0
 40
1.0
 40
1.0
 40
1.0
 10
15.4348990838765
 20
8.02732545274332
 30
0.0
 10
15.4348990838765
 20
8.02732545274332
 30
0.0
 10
15.3758312775928
 20
8.49678623454592
 30
0.0
 10
14.9180442659205
 20
8.26205584364462
 30
0.0
 10
15.176273861174
 20
7.50788650898318
 30
0.0
 10
15.1850279034837
 20
7.79441398945987
 30
0.0
 10
15.1762968871105
 20
4.69113996711188
 30
0.0
 10
15.5875631344868
 20
6.22657097850565
 30
0.0
 10
15.4422841296125
 20
7.79970743180706
 30
0.0
 10
15.5522664674815
 20
6.83705108099068
 30
0.0
 10
15.8778783252714
 20
6.75988781568743
 30
0.0
 10
15.8336161959959
 20
6.86551266014955
 30
0.0
 10
15.5644157887532
 20
7.08073293496964
 30
0.0
 10
15.5629107298305
 20
7.12385684529331
 30
0.0
 10
15.4668423372575
 20
7.62028897619959
 30
0.0
 10
15.4841076029113
 20
7.83731406279234
 30
0.0
 10
15.5488753750512
 20
7.93921635694006
 30
0.0
 10
15.6082592646427
 20
7.98835765086922
 30
0.0
 10
15.9999974248112
 20
8.14276081035479
 30
0.0
 10
16.1933671441791
 20
7.94886554613314
 30
0.0
 10
16.2943547140415
 20
7.76516393946031
 30
0.0
 10
16.280430302411
 20
7.09326578989972
 30
0.0
 10
16.1837904479659
 20
7.15088869088035
 30
0.0
 10
16.1762714331468
 20
7.14158433164617
 30
0.0
 10
16.173102227011
 20
7.13750485207721
 30
0.0
 10
16.1698095181276
 20
7.13354233237742
 30
0.0
 10
15.8936427185354
 20
6.95393835421778
 30
0.0
 10
15.9326758670141
 20
6.91492013860696
 30
0.0
 10
15.9481597625103
 20
6.79376181361117
 30
0.0
 10
16.5643421896513
 20
7.05389467813186
 30
0.0
 10
16.5943219586496
 20
7.5175719960673
 30
0.0
 10
16.3793664706794
 20
8.26299757224551
 30
0.0
 10
16.1263993484941
 20
8.29154787957961
 30
0.0
 10
15.7594140697946
 20
8.30507489339529
 30
0.0
 10
15.5310072485214
 20
8.16763091491564
 30
0.0
 10
15.4648076817995
 20
8.08088702310077
 30
0.0
 10
15.4415807919232
 20
8.05143128505579
 30
0.0
 10
15.4348990838765
 20
8.02732545274332
 30
0.0
  0
SPLINE
  5
80
102
{ACAD_REACTORS
330
73
102
}
330
1F
100
AcDbEntity
  8
Layer 1
100
AcDbSpline
210
0.0
220
0.0
230
1.0
 70
    11
 71
     3
 72
    40
 73
    36
 74
     0
 42
0.000000001
 43
0.0000000001
 40
0.0
 40
0.0
 40
0.0
 40
0.0
 40
0.0303030303030303
 40
0.0606060606060606
 40
0.0909090909090909
 40
0.1212121212121212
 40
0.1515151515151515
 40
0.1818181818181818
 40
0.2121212121212121
 40
0.2424242424242424
 40
0.2727272727272727
 40
0.303030303030303
 40
0.3333333333333333
 40
0.3636363636363635
 40
0.3939393939393938
 40
0.4242424242424241
 40
0.4545454545454544
 40
0.4848484848484846
 40
0.5151515151515149
 40
0.5454545454545452
 40
0.5757575757575755
 40
0.6060606060606057
 40
0.636363636363636
 40
0.6666666666666663
 40
0.6969696969696966
 40
0.7272727272727268
 40
0.7575757575757571
 40
0.7878787878787874
 40
0.8181818181818177
 40
0.848484848484848
 40
0.8787878787878782
 40
0.9090909090909085
 40
0.9393939393939388
 40
0.9696969696969691
 40
1.0
 40
1.0
 40
1.0
 40
1.0
 10
10.5321518460675
 20
8.32607322298111
 30
0.0
 10
10.5321518460675
 20
8.183987147631
 30
0.0
 10
10.6073545538629
 20
7.9654173841478
 30
0.0
 10
10.8916453224183
 20
7.81110698593652
 30
0.0
 10
10.9512573781042
 20
7.79487174618785
 30
0.0
 10
11.0449896847808
 20
7.75511144037451
 30
0.0
 10
11.1218837522571
 20
7.73411714388723
 30
0.0
 10
11.2939900661309
 20
7.65734105608148
 30
0.0
 10
11.4814232804802
 20
7.49074180542662
 30
0.0
 10
11.4572418608822
 20
7.00365033164503
 30
0.0
 10
11.0526510417511
 20
6.98330939718505
 30
0.0
 10
10.7498118349131
 20
7.05440688169614
 30
0.0
 10
10.4881618414945
 20
7.19470024457076
 30
0.0
 10
10.3782883535052
 20
6.94615245673169
 30
0.0
 10
11.7256886920298
 20
6.73572753653918
 30
0.0
 10
11.5295705131807
 20
6.93674928657309
 30
0.0
 10
11.5742868813794
 20
6.97219215998112
 30
0.0
 10
11.8178008101014
 20
7.36671393054106
 30
0.0
 10
11.6967304372935
 20
7.63904086967998
 30
0.0
 10
11.5474784117829
 20
7.77673086719565
 30
0.0
 10
11.2621431030286
 20
7.95537900090718
 30
0.0
 10
10.4881011367531
 20
8.15969377621888
 30
0.0
 10
10.8544416892376
 20
8.53068644761304
 30
0.0
 10
11.0290138715569
 20
8.63971522757301
 30
0.0
 10
11.5376923888763
 20
8.62230433948563
 30
0.0
 10
11.607873349302
 20
8.52175111693059
 30
0.0
 10
11.7380054746567
 20
8.9726152795615
 30
0.0
 10
10.7317595008921
 20
8.89921691211022
 30
0.0
 10
10.8443019042188
 20
8.77472523084758
 30
0.0
 10
10.7370784921667
 20
8.72378517479639
 30
0.0
 10
10.6597280924995
 20
8.65927979048845
 30
0.0
 10
10.6033061756168
 20
8.57519774396892
 30
0.0
 10
10.5780571898839
 20
8.52689130151913
 30
0.0
 10
10.5558078556653
 20
8.47364834597721
 30
0.0
 10
10.5321518460675
 20
8.37263131704456
 30
0.0
 10
10.5321518460675
 20
8.32607322298111
 30
0.0
  0
SPLINE
  5
81
102
{ACAD_REACTORS
330
73
102
}
330
1F
100
AcDbEntity
  8
Layer 1
100
AcDbSpline
210
0.0
220
0.0
230
1.0
 70
    11
 71
     3
 72
    32
 73
    28
 74
     0
 42
0.000000001
 43
0.0000000001
 40
0.0
 40
0.0
 40
0.0
 40
0.0
 40
0.04
 40
0.08
 40
0.12
 40
0.16
 40
0.2
 40
0.24
 40
0.28
 40
0.32
 40
0.36
 40
0.4
 40
0.4399999999999999
 40
0.4799999999999999
 40
0.5199999999999999
 40
0.5599999999999999
 40
0.6
 40
0.64
 40
0.68
 40
0.7200000000000001
 40
0.7600000000000001
 40
0.8000000000000002
 40
0.8400000000000002
 40
0.8800000000000002
 40
0.9200000000000003
 40
0.9600000000000003
 40
1.0
 40
1.0
 40
1.0
 40
1.0
 10
13.37485857799
 20
7.58631616735144
 30
0.0
 10
13.37485857799
 20
7.45081614255589
 30
0.0
 10
13.3741217480298
 20
7.23778382390537
 30
0.0
 10
13.4766562421549
 20
7.11298562712386
 30
0.0
 10
14.0277234148449
 20
6.67434578735362
 30
0.0
 10
13.9877022443741
 20
7.21643864781111
 30
0.0
 10
13.7287944306358
 20
7.21252452529851
 30
0.0
 10
13.6377310392971
 20
8.06262111804077
 30
0.0
 10
14.4197232333802
 20
8.17873605282291
 30
0.0
 10
14.4463265628183
 20
7.93566319678107
 30
0.0
 10
14.6185354467713
 20
6.98567884280722
 30
0.0
 10
14.3687082249833
 20
7.09123915768591
 30
0.0
 10
14.1013122138362
 20
6.95608799594833
 30
0.0
 10
14.0763060470678
 20
6.59760398088938
 30
0.0
 10
14.4109482584022
 20
6.82585519835711
 30
0.0
 10
14.6441612205517
 20
7.01049651708182
 30
0.0
 10
14.6482891429411
 20
7.02909313625402
 30
0.0
 10
14.7033127575133
 20
7.08898667193342
 30
0.0
 10
14.8846085132187
 20
8.13362584127552
 30
0.0
 10
14.5792929715997
 20
8.16333969765216
 30
0.0
 10
14.6378981658916
 20
8.08299633384123
 30
0.0
 10
14.1652824512745
 20
8.38268784922943
 30
0.0
 10
13.7120566682476
 20
8.26389493675776
 30
0.0
 10
13.5592146899489
 20
8.07734596223896
 30
0.0
 10
13.6107258026091
 20
8.11472673968352
 30
0.0
 10
13.5701855019391
 20
8.07867285178731
 30
0.0
 10
13.37485857799
 20
7.75423424135653
 30
0.0
 10
13.37485857799
 20
7.58631616735144
 30
0.0
  0
SPLINE
  5
82
102
{ACAD_REACTORS
330
73
102
}
330
1F
100
AcDbEntity
  8
Layer 1
100
AcDbSpline
210
0.0
220
0.0
230
1.0
 70
    11
 71
     3
 72
    36
 73
    32
 74
     0
 42
0.000000001
 43
0.0000000001
 40
0.0
 40
0.0
 40
0.0
 40
0.0
 40
0.0344827586206897
 40
0.0689655172413793
 40
0.103448275862069
 40
0.1379310344827586
 40
0.1724137931034483
 40
0.206896551724138
 40
0.2413793103448276
 40
0.2758620689655173
 40
0.310344827586207
 40
0.3448275862068966
 40
0.3793103448275863
 40
0.413793103448276
 40
0.4482758620689656
 40
0.4827586206896553
 40
0.517241379310345
 40
0.5517241379310346
 40
0.5862068965517242
 40
0.6206896551724138
 40
0.6551724137931034
 40
0.689655172413793
 40
0.7241379310344827
 40
0.7586206896551723
 40
0.7931034482758619
 40
0.8275862068965515
 40
0.8620689655172411
 40
0.8965517241379307
 40
0.9310344827586203
 40
0.9655172413793099
 40
1.0
 40
1.0
 40
1.0
 40
1.0
 10
16.8156430713586
 20
7.58631616735144
 30
0.0
 10
16.8156430713586
 20
7.39785348738996
 30
0.0
 10
16.8282361652209
 20
7.09444345478744
 30
0.0
 10
16.9622617670697
 20
7.03965783890461
 30
0.0
 10
17.1246783483161
 20
6.87529090850795
 30
0.0
 10
17.8676729794574
 20
6.80847052541414
 30
0.0
 10
18.088801511609
 20
6.88778343244794
 30
0.0
 10
17.9751747960124
 20
7.18655136818102
 30
0.0
 10
17.2316128895315
 20
6.95392625492111
 30
0.0
 10
16.9933446877412
 20
7.49514191636063
 30
0.0
 10
17.7829019485164
 20
7.49384729160374
 30
0.0
 10
17.4284867377433
 20
7.86372682769359
 30
0.0
 10
16.8230260238276
 20
7.67878705964867
 30
0.0
 10
17.0886929964889
 20
7.69244716572873
 30
0.0
 10
17.194737899259
 20
8.03197359926135
 30
0.0
 10
17.2638261743463
 20
8.03657738169125
 30
0.0
 10
17.2579692134711
 20
8.0240021792236
 30
0.0
 10
17.8224751598643
 20
8.13492248258245
 30
0.0
 10
17.7479967224277
 20
8.00792624688372
 30
0.0
 10
17.9084393529564
 20
7.68587523102087
 30
0.0
 10
17.3500876113427
 20
7.68406638615018
 30
0.0
 10
17.4833721966978
 20
7.41330025629691
 30
0.0
 10
18.7058610175953
 20
7.49384729160374
 30
0.0
 10
18.1373171592895
 20
7.79259506184203
 30
0.0
 10
17.9926158960883
 20
8.16929456822426
 30
0.0
 10
17.9193201544688
 20
8.16265608738346
 30
0.0
 10
17.8214871378722
 20
8.23112399139118
 30
0.0
 10
16.9721064014506
 20
8.27406036261418
 30
0.0
 10
17.0734561064916
 20
8.14084912146164
 30
0.0
 10
17.0579156927896
 20
8.12824568730159
 30
0.0
 10
16.8156430713586
 20
7.7596022960343
 30
0.0
 10
16.8156430713586
 20
7.58631616735144
 30
0.0
  0
SPLINE
  5
83
102
{ACAD_REACTORS
330
73
102
}
330
1F
100
AcDbEntity
  8
Layer 1
100
AcDbSpline
210
0.0
220
0.0
230
1.0
 70
    11
 71
     3
 72
    35
 73
    31
 74
     0
 42
0.000000001
 43
0.0000000001
 40
0.0
 40
0.0
 40
0.0
 40
0.0
 40
0.0357142857142857
 40
0.0714285714285714
 40
0.1071428571428571
 40
0.1428571428571428
 40
0.1785714285714285
 40
0.2142857142857142
 40
0.2499999999999999
 40
0.2857142857142856
 40
0.3214285714285713
 40
0.357142857142857
 40
0.3928571428571427
 40
0.4285714285714284
 40
0.4642857142857141
 40
0.4999999999999998
 40
0.5357142857142856
 40
0.5714285714285713
 40
0.607142857142857
 40
0.6428571428571427
 40
0.6785714285714284
 40
0.7142857142857141
 40
0.7499999999999998
 40
0.7857142857142855
 40
0.8214285714285712
 40
0.8571428571428569
 40
0.8928571428571426
 40
0.9285714285714283
 40
0.964285714285714
 40
1.0
 40
1.0
 40
1.0
 40
1.0
 10
11.949814782428
 20
10.2892748725242
 30
0.0
 10
11.949814782428
 20
10.1115644343134
 30
0.0
 10
11.9751098200322
 20
9.7953977097917
 30
0.0
 10
12.096626058696
 20
9.75581486033036
 30
0.0
 10
12.2755229304973
 20
9.58395644866877
 30
0.0
 10
13.0364547659788
 20
9.50670647173828
 30
0.0
 10
13.085096009675
 20
9.56440398504948
 30
0.0
 10
13.1993716380215
 20
9.61182516228471
 30
0.0
 10
13.1509899594241
 20
9.83990295649797
 30
0.0
 10
12.3173129115257
 20
9.6448380935862
 30
0.0
 10
12.1169684267404
 20
10.1800948513551
 30
0.0
 10
12.9613734676651
 20
10.2110327532566
 30
0.0
 10
12.6143433026274
 20
10.2549330351243
 30
0.0
 10
12.599575304423
 20
10.4955517504652
 30
0.0
 10
11.831677076593
 20
10.395970504752
 30
0.0
 10
12.5271964137193
 20
11.0722889307414
 30
0.0
 10
13.1152641726973
 20
10.4733616401455
 30
0.0
 10
12.3780657976904
 20
10.395970504752
 30
0.0
 10
12.7053104036868
 20
10.3374542723582
 30
0.0
 10
13.8400285421302
 20
10.2110327532566
 30
0.0
 10
13.2707436673307
 20
10.2353987204497
 30
0.0
 10
13.2641038246229
 20
10.4742126240191
 30
0.0
 10
13.1111697425794
 20
10.917514726154
 30
0.0
 10
12.9795472111677
 20
10.9495153496242
 30
0.0
 10
12.081692692404
 20
11.000398942291
 30
0.0
 10
12.1844281401552
 20
10.8421764381172
 30
0.0
 10
12.1607156123501
 20
10.8160480066905
 30
0.0
 10
12.1315061655824
 20
10.7828697183316
 30
0.0
 10
12.0130837754446
 20
10.6032193595354
 30
0.0
 10
11.949814782428
 20
10.3820482472412
 30
0.0
 10
11.949814782428
 20
10.2892748725242
 30
0.0
  0
SPLINE
  5
84
102
{ACAD_REACTORS
330
73
102
}
330
1F
100
AcDbEntity
  8
Layer 1
100
AcDbSpline
210
0.0
220
0.0
230
1.0
 70
    11
 71
     3
 72
    28
 73
    24
 74
     0
 42
0.000000001
 43
0.0000000001
 40
0.0
 40
0.0
 40
0.0
 40
0.0
 40
0.0476190476190476
 40
0.0952380952380952
 40
0.1428571428571428
 40
0.1904761904761905
 40
0.2380952380952381
 40
0.2857142857142857
 40
0.3333333333333333
 40
0.3809523809523809
 40
0.4285714285714285
 40
0.4761904761904762
 40
0.5238095238095237
 40
0.5714285714285714
 40
0.6190476190476191
 40
0.6666666666666667
 40
0.7142857142857144
 40
0.7619047619047621
 40
0.8095238095238098
 40
0.8571428571428574
 40
0.9047619047619051
 40
0.9523809523809528
 40
1.0
 40
1.0
 40
1.0
 40
1.0
 10
9.18832680746323
 20
10.2892748725242
 30
0.0
 10
9.18832680746323
 20
10.0976361271546
 30
0.0
 10
9.20827564132454
 20
9.83965088781438
 30
0.0
 10
9.87860879072628
 20
9.40719782180556
 30
0.0
 10
10.3203174190938
 20
9.52459729859796
 30
0.0
 10
10.4332324239335
 20
9.59188552116792
 30
0.0
 10
10.339472904788
 20
9.92128282673413
 30
0.0
 10
9.55487668664126
 20
9.65768149713266
 30
0.0
 10
9.35542812010219
 20
10.1810648116478
 30
0.0
 10
10.1703515895584
 20
10.2110327532566
 30
0.0
 10
9.80855342631632
 20
10.5809082562474
 30
0.0
 10
9.09972300477009
 20
10.395970504752
 30
0.0
 10
9.74876972274182
 20
11.0487739474228
 30
0.0
 10
10.1323148361388
 20
10.788594702265
 30
0.0
 10
10.269231239621
 20
10.4152910651825
 30
0.0
 10
9.57227382811122
 20
10.395970504752
 30
0.0
 10
9.90454018147845
 20
10.0260950017612
 30
0.0
 10
11.0859256129009
 20
10.2110327532566
 30
0.0
 10
10.5092577856339
 20
10.2353987204497
 30
0.0
 10
10.5026179429256
 20
10.4742126240191
 30
0.0
 10
10.3462885819173
 20
10.925149382431
 30
0.0
 10
9.97190779114797
 20
11.0440511885747
 30
0.0
 10
9.18832680746323
 20
10.6396785738743
 30
0.0
 10
9.18832680746323
 20
10.2892748725242
 30
0.0
  0
SPLINE
  5
85
102
{ACAD_REACTORS
330
73
102
}
330
1F
100
AcDbEntity
  8
Layer 1
100
AcDbSpline
210
0.0
220
0.0
230
1.0
 70
    11
 71
     3
 72
    30
 73
    26
 74
     0
 42
0.000000001
 43
0.0000000001
 40
0.0
 40
0.0
 40
0.0
 40
0.0
 40
0.0434782608695652
 40
0.0869565217391304
 40
0.1304347826086956
 40
0.1739130434782609
 40
0.2173913043478261
 40
0.2608695652173913
 40
0.3043478260869565
 40
0.3478260869565217
 40
0.3913043478260869
 40
0.4347826086956521
 40
0.4782608695652173
 40
0.5217391304347825
 40
0.5652173913043477
 40
0.6086956521739129
 40
0.652173913043478
 40
0.6956521739130432
 40
0.7391304347826084
 40
0.7826086956521736
 40
0.8260869565217388
 40
0.869565217391304
 40
0.9130434782608692
 40
0.9565217391304344
 40
1.0
 40
1.0
 40
1.0
 40
1.0
 10
16.0255917995877
 20
10.2892748725242
 30
0.0
 10
16.0255917995877
 20
10.1115644343134
 30
0.0
 10
16.050886837193
 20
9.7953977097917
 30
0.0
 10
16.4816623323752
 20
9.46250774055036
 30
0.0
 10
16.4146108060123
 20
9.57570069515648
 30
0.0
 10
17.1122338764049
 20
9.50670647173828
 30
0.0
 10
17.2498975761813
 20
9.61473504316355
 30
0.0
 10
17.2267711631178
 20
9.83990295649797
 30
0.0
 10
16.3930941152194
 20
9.6448380935862
 30
0.0
 10
16.1927475371671
 20
10.1800948513551
 30
0.0
 10
17.0371525780928
 20
10.2110327532566
 30
0.0
 10
16.628756199679
 20
10.2143721591715
 30
0.0
 10
15.951753901832
 20
10.395970504752
 30
0.0
 10
16.6029734308789
 20
11.0722889307414
 30
0.0
 10
17.1910432831246
 20
10.4733616401455
 30
0.0
 10
16.3652411054229
 20
10.395970504752
 30
0.0
 10
16.7835511960265
 20
10.2687322831178
 30
0.0
 10
17.9084267933544
 20
10.2110327532566
 30
0.0
 10
17.3465227777584
 20
10.2353987204497
 30
0.0
 10
17.3398829350501
 20
10.4742126240191
 30
0.0
 10
16.8905883073211
 20
11.3213146408058
 30
0.0
 10
16.2717788301811
 20
10.9622397767529
 30
0.0
 10
16.2602072505819
 20
10.8421764381172
 30
0.0
 10
16.1083721336766
 20
10.6547663969762
 30
0.0
 10
16.0255917995877
 20
10.4304373682192
 30
0.0
 10
16.0255917995877
 20
10.2892748725242
 30
0.0
  0
SPLINE
  5
86
102
{ACAD_REACTORS
330
73
102
}
330
1F
100
AcDbEntity
  8
Layer 1
100
AcDbSpline
210
0.0
220
0.0
230
1.0
 70
    11
 71
     3
 72
    24
 73
    20
 74
     0
 42
0.000000001
 43
0.0000000001
 40
0.0
 40
0.0
 40
0.0
 40
0.0
 40
0.0588235294117647
 40
0.1176470588235294
 40
0.1764705882352941
 40
0.2352941176470588
 40
0.2941176470588235
 40
0.3529411764705883
 40
0.411764705882353
 40
0.4705882352941177
 40
0.5294117647058824
 40
0.5882352941176471
 40
0.6470588235294118
 40
0.7058823529411765
 40
0.7647058823529412
 40
0.823529411764706
 40
0.8823529411764707
 40
0.9411764705882354
 40
1.0
 40
1.0
 40
1.0
 40
1.0
 10
15.050949969961
 20
9.54240544692895
 30
0.0
 10
15.050949969961
 20
9.54240544692895
 30
0.0
 10
15.5973386910589
 20
9.54240544692895
 30
0.0
 10
15.3618775602243
 20
9.64140592639544
 30
0.0
 10
16.4453567107083
 20
12.3246710094869
 30
0.0
 10
15.3241443305099
 20
10.9792413052975
 30
0.0
 10
15.4700743414001
 20
10.59414690349
 30
0.0
 10
14.9095079233723
 20
8.98869726154946
 30
0.0
 10
15.2343871377371
 20
9.84320808107192
 30
0.0
 10
15.134716232775
 20
9.98305175341719
 30
0.0
 10
14.836120078007
 20
10.7885785698698
 30
0.0
 10
14.8663970909106
 20
10.742387487809
 30
0.0
 10
14.8395467559752
 20
10.8310995319023
 30
0.0
 10
14.7325640696194
 20
11.1277581568934
 30
0.0
 10
14.1944437529033
 20
10.9792413052975
 30
0.0
 10
15.1901396613301
 20
9.19280836536476
 30
0.0
 10
14.9115551384324
 20
9.9125672999433
 30
0.0
 10
15.1228285698685
 20
9.36980897816288
 30
0.0
 10
15.0488253040252
 20
9.56700533386045
 30
0.0
 10
15.050949969961
 20
9.54240544692895
 30
0.0
  0
SPLINE
  5
87
102
{ACAD_REACTORS
330
73
102
}
330
1F
100
AcDbEntity
  8
Layer 1
100
AcDbSpline
210
0.0
220
0.0
230
1.0
 70
    11
 71
     3
 72
    26
 73
    22
 74
     0
 42
0.000000001
 43
0.0000000001
 40
0.0
 40
0.0
 40
0.0
 40
0.0
 40
0.0526315789473684
 40
0.1052631578947368
 40
0.1578947368421053
 40
0.2105263157894737
 40
0.2631578947368421
 40
0.3157894736842105
 40
0.3684210526315789
 40
0.4210526315789473
 40
0.4736842105263158
 40
0.5263157894736842
 40
0.5789473684210527
 40
0.631578947368421
 40
0.6842105263157894
 40
0.7368421052631577
 40
0.7894736842105261
 40
0.8421052631578945
 40
0.8947368421052628
 40
0.9473684210526312
 40
1.0
 40
1.0
 40
1.0
 40
1.0
 10
10.7758123034741
 20
10.6235885256882
 30
0.0
 10
10.7758123034741
 20
10.4701916243849
 30
0.0
 10
10.8340804817908
 20
10.3309246851874
 30
0.0
 10
11.0892183217854
 20
10.2028798437673
 30
0.0
 10
11.4819507837469
 20
10.1073397631834
 30
0.0
 10
11.4441149839523
 20
9.70574595364753
 30
0.0
 10
11.3019989054118
 20
9.72630870854866
 30
0.0
 10
10.804517272912
 20
9.79274594724351
 30
0.0
 10
10.6852387365977
 20
9.53413154447141
 30
0.0
 10
10.766832188336
 20
9.59522291053333
 30
0.0
 10
10.8081030391657
 20
9.5728089632229
 30
0.0
 10
10.892340287039
 20
9.54540808908311
 30
0.0
 10
12.2121681135364
 20
9.60991750648909
 30
0.0
 10
11.1067661784745
 20
10.4009453322842
 30
0.0
 10
10.9057727809407
 20
10.674849213105
 30
0.0
 10
11.5345797009484
 20
10.8090727620889
 30
0.0
 10
11.6019954557568
 20
10.7091003057791
 30
0.0
 10
11.7283031824279
 20
11.114388433936
 30
0.0
 10
11.5772676934907
 20
10.9843754402364
 30
0.0
 10
10.6204228193185
 20
10.9895983033531
 30
0.0
 10
10.7758123034741
 20
10.6830948838701
 30
0.0
 10
10.7758123034741
 20
10.6235885256882
 30
0.0
  0
SPLINE
  5
88
102
{ACAD_REACTORS
330
73
102
}
330
1F
100
AcDbEntity
  8
Layer 1
100
AcDbSpline
210
0.0
220
0.0
230
1.0
 70
    11
 71
     3
 72
    23
 73
    19
 74
     0
 42
0.000000001
 43
0.0000000001
 40
0.0
 40
0.0
 40
0.0
 40
0.0
 40
0.0625
 40
0.125
 40
0.1875
 40
0.25
 40
0.3125
 40
0.375
 40
0.4375
 40
0.5
 40
0.5625
 40
0.625
 40
0.6875
 40
0.75
 40
0.8125
 40
0.875
 40
0.9375
 40
1.0
 40
1.0
 40
1.0
 40
1.0
 10
12.0162676344478
 20
7.58631616735144
 30
0.0
 10
12.0162676344478
 20
7.34887351741861
 30
0.0
 10
12.062847010216
 20
7.0312750427755
 30
0.0
 10
12.5879199941465
 20
6.77535475008917
 30
0.0
 10
13.0082814863421
 20
6.80813779475242
 30
0.0
 10
13.2141228900905
 20
6.88056015226181
 30
0.0
 10
13.1178640102265
 20
7.18959837442329
 30
0.0
 10
13.0253981300448
 20
7.03175296499931
 30
0.0
 10
12.4942902575496
 20
6.99664483880151
 30
0.0
 10
12.5018678838426
 20
7.10030959718226
 30
0.0
 10
12.3019106534403
 20
8.51237214536533
 30
0.0
 10
13.1732790657152
 20
8.07471234863705
 30
0.0
 10
13.1321128782327
 20
8.01379440582807
 30
0.0
 10
13.2436735393673
 20
8.37941498944643
 30
0.0
 10
12.696039324446
 20
8.33613378826503
 30
0.0
 10
12.3821665076093
 20
8.27139650076932
 30
0.0
 10
12.32252933272
 20
8.15851006168206
 30
0.0
 10
12.0162676344478
 20
7.76522040284562
 30
0.0
 10
12.0162676344478
 20
7.58631616735144
 30
0.0
  0
SPLINE
  5
89
102
{ACAD_REACTORS
330
73
102
}
330
1F
100
AcDbEntity
  8
Layer 1
100
AcDbSpline
210
0.0
220
0.0
230
1.0
 70
    11
 71
     3
 72
    20
 73
    16
 74
     0
 42
0.000000001
 43
0.0000000001
 40
0.0
 40
0.0
 40
0.0
 40
0.0
 40
0.0769230769230769
 40
0.1538461538461539
 40
0.2307692307692308
 40
0.3076923076923077
 40
0.3846153846153846
 40
0.4615384615384616
 40
0.5384615384615385
 40
0.6153846153846154
 40
0.6923076923076923
 40
0.7692307692307692
 40
0.846153846153846
 40
0.9230769230769229
 40
1.0
 40
1.0
 40
1.0
 40
1.0
 10
13.8400306353967
 20
10.6947182749903
 30
0.0
 10
13.8400306353967
 20
10.7497438602595
 30
0.0
 10
13.797340549588
 20
11.1436284011884
 30
0.0
 10
13.3453246748471
 20
10.9792413052975
 30
0.0
 10
13.6040859599013
 20
10.8372157264317
 30
0.0
 10
13.5958217420545
 20
10.6232174805865
 30
0.0
 10
13.611389368227
 20
10.2824065050441
 30
0.0
 10
13.6265090352756
 20
8.86371757531689
 30
0.0
 10
14.1427588990881
 20
9.54240544692895
 30
0.0
 10
13.8695645385391
 20
11.0219195581883
 30
0.0
 10
13.9522778880851
 20
10.6851941118635
 30
0.0
 10
14.4027259058943
 20
10.7184389463548
 30
0.0
 10
14.3421195484148
 20
11.2495375791245
 30
0.0
 10
13.7456619755731
 20
10.7621516891213
 30
0.0
 10
13.8400306353967
 20
10.6947182749903
 30
0.0
 10
13.8400306353967
 20
10.6947182749903
 30
0.0
  0
ENDSEC
  0
SECTION
  2
OBJECTS
  0
DICTIONARY
  5
C
330
0
100
AcDbDictionary
281
     1
  3
ACAD_DETAILVIEWSTYLE
350
8E
  3
ACAD_GROUP
350
D
  3
ACAD_LAYOUT
350
1A
  3
ACAD_MATERIAL
350
43
  3
ACAD_MLEADERSTYLE
350
8D
  3
ACAD_MLINESTYLE
350
17
  3
ACAD_PLOTSETTINGS
350
19
  3
ACAD_PLOTSTYLENAME
350
E
  3
ACAD_SCALELIST
350
47
  3
ACAD_SECTIONVIEWSTYLE
350
8F
  3
ACAD_TABLESTYLE
350
8C
  3
ACAD_VISUALSTYLE
350
2A
  3
AcDbVariableDictionary
350
8A
  3
ER_DRAWINGS
350
6A
  0
SUN
  5
69
330
29
100
AcDbSun
 90
        1
290
     0
 63
     7
421
 16777215
 40
1.0
291
     1
 91
  2455826
 92
 54000000
292
     0
 70
     2
 71
   256
280
     1
  0
DICTIONARY
  5
6F
330
6E
100
AcDbDictionary
280
     1
281
     1
  3
ER_DRAWING_ID
360
71
  3
ER_OBJECT_UID
360
70
  0
DICTIONARY
  5
8E
102
{ACAD_REACTORS
330
C
102
}
330
C
100
AcDbDictionary
281
     1
  0
DICTIONARY
  5
D
102
{ACAD_REACTORS
330
C
102
}
330
C
100
AcDbDictionary
281
     1
  3
EnRouteGroup80
350
73
  0
DICTIONARY
  5
1A
102
{ACAD_REACTORS
330
C
102
}
330
C
100
AcDbDictionary
281
     1
  3
Layout1
350
1E
  3
Layout2
350
26
  3
Model
350
22
  0
DICTIONARY
  5
43
102
{ACAD_REACTORS
330
C
102
}
330
C
100
AcDbDictionary
281
     1
  3
ByBlock
350
45
  3
ByLayer
350
44
  3
Global
350
46
  0
DICTIONARY
  5
8D
102
{ACAD_REACTORS
330
C
102
}
330
C
100
AcDbDictionary
281
     1
  0
DICTIONARY
  5
17
102
{ACAD_REACTORS
330
C
102
}
330
C
100
AcDbDictionary
281
     1
  3
Standard
350
18
  0
DICTIONARY
  5
19
102
{ACAD_REACTORS
330
C
102
}
330
C
100
AcDbDictionary
281
     1
  0
ACDBDICTIONARYWDFLT
  5
E
102
{ACAD_REACTORS
330
C
102
}
330
C
100
AcDbDictionary
281
     1
  3
Normal
350
F
100
AcDbDictionaryWithDefault
340
F
  0
DICTIONARY
  5
47
102
{ACAD_REACTORS
330
C
102
}
330
C
100
AcDbDictionary
281
     1
  3
A0
350
48
  3
A1
350
49
  3
A2
350
4A
  3
A3
350
4B
  3
A4
350
4C
  3
A5
350
4D
  3
A6
350
4E
  3
A7
350
4F
  3
A8
350
50
  3
A9
350
51
  3
B0
350
52
  3
B1
350
53
  3
B2
350
54
  3
B3
350
55
  3
B4
350
56
  3
B5
350
57
  3
B6
350
58
  3
B7
350
59
  3
B8
350
5A
  3
B9
350
5B
  3
C0
350
5C
  3
C1
350
5D
  3
C2
350
5E
  3
C3
350
5F
  3
C4
350
60
  3
C5
350
61
  3
C6
350
62
  3
C7
350
63
  3
C8
350
64
  3
C9
350
65
  3
D0
350
66
  3
D1
350
67
  3
D2
350
68
  0
DICTIONARY
  5
8F
102
{ACAD_REACTORS
330
C
102
}
330
C
100
AcDbDictionary
281
     1
  0
DICTIONARY
  5
8C
102
{ACAD_REACTORS
330
C
102
}
330
C
100
AcDbDictionary
281
     1
  0
DICTIONARY
  5
2A
102
{ACAD_REACTORS
330
C
102
}
330
C
100
AcDbDictionary
281
     1
  3
2dWireframe
350
2F
  3
Basic
350
32
  3
Brighten
350
36
  3
ColorChange
350
3A
  3
Conceptual
350
34
  3
Dim
350
35
  3
EdgeColorOff
350
3D
  3
Facepattern
350
39
  3
Flat
350
2B
  3
FlatWithEdges
350
2C
  3
Gouraud
350
2D
  3
GouraudWithEdges
350
2E
  3
Hidden
350
31
  3
JitterOff
350
3B
  3
Linepattern
350
38
  3
OverhangOff
350
3C
  3
Realistic
350
33
  3
Shaded
350
42
  3
Shaded with edges
350
41
  3
Shades of Gray
350
3E
  3
Sketchy
350
3F
  3
Thicken
350
37
  3
Wireframe
350
30
  3
X-Ray
350
40
  0
DICTIONARY
  5
8A
102
{ACAD_REACTORS
330
C
102
}
330
C
100
AcDbDictionary
281
     1
  3
CANNOSCALE
350
8B
  0
DICTIONARY
  5
6A
102
{ACAD_REACTORS
330
C
102
}
330
C
100
AcDbDictionary
281
     1
  3
*A1
350
6B
  0
XRECORD
  5
71
102
{ACAD_REACTORS
330
6F
102
}
330
6F
100
AcDbXrecord
280
     1
  5
6B
  0
XRECORD
  5
70
102
{ACAD_REACTORS
330
6F
102
}
330
6F
100
AcDbXrecord
280
     1
1071
196184200
  0
GROUP
  5
73
102
{ACAD_REACTORS
330
D
102
}
330
D
100
AcDbGroup
300

 70
     0
 71
     1
340
72
340
74
340
75
340
76
340
77
340
78
340
79
340
7A
340
7B
340
7C
340
7D
340
7E
340
7F
340
80
340
81
340
82
340
83
340
84
340
85
340
86
340
87
340
88
340
89
  0
LAYOUT
  5
1E
102
{ACAD_REACTORS
330
1A
102
}
330
1A
100
AcDbPlotSettings
  1

  2
none_device
  4

  6

 40
0.0
 41
0.0
 42
0.0
 43
0.0
 44
0.0
 45
0.0
 46
0.0
 47
0.0
 48
0.0
 49
0.0
140
0.0
141
0.0
142
1.0
143
1.0
 70
   688
 72
     0
 73
     0
 74
     5
  7

 75
    16
 76
     0
 77
     2
 78
   300
147
1.0
148
0.0
149
0.0
100
AcDbLayout
  1
Layout1
 70
     1
 71
     1
 10
0.0
 20
0.0
 11
12.0
 21
9.0
 12
0.0
 22
0.0
 32
0.0
 14
1.000000000000000E+20
 24
1.000000000000000E+20
 34
1.000000000000000E+20
 15
-1.000000000000000E+20
 25
-1.000000000000000E+20
 35
-1.000000000000000E+20
146
0.0
 13
0.0
 23
0.0
 33
0.0
 16
1.0
 26
0.0
 36
0.0
 17
0.0
 27
1.0
 37
0.0
 76
     0
330
1B
  0
LAYOUT
  5
26
102
{ACAD_REACTORS
330
1A
102
}
330
1A
100
AcDbPlotSettings
  1

  2
none_device
  4

  6

 40
0.0
 41
0.0
 42
0.0
 43
0.0
 44
0.0
 45
0.0
 46
0.0
 47
0.0
 48
0.0
 49
0.0
140
0.0
141
0.0
142
1.0
143
1.0
 70
   688
 72
     0
 73
     0
 74
     5
  7

 75
    16
 76
     0
 77
     2
 78
   300
147
1.0
148
0.0
149
0.0
100
AcDbLayout
  1
Layout2
 70
     1
 71
     2
 10
0.0
 20
0.0
 11
0.0
 21
0.0
 12
0.0
 22
0.0
 32
0.0
 14
0.0
 24
0.0
 34
0.0
 15
0.0
 25
0.0
 35
0.0
146
0.0
 13
0.0
 23
0.0
 33
0.0
 16
1.0
 26
0.0
 36
0.0
 17
0.0
 27
1.0
 37
0.0
 76
     0
330
23
  0
LAYOUT
  5
22
102
{ACAD_REACTORS
330
1A
102
}
330
1A
100
AcDbPlotSettings
  1

  2
none_device
  4
Letter_(8.50_x_11.00_Inches)
  6

 40
6.35
 41
6.35
 42
6.35000508
 43
6.35000508
 44
215.9
 45
279.4
 46
0.0
 47
0.0
 48
0.0
 49
0.0
140
0.0
141
0.0
142
1.0
143
1.0
 70
  1712
 72
     0
 73
     0
 74
     0
  7

 75
     0
 76
     0
 77
     2
 78
   300
147
1.0
148
0.0
149
0.0
100
AcDbLayout
  1
Model
 70
     1
 71
     0
 10
0.0
 20
0.0
 11
12.0
 21
9.0
 12
0.0
 22
0.0
 32
0.0
 14
1.000000000000000E+20
 24
1.000000000000000E+20
 34
1.000000000000000E+20
 15
-1.000000000000000E+20
 25
-1.000000000000000E+20
 35
-1.000000000000000E+20
146
0.0
 13
0.0
 23
0.0
 33
0.0
 16
1.0
 26
0.0
 36
0.0
 17
0.0
 27
1.0
 37
0.0
 76
     0
330
1F
331
29
  0
MATERIAL
  5
45
102
{ACAD_REACTORS
330
43
102
}
330
43
100
AcDbMaterial
  1
ByBlock
 72
     1
 94
      127
  0
MATERIAL
  5
44
102
{ACAD_REACTORS
330
43
102
}
330
43
100
AcDbMaterial
  1
ByLayer
 72
     1
 94
      127
  0
MATERIAL
  5
46
102
{ACAD_REACTORS
330
43
102
}
330
43
100
AcDbMaterial
  1
Global
 72
     1
 94
      127
  0
MLINESTYLE
  5
18
102
{ACAD_REACTORS
330
17
102
}
330
17
100
AcDbMlineStyle
  2
Standard
 70
     0
  3

 62
   256
 51
90.0
 52
90.0
 71
     2
 49
0.5
 62
   256
  6
BYLAYER
 49
-0.5
 62
   256
  6
BYLAYER
  0
ACDBPLACEHOLDER
  5
F
102
{ACAD_REACTORS
330
E
102
}
330
E
  0
SCALE
  5
48
102
{ACAD_REACTORS
330
47
102
}
330
47
100
AcDbScale
 70
     0
300
1:1
140
1.0
141
1.0
290
     1
  0
SCALE
  5
49
102
{ACAD_REACTORS
330
47
102
}
330
47
100
AcDbScale
 70
     0
300
1:2
140
1.0
141
2.0
290
     0
  0
SCALE
  5
4A
102
{ACAD_REACTORS
330
47
102
}
330
47
100
AcDbScale
 70
     0
300
1:4
140
1.0
141
4.0
290
     0
  0
SCALE
  5
4B
102
{ACAD_REACTORS
330
47
102
}
330
47
100
AcDbScale
 70
     0
300
1:5
140
1.0
141
5.0
290
     0
  0
SCALE
  5
4C
102
{ACAD_REACTORS
330
47
102
}
330
47
100
AcDbScale
 70
     0
300
1:8
140
1.0
141
8.0
290
     0
  0
SCALE
  5
4D
102
{ACAD_REACTORS
330
47
102
}
330
47
100
AcDbScale
 70
     0
300
1:10
140
1.0
141
10.0
290
     0
  0
SCALE
  5
4E
102
{ACAD_REACTORS
330
47
102
}
330
47
100
AcDbScale
 70
     0
300
1:16
140
1.0
141
16.0
290
     0
  0
SCALE
  5
4F
102
{ACAD_REACTORS
330
47
102
}
330
47
100
AcDbScale
 70
     0
300
1:20
140
1.0
141
20.0
290
     0
  0
SCALE
  5
50
102
{ACAD_REACTORS
330
47
102
}
330
47
100
AcDbScale
 70
     0
300
1:30
140
1.0
141
30.0
290
     0
  0
SCALE
  5
51
102
{ACAD_REACTORS
330
47
102
}
330
47
100
AcDbScale
 70
     0
300
1:40
140
1.0
141
40.0
290
     0
  0
SCALE
  5
52
102
{ACAD_REACTORS
330
47
102
}
330
47
100
AcDbScale
 70
     0
300
1:50
140
1.0
141
50.0
290
     0
  0
SCALE
  5
53
102
{ACAD_REACTORS
330
47
102
}
330
47
100
AcDbScale
 70
     0
300
1:100
140
1.0
141
100.0
290
     0
  0
SCALE
  5
54
102
{ACAD_REACTORS
330
47
102
}
330
47
100
AcDbScale
 70
     0
300
2:1
140
2.0
141
1.0
290
     0
  0
SCALE
  5
55
102
{ACAD_REACTORS
330
47
102
}
330
47
100
AcDbScale
 70
     0
300
4:1
140
4.0
141
1.0
290
     0
  0
SCALE
  5
56
102
{ACAD_REACTORS
330
47
102
}
330
47
100
AcDbScale
 70
     0
300
8:1
140
8.0
141
1.0
290
     0
  0
SCALE
  5
57
102
{ACAD_REACTORS
330
47
102
}
330
47
100
AcDbScale
 70
     0
300
10:1
140
10.0
141
1.0
290
     0
  0
SCALE
  5
58
102
{ACAD_REACTORS
330
47
102
}
330
47
100
AcDbScale
 70
     0
300
100:1
140
100.0
141
1.0
290
     0
  0
SCALE
  5
59
102
{ACAD_REACTORS
330
47
102
}
330
47
100
AcDbScale
 70
     0
300
1/128" = 1'-0"
140
0.0078125
141
12.0
290
     0
  0
SCALE
  5
5A
102
{ACAD_REACTORS
330
47
102
}
330
47
100
AcDbScale
 70
     0
300
1/64" = 1'-0"
140
0.015625
141
12.0
290
     0
  0
SCALE
  5
5B
102
{ACAD_REACTORS
330
47
102
}
330
47
100
AcDbScale
 70
     0
300
1/32" = 1'-0"
140
0.03125
141
12.0
290
     0
  0
SCALE
  5
5C
102
{ACAD_REACTORS
330
47
102
}
330
47
100
AcDbScale
 70
     0
300
1/16" = 1'-0"
140
0.0625
141
12.0
290
     0
  0
SCALE
  5
5D
102
{ACAD_REACTORS
330
47
102
}
330
47
100
AcDbScale
 70
     0
300
3/32" = 1'-0"
140
0.09375
141
12.0
290
     0
  0
SCALE
  5
5E
102
{ACAD_REACTORS
330
47
102
}
330
47
100
AcDbScale
 70
     0
300
1/8" = 1'-0"
140
0.125
141
12.0
290
     0
  0
SCALE
  5
5F
102
{ACAD_REACTORS
330
47
102
}
330
47
100
AcDbScale
 70
     0
300
3/16" = 1'-0"
140
0.1875
141
12.0
290
     0
  0
SCALE
  5
60
102
{ACAD_REACTORS
330
47
102
}
330
47
100
AcDbScale
 70
     0
300
1/4" = 1'-0"
140
0.25
141
12.0
290
     0
  0
SCALE
  5
61
102
{ACAD_REACTORS
330
47
102
}
330
47
100
AcDbScale
 70
     0
300
3/8" = 1'-0"
140
0.375
141
12.0
290
     0
  0
SCALE
  5
62
102
{ACAD_REACTORS
330
47
102
}
330
47
100
AcDbScale
 70
     0
300
1/2" = 1'-0"
140
0.5
141
12.0
290
     0
  0
SCALE
  5
63
102
{ACAD_REACTORS
330
47
102
}
330
47
100
AcDbScale
 70
     0
300
3/4" = 1'-0"
140
0.75
141
12.0
290
     0
  0
SCALE
  5
64
102
{ACAD_REACTORS
330
47
102
}
330
47
100
AcDbScale
 70
     0
300
1" = 1'-0"
140
1.0
141
12.0
290
     0
  0
SCALE
  5
65
102
{ACAD_REACTORS
330
47
102
}
330
47
100
AcDbScale
 70
     0
300
1-1/2" = 1'-0"
140
1.5
141
12.0
290
     0
  0
SCALE
  5
66
102
{ACAD_REACTORS
330
47
102
}
330
47
100
AcDbScale
 70
     0
300
3" = 1'-0"
140
3.0
141
12.0
290
     0
  0
SCALE
  5
67
102
{ACAD_REACTORS
330
47
102
}
330
47
100
AcDbScale
 70
     0
300
6" = 1'-0"
140
6.0
141
12.0
290
     0
  0
SCALE
  5
68
102
{ACAD_REACTORS
330
47
102
}
330
47
100
AcDbScale
 70
     0
300
1'-0" = 1'-0"
140
12.0
141
12.0
290
     0
  0
VISUALSTYLE
  5
2F
102
{ACAD_REACTORS
330
2A
102
}
330
2A
100
AcDbVisualStyle
  2
2dWireframe
 70
     4
177
     3
291
     0
 70
    58
 90
        0
176
     1
 90
        2
176
     1
 90
        0
176
     1
 90
        0
176
     1
 40
0.6
176
     1
 40
30.0
176
     1
 62
     7
420
 16777215
176
     1
 90
        1
176
     1
 90
        4
176
     1
 62
     7
176
     1
 62
   257
176
     1
 90
        1
176
     1
 90
        1
176
     1
 40
1.0
176
     1
 90
        0
176
     1
 62
   257
176
     1
 40
1.0
176
     1
 90
        1
176
     1
 90
        6
176
     1
 90
        2
176
     1
 62
     7
176
     1
 90
        5
176
     1
 90
        0
176
     1
 90
        0
176
     1
290
     0
176
     1
 90
        1
176
     1
 40
0.0
176
     1
 90
        0
176
     1
290
     1
176
     1
290
     1
176
     1
290
     0
176
     1
290
     0
176
     1
290
     0
176
     1
290
     0
176
     1
290
     0
176
     1
290
     0
176
     1
290
     0
176
     1
 90
       50
176
     1
 40
0.0
176
     1
 40
1.0
176
     1
 90
        0
176
     1
 62
    18
420
        0
176
     1
 90
       50
176
     1
 90
        3
176
     1
 62
     5
420
      255
176
     1
290
     0
176
     1
 90
       50
176
     1
 90
       50
176
     1
 90
       50
176
     1
290
     0
176
     1
 90
       50
176
     1
 62
   256
176
     0
 40
1.0
176
     0
 90
        2
176
     1
  1
strokes_ogs.tif
176
     1
290
     0
176
     1
 40
1.0
176
     1
 40
1.0
176
     1
  0
VISUALSTYLE
  5
32
102
{ACAD_REACTORS
330
2A
102
}
330
2A
100
AcDbVisualStyle
  2
Basic
 70
     7
177
     3
291
     1
 70
    58
 90
        1
176
     1
 90
        0
176
     1
 90
        1
176
     1
 90
        0
176
     1
 40
0.6
176
     1
 40
30.0
176
     1
 62
     7
420
 16777215
176
     1
 90
        0
176
     1
 90
        4
176
     1
 62
     7
176
     1
 62
   257
176
     1
 90
        1
176
     1
 90
        1
176
     1
 40
1.0
176
     1
 90
        8
176
     1
 62
     7
176
     1
 40
1.0
176
     1
 90
        1
176
     1
 90
        6
176
     1
 90
        2
176
     1
 62
     7
176
     1
 90
        5
176
     1
 90
        0
176
     1
 90
        0
176
     1
290
     0
176
     1
 90
        1
176
     1
 40
0.0
176
     1
 90
        0
176
     1
290
     0
176
     1
290
     1
176
     1
290
     1
176
     1
290
     0
176
     1
290
     0
176
     1
290
     0
176
     1
290
     0
176
     1
290
     0
176
     1
290
     0
176
     1
 90
       50
176
     1
 40
0.0
176
     1
 40
1.0
176
     1
 90
        0
176
     1
 62
    18
420
        0
176
     1
 90
       50
176
     1
 90
        3
176
     1
 62
     5
420
      255
176
     1
290
     0
176
     1
 90
       50
176
     1
 90
       50
176
     1
 90
       50
176
     1
290
     0
176
     1
 90
       50
176
     1
 62
   256
176
     0
 40
1.0
176
     0
 90
        2
176
     1
  1
strokes_ogs.tif
176
     1
290
     0
176
     1
 40
1.0
176
     1
 40
1.0
176
     1
  0
VISUALSTYLE
  5
36
102
{ACAD_REACTORS
330
2A
102
}
330
2A
100
AcDbVisualStyle
  2
Brighten
 70
    12
177
     3
291
     1
 70
    58
 90
        2
176
     1
 90
        2
176
     1
 90
        0
176
     1
 90
        0
176
     1
 40
0.6
176
     1
 40
30.0
176
     1
 62
     7
420
 16777215
176
     1
 90
        1
176
     1
 90
        4
176
     1
 62
     7
176
     1
 62
   257
176
     1
 90
        1
176
     1
 90
        1
176
     1
 40
1.0
176
     1
 90
        8
176
     1
 62
     7
176
     1
 40
1.0
176
     1
 90
        1
176
     1
 90
        6
176
     1
 90
        2
176
     1
 62
     7
176
     1
 90
        5
176
     1
 90
        0
176
     1
 90
        0
176
     1
290
     0
176
     1
 90
        1
176
     1
 40
50.0
176
     1
 90
        0
176
     1
290
     0
176
     1
290
     1
176
     1
290
     1
176
     1
290
     0
176
     1
290
     0
176
     1
290
     0
176
     1
290
     0
176
     1
290
     0
176
     1
290
     0
176
     1
 90
       50
176
     1
 40
0.0
176
     1
 40
1.0
176
     1
 90
        0
176
     1
 62
    18
420
        0
176
     1
 90
       50
176
     1
 90
        3
176
     1
 62
     5
420
      255
176
     1
290
     0
176
     1
 90
       50
176
     1
 90
       50
176
     1
 90
       50
176
     1
290
     0
176
     1
 90
       50
176
     1
 62
   256
176
     0
 40
1.0
176
     0
 90
        2
176
     1
  1
strokes_ogs.tif
176
     1
290
     0
176
     1
 40
1.0
176
     1
 40
1.0
176
     1
  0
VISUALSTYLE
  5
3A
102
{ACAD_REACTORS
330
2A
102
}
330
2A
100
AcDbVisualStyle
  2
ColorChange
 70
    16
177
     3
291
     1
 70
    58
 90
        2
176
     1
 90
        2
176
     1
 90
        3
176
     1
 90
        0
176
     1
 40
0.6
176
     1
 40
30.0
176
     1
 62
     8
420
  8421504
176
     1
 90
        1
176
     1
 90
        4
176
     1
 62
     7
176
     1
 62
   257
176
     1
 90
        1
176
     1
 90
        1
176
     1
 40
1.0
176
     1
 90
        8
176
     1
 62
     8
420
  8421504
176
     1
 40
1.0
176
     1
 90
        1
176
     1
 90
        6
176
     1
 90
        2
176
     1
 62
     7
176
     1
 90
        5
176
     1
 90
        0
176
     1
 90
        0
176
     1
290
     0
176
     1
 90
        1
176
     1
 40
0.0
176
     1
 90
        0
176
     1
290
     0
176
     1
290
     1
176
     1
290
     1
176
     1
290
     0
176
     1
290
     0
176
     1
290
     0
176
     1
290
     0
176
     1
290
     0
176
     1
290
     0
176
     1
 90
       50
176
     1
 40
0.0
176
     1
 40
1.0
176
     1
 90
        0
176
     1
 62
    18
420
        0
176
     1
 90
       50
176
     1
 90
        3
176
     1
 62
     5
420
      255
176
     1
290
     0
176
     1
 90
       50
176
     1
 90
       50
176
     1
 90
       50
176
     1
290
     0
176
     1
 90
       50
176
     1
 62
   256
176
     0
 40
1.0
176
     0
 90
        2
176
     1
  1
strokes_ogs.tif
176
     1
290
     0
176
     1
 40
1.0
176
     1
 40
1.0
176
     1
  0
VISUALSTYLE
  5
34
102
{ACAD_REACTORS
330
2A
102
}
330
2A
100
AcDbVisualStyle
  2
Conceptual
 70
     9
177
     3
291
     0
 70
    58
 90
        3
176
     1
 90
        2
176
     1
 90
        0
176
     1
 90
        0
176
     1
 40
0.6
176
     1
 40
30.0
176
     1
 62
     7
420
 16777215
176
     1
 90
        2
176
     1
 90
        2
176
     1
 62
     7
176
     1
 62
   257
176
     1
 90
        1
176
     1
 90
        1
176
     1
 40
179.0
176
     1
 90
        8
176
     1
 62
     7
176
     1
 40
1.0
176
     1
 90
        1
176
     1
 90
        6
176
     1
 90
        2
176
     1
 62
     7
176
     1
 90
        3
176
     1
 90
        0
176
     1
 90
        0
176
     1
290
     0
176
     1
 90
        1
176
     1
 40
0.0
176
     1
 90
        0
176
     1
290
     0
176
     1
290
     1
176
     1
290
     1
176
     1
290
     0
176
     1
290
     0
176
     1
290
     0
176
     1
290
     0
176
     1
290
     0
176
     1
290
     0
176
     1
 90
       50
176
     1
 40
0.0
176
     1
 40
1.0
176
     1
 90
        0
176
     1
 62
    18
420
        0
176
     1
 90
       50
176
     1
 90
        3
176
     1
 62
     5
420
      255
176
     1
290
     0
176
     1
 90
       50
176
     1
 90
       50
176
     1
 90
       50
176
     1
290
     0
176
     1
 90
       50
176
     1
 62
   256
176
     0
 40
1.0
176
     0
 90
        2
176
     1
  1
strokes_ogs.tif
176
     1
290
     0
176
     1
 40
1.0
176
     1
 40
1.0
176
     1
  0
VISUALSTYLE
  5
35
102
{ACAD_REACTORS
330
2A
102
}
330
2A
100
AcDbVisualStyle
  2
Dim
 70
    11
177
     3
291
     1
 70
    58
 90
        2
176
     1
 90
        2
176
     1
 90
        0
176
     1
 90
        0
176
     1
 40
0.6
176
     1
 40
30.0
176
     1
 62
     7
420
 16777215
176
     1
 90
        1
176
     1
 90
        4
176
     1
 62
     7
176
     1
 62
   257
176
     1
 90
        1
176
     1
 90
        1
176
     1
 40
1.0
176
     1
 90
        8
176
     1
 62
     7
176
     1
 40
1.0
176
     1
 90
        1
176
     1
 90
        6
176
     1
 90
        2
176
     1
 62
     7
176
     1
 90
        5
176
     1
 90
        0
176
     1
 90
        0
176
     1
290
     0
176
     1
 90
        1
176
     1
 40
-50.0
176
     1
 90
        0
176
     1
290
     0
176
     1
290
     1
176
     1
290
     1
176
     1
290
     0
176
     1
290
     0
176
     1
290
     0
176
     1
290
     0
176
     1
290
     0
176
     1
290
     0
176
     1
 90
       50
176
     1
 40
0.0
176
     1
 40
1.0
176
     1
 90
        0
176
     1
 62
    18
420
        0
176
     1
 90
       50
176
     1
 90
        3
176
     1
 62
     5
420
      255
176
     1
290
     0
176
     1
 90
       50
176
     1
 90
       50
176
     1
 90
       50
176
     1
290
     0
176
     1
 90
       50
176
     1
 62
   256
176
     0
 40
1.0
176
     0
 90
        2
176
     1
  1
strokes_ogs.tif
176
     1
290
     0
176
     1
 40
1.0
176
     1
 40
1.0
176
     1
  0
VISUALSTYLE
  5
3D
102
{ACAD_REACTORS
330
2A
102
}
330
2A
100
AcDbVisualStyle
  2
EdgeColorOff
 70
    22
177
     3
291
     1
 70
    58
 90
        2
176
     0
 90
        2
176
     0
 90
        0
176
     0
 90
        0
176
     0
 40
0.6
176
     0
 40
30.0
176
     0
 62
     7
420
 16777215
176
     0
 90
        1
176
     0
 90
        4
176
     0
 62
     7
176
     0
 62
   257
176
     0
 90
        1
176
     0
 90
        1
176
     0
 40
1.0
176
     0
 90
        8
176
     2
 62
     7
176
     0
 40
1.0
176
     0
 90
        1
176
     0
 90
        6
176
     0
 90
        2
176
     0
 62
     7
176
     0
 90
        5
176
     0
 90
        0
176
     0
 90
        0
176
     0
290
     0
176
     0
 90
        1
176
     0
 40
0.0
176
     0
 90
        0
176
     0
290
     0
176
     0
290
     1
176
     0
290
     1
176
     0
290
     0
176
     0
290
     0
176
     0
290
     0
176
     0
290
     0
176
     0
290
     0
176
     0
290
     0
176
     0
 90
       50
176
     0
 40
0.0
176
     0
 40
1.0
176
     0
 90
        0
176
     0
 62
    18
420
        0
176
     0
 90
       50
176
     0
 90
        3
176
     0
 62
     5
420
      255
176
     0
290
     0
176
     0
 90
       50
176
     0
 90
       50
176
     0
 90
       50
176
     0
290
     0
176
     0
 90
       50
176
     0
 62
   256
176
     0
 40
1.0
176
     0
 90
        2
176
     0
  1
strokes_ogs.tif
176
     0
290
     0
176
     0
 40
1.0
176
     0
 40
1.0
176
     0
  0
VISUALSTYLE
  5
39
102
{ACAD_REACTORS
330
2A
102
}
330
2A
100
AcDbVisualStyle
  2
Facepattern
 70
    15
177
     3
291
     1
 70
    58
 90
        2
176
     1
 90
        2
176
     1
 90
        0
176
     1
 90
        0
176
     1
 40
0.6
176
     1
 40
30.0
176
     1
 62
     7
420
 16777215
176
     1
 90
        1
176
     1
 90
        4
176
     1
 62
     7
176
     1
 62
   257
176
     1
 90
        1
176
     1
 90
        1
176
     1
 40
1.0
176
     1
 90
        8
176
     1
 62
     7
176
     1
 40
1.0
176
     1
 90
        1
176
     1
 90
        6
176
     1
 90
        2
176
     1
 62
     7
176
     1
 90
        5
176
     1
 90
        0
176
     1
 90
        0
176
     1
290
     0
176
     1
 90
        1
176
     1
 40
0.0
176
     1
 90
        0
176
     1
290
     0
176
     1
290
     1
176
     1
290
     1
176
     1
290
     0
176
     1
290
     0
176
     1
290
     0
176
     1
290
     0
176
     1
290
     0
176
     1
290
     0
176
     1
 90
       50
176
     1
 40
0.0
176
     1
 40
1.0
176
     1
 90
        0
176
     1
 62
    18
420
        0
176
     1
 90
       50
176
     1
 90
        3
176
     1
 62
     5
420
      255
176
     1
290
     0
176
     1
 90
       50
176
     1
 90
       50
176
     1
 90
       50
176
     1
290
     0
176
     1
 90
       50
176
     1
 62
   256
176
     0
 40
1.0
176
     0
 90
        2
176
     1
  1
strokes_ogs.tif
176
     1
290
     0
176
     1
 40
1.0
176
     1
 40
1.0
176
     1
  0
VISUALSTYLE
  5
2B
102
{ACAD_REACTORS
330
2A
102
}
330
2A
100
AcDbVisualStyle
  2
Flat
 70
     0
177
     3
291
     1
 70
    58
 90
        2
176
     1
 90
        1
176
     1
 90
        1
176
     1
 90
        2
176
     1
 40
0.6
176
     1
 40
30.0
176
     1
 62
     7
420
 16777215
176
     1
 90
        0
176
     1
 90
        0
176
     1
 62
     7
176
     1
 62
   257
176
     1
 90
        1
176
     1
 90
        1
176
     1
 40
1.0
176
     1
 90
        8
176
     1
 62
     7
176
     1
 40
1.0
176
     1
 90
        1
176
     1
 90
        6
176
     1
 90
        2
176
     1
 62
     7
176
     1
 90
        5
176
     1
 90
        0
176
     1
 90
        0
176
     1
290
     0
176
     1
 90
       13
176
     1
 40
0.0
176
     1
 90
        0
176
     1
290
     0
176
     1
290
     1
176
     1
290
     1
176
     1
290
     0
176
     1
290
     0
176
     1
290
     0
176
     1
290
     0
176
     1
290
     0
176
     1
290
     0
176
     1
 90
       50
176
     1
 40
0.0
176
     1
 40
1.0
176
     1
 90
        0
176
     1
 62
    18
420
        0
176
     1
 90
       50
176
     1
 90
        3
176
     1
 62
     5
420
      255
176
     1
290
     0
176
     1
 90
       50
176
     1
 90
       50
176
     1
 90
       50
176
     1
290
     0
176
     1
 90
       50
176
     1
 62
   256
176
     0
 40
1.0
176
     0
 90
        2
176
     1
  1
strokes_ogs.tif
176
     1
290
     0
176
     1
 40
1.0
176
     1
 40
1.0
176
     1
  0
VISUALSTYLE
  5
2C
102
{ACAD_REACTORS
330
2A
102
}
330
2A
100
AcDbVisualStyle
  2
FlatWithEdges
 70
     1
177
     3
291
     1
 70
    58
 90
        2
176
     1
 90
        1
176
     1
 90
        1
176
     1
 90
        2
176
     1
 40
0.6
176
     1
 40
30.0
176
     1
 62
     7
420
 16777215
176
     1
 90
        1
176
     1
 90
        0
176
     1
 62
     7
176
     1
 62
   257
176
     1
 90
        1
176
     1
 90
        1
176
     1
 40
1.0
176
     1
 90
        0
176
     1
 62
   257
176
     1
 40
1.0
176
     1
 90
        1
176
     1
 90
        6
176
     1
 90
        2
176
     1
 62
     7
176
     1
 90
        5
176
     1
 90
        0
176
     1
 90
        0
176
     1
290
     0
176
     1
 90
       13
176
     1
 40
0.0
176
     1
 90
        0
176
     1
290
     0
176
     1
290
     1
176
     1
290
     1
176
     1
290
     0
176
     1
290
     0
176
     1
290
     0
176
     1
290
     0
176
     1
290
     0
176
     1
290
     0
176
     1
 90
       50
176
     1
 40
0.0
176
     1
 40
1.0
176
     1
 90
        0
176
     1
 62
    18
420
        0
176
     1
 90
       50
176
     1
 90
        3
176
     1
 62
     5
420
      255
176
     1
290
     0
176
     1
 90
       50
176
     1
 90
       50
176
     1
 90
       50
176
     1
290
     0
176
     1
 90
       50
176
     1
 62
   256
176
     0
 40
1.0
176
     0
 90
        2
176
     1
  1
strokes_ogs.tif
176
     1
290
     0
176
     1
 40
1.0
176
     1
 40
1.0
176
     1
  0
VISUALSTYLE
  5
2D
102
{ACAD_REACTORS
330
2A
102
}
330
2A
100
AcDbVisualStyle
  2
Gouraud
 70
     2
177
     3
291
     1
 70
    58
 90
        2
176
     1
 90
        2
176
     1
 90
        1
176
     1
 90
        2
176
     1
 40
0.6
176
     1
 40
30.0
176
     1
 62
     7
420
 16777215
176
     1
 90
        0
176
     1
 90
        0
176
     1
 62
     7
176
     1
 62
   257
176
     1
 90
        1
176
     1
 90
        1
176
     1
 40
1.0
176
     1
 90
        0
176
     1
 62
     7
176
     1
 40
1.0
176
     1
 90
        1
176
     1
 90
        6
176
     1
 90
        2
176
     1
 62
     7
176
     1
 90
        5
176
     1
 90
        0
176
     1
 90
        0
176
     1
290
     0
176
     1
 90
       13
176
     1
 40
0.0
176
     1
 90
        0
176
     1
290
     0
176
     1
290
     1
176
     1
290
     1
176
     1
290
     0
176
     1
290
     0
176
     1
290
     0
176
     1
290
     0
176
     1
290
     0
176
     1
290
     0
176
     1
 90
       50
176
     1
 40
0.0
176
     1
 40
1.0
176
     1
 90
        0
176
     1
 62
    18
420
        0
176
     1
 90
       50
176
     1
 90
        3
176
     1
 62
     5
420
      255
176
     1
290
     0
176
     1
 90
       50
176
     1
 90
       50
176
     1
 90
       50
176
     1
290
     0
176
     1
 90
       50
176
     1
 62
   256
176
     0
 40
1.0
176
     0
 90
        2
176
     1
  1
strokes_ogs.tif
176
     1
290
     0
176
     1
 40
1.0
176
     1
 40
1.0
176
     1
  0
VISUALSTYLE
  5
2E
102
{ACAD_REACTORS
330
2A
102
}
330
2A
100
AcDbVisualStyle
  2
GouraudWithEdges
 70
     3
177
     3
291
     1
 70
    58
 90
        2
176
     1
 90
        2
176
     1
 90
        1
176
     1
 90
        2
176
     1
 40
0.6
176
     1
 40
30.0
176
     1
 62
     7
420
 16777215
176
     1
 90
        1
176
     1
 90
        0
176
     1
 62
     7
176
     1
 62
   257
176
     1
 90
        1
176
     1
 90
        1
176
     1
 40
1.0
176
     1
 90
        0
176
     1
 62
   257
176
     1
 40
1.0
176
     1
 90
        1
176
     1
 90
        6
176
     1
 90
        2
176
     1
 62
     7
176
     1
 90
        5
176
     1
 90
        0
176
     1
 90
        0
176
     1
290
     0
176
     1
 90
       13
176
     1
 40
0.0
176
     1
 90
        0
176
     1
290
     0
176
     1
290
     1
176
     1
290
     1
176
     1
290
     0
176
     1
290
     0
176
     1
290
     0
176
     1
290
     0
176
     1
290
     0
176
     1
290
     0
176
     1
 90
       50
176
     1
 40
0.0
176
     1
 40
1.0
176
     1
 90
        0
176
     1
 62
    18
420
        0
176
     1
 90
       50
176
     1
 90
        3
176
     1
 62
     5
420
      255
176
     1
290
     0
176
     1
 90
       50
176
     1
 90
       50
176
     1
 90
       50
176
     1
290
     0
176
     1
 90
       50
176
     1
 62
   256
176
     0
 40
1.0
176
     0
 90
        2
176
     1
  1
strokes_ogs.tif
176
     1
290
     0
176
     1
 40
1.0
176
     1
 40
1.0
176
     1
  0
VISUALSTYLE
  5
31
102
{ACAD_REACTORS
330
2A
102
}
330
2A
100
AcDbVisualStyle
  2
Hidden
 70
     6
177
     3
291
     0
 70
    58
 90
        1
176
     1
 90
        2
176
     1
 90
        2
176
     1
 90
        0
176
     1
 40
0.6
176
     1
 40
30.0
176
     1
 62
     7
420
 16777215
176
     1
 90
        2
176
     1
 90
        2
176
     1
 62
     7
176
     1
 62
   257
176
     1
 90
        2
176
     1
 90
        1
176
     1
 40
40.0
176
     1
 90
        0
176
     1
 62
   257
176
     1
 40
1.0
176
     1
 90
        1
176
     1
 90
        6
176
     1
 90
        2
176
     1
 62
     7
176
     1
 90
        3
176
     1
 90
        0
176
     1
 90
        0
176
     1
290
     0
176
     1
 90
        1
176
     1
 40
0.0
176
     1
 90
        0
176
     1
290
     0
176
     1
290
     1
176
     1
290
     1
176
     1
290
     0
176
     1
290
     0
176
     1
290
     0
176
     1
290
     0
176
     1
290
     0
176
     1
290
     0
176
     1
 90
       50
176
     1
 40
0.0
176
     1
 40
1.0
176
     1
 90
        0
176
     1
 62
    18
420
        0
176
     1
 90
       50
176
     1
 90
        3
176
     1
 62
     5
420
      255
176
     1
290
     0
176
     1
 90
       50
176
     1
 90
       50
176
     1
 90
       50
176
     1
290
     0
176
     1
 90
       50
176
     1
 62
   256
176
     0
 40
1.0
176
     0
 90
        2
176
     1
  1
strokes_ogs.tif
176
     1
290
     0
176
     1
 40
1.0
176
     1
 40
1.0
176
     1
  0
VISUALSTYLE
  5
3B
102
{ACAD_REACTORS
330
2A
102
}
330
2A
100
AcDbVisualStyle
  2
JitterOff
 70
    20
177
     3
291
     1
 70
    58
 90
        2
176
     0
 90
        2
176
     0
 90
        0
176
     0
 90
        0
176
     0
 40
0.6
176
     0
 40
30.0
176
     0
 62
     7
420
 16777215
176
     0
 90
        1
176
     0
 90
        4
176
     0
 62
     7
176
     0
 62
   257
176
     0
 90
        1
176
     0
 90
        1
176
     0
 40
1.0
176
     0
 90
       10
176
     2
 62
     7
176
     0
 40
1.0
176
     0
 90
        1
176
     0
 90
        6
176
     0
 90
        2
176
     0
 62
     7
176
     0
 90
        5
176
     0
 90
        0
176
     0
 90
        0
176
     0
290
     0
176
     0
 90
        1
176
     0
 40
0.0
176
     0
 90
        0
176
     0
290
     0
176
     0
290
     1
176
     0
290
     1
176
     0
290
     0
176
     0
290
     0
176
     0
290
     0
176
     0
290
     0
176
     0
290
     0
176
     0
290
     0
176
     0
 90
       50
176
     0
 40
0.0
176
     0
 40
1.0
176
     0
 90
        0
176
     0
 62
    18
420
        0
176
     0
 90
       50
176
     0
 90
        3
176
     0
 62
     5
420
      255
176
     0
290
     0
176
     0
 90
       50
176
     0
 90
       50
176
     0
 90
       50
176
     0
290
     0
176
     0
 90
       50
176
     0
 62
   256
176
     0
 40
1.0
176
     0
 90
        2
176
     0
  1
strokes_ogs.tif
176
     0
290
     0
176
     0
 40
1.0
176
     0
 40
1.0
176
     0
  0
VISUALSTYLE
  5
38
102
{ACAD_REACTORS
330
2A
102
}
330
2A
100
AcDbVisualStyle
  2
Linepattern
 70
    14
177
     3
291
     1
 70
    58
 90
        2
176
     1
 90
        2
176
     1
 90
        0
176
     1
 90
        0
176
     1
 40
0.6
176
     1
 40
30.0
176
     1
 62
     7
420
 16777215
176
     1
 90
        1
176
     1
 90
        4
176
     1
 62
     7
176
     1
 62
   257
176
     1
 90
        7
176
     1
 90
        7
176
     1
 40
1.0
176
     1
 90
        8
176
     1
 62
     7
176
     1
 40
1.0
176
     1
 90
        1
176
     1
 90
        6
176
     1
 90
        2
176
     1
 62
     7
176
     1
 90
        5
176
     1
 90
        0
176
     1
 90
        0
176
     1
290
     0
176
     1
 90
        1
176
     1
 40
0.0
176
     1
 90
        0
176
     1
290
     0
176
     1
290
     1
176
     1
290
     1
176
     1
290
     0
176
     1
290
     0
176
     1
290
     0
176
     1
290
     0
176
     1
290
     0
176
     1
290
     0
176
     1
 90
       50
176
     1
 40
0.0
176
     1
 40
1.0
176
     1
 90
        0
176
     1
 62
    18
420
        0
176
     1
 90
       50
176
     1
 90
        3
176
     1
 62
     5
420
      255
176
     1
290
     0
176
     1
 90
       50
176
     1
 90
       50
176
     1
 90
       50
176
     1
290
     0
176
     1
 90
       50
176
     1
 62
   256
176
     0
 40
1.0
176
     0
 90
        2
176
     1
  1
strokes_ogs.tif
176
     1
290
     0
176
     1
 40
1.0
176
     1
 40
1.0
176
     1
  0
VISUALSTYLE
  5
3C
102
{ACAD_REACTORS
330
2A
102
}
330
2A
100
AcDbVisualStyle
  2
OverhangOff
 70
    21
177
     3
291
     1
 70
    58
 90
        2
176
     0
 90
        2
176
     0
 90
        0
176
     0
 90
        0
176
     0
 40
0.6
176
     0
 40
30.0
176
     0
 62
     7
420
 16777215
176
     0
 90
        1
176
     0
 90
        4
176
     0
 62
     7
176
     0
 62
   257
176
     0
 90
        1
176
     0
 90
        1
176
     0
 40
1.0
176
     0
 90
        9
176
     2
 62
     7
176
     0
 40
1.0
176
     0
 90
        1
176
     0
 90
        6
176
     0
 90
        2
176
     0
 62
     7
176
     0
 90
        5
176
     0
 90
        0
176
     0
 90
        0
176
     0
290
     0
176
     0
 90
        1
176
     0
 40
0.0
176
     0
 90
        0
176
     0
290
     0
176
     0
290
     1
176
     0
290
     1
176
     0
290
     0
176
     0
290
     0
176
     0
290
     0
176
     0
290
     0
176
     0
290
     0
176
     0
290
     0
176
     0
 90
       50
176
     0
 40
0.0
176
     0
 40
1.0
176
     0
 90
        0
176
     0
 62
    18
420
        0
176
     0
 90
       50
176
     0
 90
        3
176
     0
 62
     5
420
      255
176
     0
290
     0
176
     0
 90
       50
176
     0
 90
       50
176
     0
 90
       50
176
     0
290
     0
176
     0
 90
       50
176
     0
 62
   256
176
     0
 40
1.0
176
     0
 90
        2
176
     0
  1
strokes_ogs.tif
176
     0
290
     0
176
     0
 40
1.0
176
     0
 40
1.0
176
     0
  0
VISUALSTYLE
  5
33
102
{ACAD_REACTORS
330
2A
102
}
330
2A
100
AcDbVisualStyle
  2
Realistic
 70
     8
177
     3
291
     0
 70
    58
 90
        2
176
     1
 90
        3
176
     1
 90
        0
176
     1
 90
        2
176
     1
 40
0.6
176
     1
 40
30.0
176
     1
 62
     7
420
 16777215
176
     1
 90
        0
176
     1
 90
        0
176
     1
 62
     7
176
     1
 62
   257
176
     1
 90
        1
176
     1
 90
        1
176
     1
 40
1.0
176
     1
 90
        8
176
     1
 62
   257
176
     1
 40
1.0
176
     1
 90
        1
176
     1
 90
        6
176
     1
 90
        2
176
     1
 62
     7
176
     1
 90
        3
176
     1
 90
        0
176
     1
 90
        0
176
     1
290
     0
176
     1
 90
       13
176
     1
 40
0.0
176
     1
 90
        0
176
     1
290
     0
176
     1
290
     1
176
     1
290
     1
176
     1
290
     0
176
     1
290
     0
176
     1
290
     0
176
     1
290
     0
176
     1
290
     0
176
     1
290
     0
176
     1
 90
       50
176
     1
 40
0.0
176
     1
 40
1.0
176
     1
 90
        0
176
     1
 62
    18
420
        0
176
     1
 90
       50
176
     1
 90
        3
176
     1
 62
     5
420
      255
176
     1
290
     0
176
     1
 90
       50
176
     1
 90
       50
176
     1
 90
       50
176
     1
290
     0
176
     1
 90
       50
176
     1
 62
   256
176
     0
 40
1.0
176
     0
 90
        2
176
     1
  1
strokes_ogs.tif
176
     1
290
     0
176
     1
 40
1.0
176
     1
 40
1.0
176
     1
  0
VISUALSTYLE
  5
42
102
{ACAD_REACTORS
330
2A
102
}
330
2A
100
AcDbVisualStyle
  2
Shaded
 70
    27
177
     3
291
     0
 70
    58
 90
        2
176
     1
 90
        2
176
     1
 90
        1
176
     1
 90
        2
176
     1
 40
0.6
176
     1
 40
30.0
176
     1
 62
     7
420
 16777215
176
     1
 90
        0
176
     1
 90
        4
176
     1
 62
     7
176
     1
 62
   257
176
     1
 90
        1
176
     1
 90
        1
176
     1
 40
1.0
176
     1
 90
        8
176
     1
 62
   257
176
     1
 40
1.0
176
     1
 90
        1
176
     1
 90
        6
176
     1
 90
        2
176
     1
 62
     8
420
  7895160
176
     1
 90
        3
176
     1
 90
        0
176
     1
 90
        0
176
     1
290
     0
176
     1
 90
        5
176
     1
 40
0.0
176
     1
 90
        0
176
     1
290
     0
176
     1
290
     1
176
     1
290
     1
176
     1
290
     0
176
     1
290
     0
176
     1
290
     0
176
     1
290
     0
176
     1
290
     0
176
     1
290
     0
176
     1
 90
       50
176
     1
 40
0.0
176
     1
 40
1.0
176
     1
 90
        0
176
     1
 62
    18
420
        0
176
     1
 90
       50
176
     1
 90
        3
176
     1
 62
     5
420
      255
176
     1
290
     0
176
     1
 90
       50
176
     1
 90
       50
176
     1
 90
       50
176
     1
290
     0
176
     1
 90
       50
176
     1
 62
   256
176
     0
 40
1.0
176
     0
 90
        2
176
     1
  1
strokes_ogs.tif
176
     1
290
     0
176
     1
 40
1.0
176
     1
 40
1.0
176
     1
  0
VISUALSTYLE
  5
41
102
{ACAD_REACTORS
330
2A
102
}
330
2A
100
AcDbVisualStyle
  2
Shaded with edges
 70
    26
177
     3
291
     0
 70
    58
 90
        2
176
     1
 90
        2
176
     1
 90
        1
176
     1
 90
        2
176
     1
 40
0.6
176
     1
 40
30.0
176
     1
 62
     7
420
 16777215
176
     1
 90
        1
176
     1
 90
       10
176
     1
 62
     7
176
     1
 62
   257
176
     1
 90
        2
176
     1
 90
        1
176
     1
 40
1.0
176
     1
 90
        8
176
     1
 62
   257
176
     1
 40
1.0
176
     1
 90
        1
176
     1
 90
        6
176
     1
 90
        2
176
     1
 62
     7
176
     1
 90
        3
176
     1
 90
        0
176
     1
 90
        0
176
     1
290
     0
176
     1
 90
        5
176
     1
 40
0.0
176
     1
 90
        0
176
     1
290
     0
176
     1
290
     1
176
     1
290
     1
176
     1
290
     0
176
     1
290
     0
176
     1
290
     0
176
     1
290
     0
176
     1
290
     0
176
     1
290
     0
176
     1
 90
       50
176
     1
 40
0.0
176
     1
 40
1.0
176
     1
 90
        0
176
     1
 62
    18
420
        0
176
     1
 90
       50
176
     1
 90
        3
176
     1
 62
     5
420
      255
176
     1
290
     0
176
     1
 90
       50
176
     1
 90
       50
176
     1
 90
       50
176
     1
290
     0
176
     1
 90
       50
176
     1
 62
   256
176
     0
 40
1.0
176
     0
 90
        2
176
     1
  1
strokes_ogs.tif
176
     1
290
     0
176
     1
 40
1.0
176
     1
 40
1.0
176
     1
  0
VISUALSTYLE
  5
3E
102
{ACAD_REACTORS
330
2A
102
}
330
2A
100
AcDbVisualStyle
  2
Shades of Gray
 70
    23
177
     3
291
     0
 70
    58
 90
        2
176
     1
 90
        2
176
     1
 90
        3
176
     1
 90
        0
176
     1
 40
0.6
176
     1
 40
30.0
176
     1
 62
     7
420
 16777215
176
     1
 90
        2
176
     1
 90
        2
176
     1
 62
     7
176
     1
 62
     7
176
     1
 90
        1
176
     1
 90
        1
176
     1
 40
40.0
176
     1
 90
        8
176
     1
 62
     7
176
     1
 40
1.0
176
     1
 90
        1
176
     1
 90
        6
176
     1
 90
        2
176
     1
 62
     7
176
     1
 90
        3
176
     1
 90
        0
176
     1
 90
        0
176
     1
290
     0
176
     1
 90
        1
176
     1
 40
0.0
176
     1
 90
        0
176
     1
290
     0
176
     1
290
     1
176
     1
290
     1
176
     1
290
     0
176
     1
290
     0
176
     1
290
     0
176
     1
290
     0
176
     1
290
     0
176
     1
290
     0
176
     1
 90
       50
176
     1
 40
0.0
176
     1
 40
1.0
176
     1
 90
        0
176
     1
 62
    18
420
        0
176
     1
 90
       50
176
     1
 90
        3
176
     1
 62
     5
420
      255
176
     1
290
     0
176
     1
 90
       50
176
     1
 90
       50
176
     1
 90
       50
176
     1
290
     0
176
     1
 90
       50
176
     1
 62
   256
176
     0
 40
1.0
176
     0
 90
        2
176
     1
  1
strokes_ogs.tif
176
     1
290
     0
176
     1
 40
1.0
176
     1
 40
1.0
176
     1
  0
VISUALSTYLE
  5
3F
102
{ACAD_REACTORS
330
2A
102
}
330
2A
100
AcDbVisualStyle
  2
Sketchy
 70
    24
177
     3
291
     0
 70
    58
 90
        1
176
     1
 90
        2
176
     1
 90
        2
176
     1
 90
        0
176
     1
 40
0.6
176
     1
 40
30.0
176
     1
 62
     7
420
 16777215
176
     1
 90
        2
176
     1
 90
        2
176
     1
 62
     7
176
     1
 62
     7
176
     1
 90
        1
176
     1
 90
        1
176
     1
 40
40.0
176
     1
 90
       11
176
     1
 62
     7
176
     1
 40
1.0
176
     1
 90
        1
176
     1
 90
        6
176
     1
 90
        2
176
     1
 62
     7
176
     1
 90
        6
176
     1
 90
        0
176
     1
 90
        0
176
     1
290
     0
176
     1
 90
        1
176
     1
 40
0.0
176
     1
 90
        0
176
     1
290
     0
176
     1
290
     1
176
     1
290
     1
176
     1
290
     0
176
     1
290
     0
176
     1
290
     0
176
     1
290
     0
176
     1
290
     0
176
     1
290
     0
176
     1
 90
       50
176
     1
 40
0.0
176
     1
 40
1.0
176
     1
 90
        0
176
     1
 62
    18
420
        0
176
     1
 90
       50
176
     1
 90
        3
176
     1
 62
     5
420
      255
176
     1
290
     0
176
     1
 90
       50
176
     1
 90
       50
176
     1
 90
       50
176
     1
290
     0
176
     1
 90
       50
176
     1
 62
   256
176
     0
 40
1.0
176
     0
 90
        2
176
     1
  1
strokes_ogs.tif
176
     1
290
     0
176
     1
 40
1.0
176
     1
 40
1.0
176
     1
  0
VISUALSTYLE
  5
37
102
{ACAD_REACTORS
330
2A
102
}
330
2A
100
AcDbVisualStyle
  2
Thicken
 70
    13
177
     3
291
     1
 70
    58
 90
        2
176
     1
 90
        2
176
     1
 90
        0
176
     1
 90
        0
176
     1
 40
0.6
176
     1
 40
30.0
176
     1
 62
     7
420
 16777215
176
     1
 90
        1
176
     1
 90
        4
176
     1
 62
     7
176
     1
 62
   257
176
     1
 90
        1
176
     1
 90
        1
176
     1
 40
1.0
176
     1
 90
       12
176
     1
 62
     7
176
     1
 40
1.0
176
     1
 90
        1
176
     1
 90
        6
176
     1
 90
        2
176
     1
 62
     7
176
     1
 90
        5
176
     1
 90
        0
176
     1
 90
        0
176
     1
290
     0
176
     1
 90
        1
176
     1
 40
0.0
176
     1
 90
        0
176
     1
290
     0
176
     1
290
     1
176
     1
290
     1
176
     1
290
     0
176
     1
290
     0
176
     1
290
     0
176
     1
290
     0
176
     1
290
     0
176
     1
290
     0
176
     1
 90
       50
176
     1
 40
0.0
176
     1
 40
1.0
176
     1
 90
        0
176
     1
 62
    18
420
        0
176
     1
 90
       50
176
     1
 90
        3
176
     1
 62
     5
420
      255
176
     1
290
     0
176
     1
 90
       50
176
     1
 90
       50
176
     1
 90
       50
176
     1
290
     0
176
     1
 90
       50
176
     1
 62
   256
176
     0
 40
1.0
176
     0
 90
        2
176
     1
  1
strokes_ogs.tif
176
     1
290
     0
176
     1
 40
1.0
176
     1
 40
1.0
176
     1
  0
VISUALSTYLE
  5
30
102
{ACAD_REACTORS
330
2A
102
}
330
2A
100
AcDbVisualStyle
  2
Wireframe
 70
     5
177
     3
291
     0
 70
    58
 90
        0
176
     1
 90
        2
176
     1
 90
        0
176
     1
 90
        0
176
     1
 40
0.6
176
     1
 40
30.0
176
     1
 62
     7
420
 16777215
176
     1
 90
        1
176
     1
 90
        4
176
     1
 62
     7
176
     1
 62
   257
176
     1
 90
        1
176
     1
 90
        1
176
     1
 40
1.0
176
     1
 90
        0
176
     1
 62
   257
176
     1
 40
1.0
176
     1
 90
        1
176
     1
 90
        6
176
     1
 90
        2
176
     1
 62
     7
176
     1
 90
        3
176
     1
 90
        0
176
     1
 90
        0
176
     1
290
     0
176
     1
 90
        1
176
     1
 40
0.0
176
     1
 90
        0
176
     1
290
     0
176
     1
290
     1
176
     1
290
     1
176
     1
290
     0
176
     1
290
     0
176
     1
290
     0
176
     1
290
     0
176
     1
290
     0
176
     1
290
     0
176
     1
 90
       50
176
     1
 40
0.0
176
     1
 40
1.0
176
     1
 90
        0
176
     1
 62
    18
420
        0
176
     1
 90
       50
176
     1
 90
        3
176
     1
 62
     5
420
      255
176
     1
290
     0
176
     1
 90
       50
176
     1
 90
       50
176
     1
 90
       50
176
     1
290
     0
176
     1
 90
       50
176
     1
 62
   256
176
     0
 40
1.0
176
     0
 90
        2
176
     1
  1
strokes_ogs.tif
176
     1
290
     0
176
     1
 40
1.0
176
     1
 40
1.0
176
     1
  0
VISUALSTYLE
  5
40
102
{ACAD_REACTORS
330
2A
102
}
330
2A
100
AcDbVisualStyle
  2
X-Ray
 70
    25
177
     3
291
     0
 70
    58
 90
        2
176
     1
 90
        2
176
     1
 90
        1
176
     1
 90
        1
176
     1
 40
0.5
176
     1
 40
30.0
176
     1
 62
     7
420
 16777215
176
     1
 90
        1
176
     1
 90
        0
176
     1
 62
     7
176
     1
 62
   257
176
     1
 90
        1
176
     1
 90
        1
176
     1
 40
1.0
176
     1
 90
        8
176
     1
 62
     7
176
     1
 40
1.0
176
     1
 90
        1
176
     1
 90
        6
176
     1
 90
        2
176
     1
 62
     7
176
     1
 90
        3
176
     1
 90
        0
176
     1
 90
        0
176
     1
290
     0
176
     1
 90
       13
176
     1
 40
0.0
176
     1
 90
        0
176
     1
290
     0
176
     1
290
     1
176
     1
290
     1
176
     1
290
     0
176
     1
290
     0
176
     1
290
     0
176
     1
290
     0
176
     1
290
     0
176
     1
290
     0
176
     1
 90
       50
176
     1
 40
0.0
176
     1
 40
1.0
176
     1
 90
        0
176
     1
 62
    18
420
        0
176
     1
 90
       50
176
     1
 90
        3
176
     1
 62
     5
420
      255
176
     1
290
     0
176
     1
 90
       50
176
     1
 90
       50
176
     1
 90
       50
176
     1
290
     0
176
     1
 90
       50
176
     1
 62
   256
176
     0
 40
1.0
176
     0
 90
        2
176
     1
  1
strokes_ogs.tif
176
     1
290
     0
176
     1
 40
1.0
176
     1
 40
1.0
176
     1
  0
DICTIONARYVAR
  5
8B
102
{ACAD_REACTORS
330
8A
102
}
330
8A
100
DictionaryVariables
280
     0
  1
1:1
  0
XRECORD
  5
6B
102
{ACAD_REACTORS
330
6A
102
}
102
{ACAD_XDICTIONARY
360
6C
102
}
330
6A
100
AcDbXrecord
280
     1
1000

 40
0.0
 40
0.0
 40
0.0
 40
0.0
 40
0.0
 40
0.0
  0
DICTIONARY
  5
6C
330
6B
100
AcDbDictionary
280
     1
281
     1
  3
ER_OBJECT_UID
360
6D
  0
XRECORD
  5
6D
102
{ACAD_REACTORS
330
6C
102
}
330
6C
100
AcDbXrecord
280
     1
1071
        1
  0
ENDSEC
  0
EOF
